<svg width="1440" height="189" viewBox="0 0 1440 189" fill="none" xmlns="http://www.w3.org/2000/svg">
<path d="M0 95.7178H1440" stroke="#C5BBF0" stroke-width="6"/>
<path d="M345 94.7178V57.2178" stroke="#3551BD" stroke-width="3"/>
<rect x="260" y="0.429443" width="180" height="66" rx="4" fill="white"/>
<rect x="262" y="2.42944" width="7" height="62" rx="2" fill="#C5BBF0"/>
<path d="M286.037 22.9294H288.293V11.5694H286.837L283.045 12.9774L283.701 14.7694L286.037 13.9534V22.9294ZM291.667 23.1534C292.403 23.1534 293.011 22.5454 293.011 21.7934C293.011 21.0414 292.403 20.4334 291.667 20.4334C290.915 20.4334 290.307 21.0414 290.307 21.7934C290.307 22.5454 290.915 23.1534 291.667 23.1534ZM308.472 22.9294H310.936L305.736 11.5374H304.264L299.08 22.9294H301.544L302.52 20.7694H307.48L308.472 22.9294ZM305 14.5294L305.88 16.8494L306.728 18.8654H303.288L304.136 16.8494L305 14.5294ZM312.072 25.7454H314.248V22.0814C314.936 22.9134 315.992 23.1214 316.84 23.1214C319.4 23.1214 321.048 21.3454 321.048 18.5454C321.048 15.7454 319.384 13.9854 316.936 13.9854C316.04 13.9854 314.968 14.2414 314.248 14.9454V14.1934H312.072V25.7454ZM316.36 21.1374C315.528 21.1374 314.68 20.8014 314.216 19.9854V17.0894C314.664 16.3694 315.56 15.9694 316.408 15.9694C317.8 15.9694 318.776 16.8974 318.776 18.5454C318.776 20.1614 317.832 21.1374 316.36 21.1374ZM322.697 25.7454H324.873V22.0814C325.561 22.9134 326.617 23.1214 327.465 23.1214C330.025 23.1214 331.673 21.3454 331.673 18.5454C331.673 15.7454 330.009 13.9854 327.561 13.9854C326.665 13.9854 325.593 14.2414 324.873 14.9454V14.1934H322.697V25.7454ZM326.985 21.1374C326.153 21.1374 325.305 20.8014 324.841 19.9854V17.0894C325.289 16.3694 326.185 15.9694 327.033 15.9694C328.425 15.9694 329.401 16.8974 329.401 18.5454C329.401 20.1614 328.457 21.1374 326.985 21.1374ZM333.322 22.9294H335.53V10.8014H333.322V22.9294ZM338.77 13.1214C339.506 13.1214 340.114 12.5134 340.114 11.7614C340.114 11.0094 339.506 10.4014 338.77 10.4014C338.018 10.4014 337.41 11.0094 337.41 11.7614C337.41 12.5134 338.018 13.1214 338.77 13.1214ZM337.634 22.9294H339.874V14.1934H337.634V22.9294ZM346.218 23.1054C347.93 23.1054 349.274 22.4174 350.058 21.3614L348.554 19.9854C348.122 20.5774 347.322 21.0894 346.298 21.0894C344.762 21.0894 343.77 20.0974 343.77 18.5294C343.77 17.0254 344.778 16.0334 346.314 16.0334C347.226 16.0334 348.042 16.4974 348.474 17.1374L350.01 15.7614C349.242 14.7054 347.882 14.0174 346.202 14.0174C343.289 14.0174 341.514 15.8894 341.514 18.5454C341.514 21.3134 343.242 23.1054 346.218 23.1054ZM355.206 23.1214C356.054 23.1214 357.142 22.9134 357.83 22.0814V22.9294H359.974V14.1934H357.798V14.9454C357.078 14.2414 356.006 13.9854 355.11 13.9854C352.662 13.9854 350.982 15.7454 350.982 18.5454C350.982 21.3454 352.646 23.1214 355.206 23.1214ZM355.686 21.1374C354.214 21.1374 353.254 20.1614 353.254 18.5454C353.254 16.8974 354.246 15.9694 355.638 15.9694C356.486 15.9694 357.382 16.3694 357.83 17.0894V19.9854C357.382 20.8014 356.518 21.1374 355.686 21.1374ZM365.097 23.1374C366.009 23.1374 366.617 23.0414 367.097 22.8974V20.9614C366.585 21.1854 366.025 21.2494 365.689 21.2494C364.777 21.2494 364.537 20.8174 364.537 19.8574V16.1614H367.113V14.1934H364.537V10.8014H362.361V14.1934H361.113V16.1614H362.361V20.2254C362.361 22.2254 363.177 23.1374 365.097 23.1374ZM369.786 13.1214C370.522 13.1214 371.13 12.5134 371.13 11.7614C371.13 11.0094 370.522 10.4014 369.786 10.4014C369.034 10.4014 368.426 11.0094 368.426 11.7614C368.426 12.5134 369.034 13.1214 369.786 13.1214ZM368.65 22.9294H370.89V14.1934H368.65V22.9294ZM377.345 23.1214C380.209 23.1214 382.129 21.3454 382.129 18.5454C382.129 15.7934 380.209 14.0014 377.345 14.0014C374.465 14.0014 372.529 15.7934 372.529 18.5454C372.529 21.3454 374.465 23.1214 377.345 23.1214ZM377.345 21.1054C375.841 21.1054 374.817 20.0974 374.817 18.5454C374.817 17.0254 375.841 16.0174 377.345 16.0174C378.833 16.0174 379.857 17.0254 379.857 18.5454C379.857 20.0974 378.833 21.1054 377.345 21.1054ZM383.775 22.9294H385.983V16.8974C386.447 16.4174 387.135 15.9854 387.999 15.9854C389.119 15.9854 389.839 16.4974 389.839 18.2574V22.9294H392.031V17.7134C392.031 14.9774 390.879 14.0014 388.703 14.0014C387.615 14.0014 386.607 14.4174 385.903 14.9934V14.1934H383.775V22.9294Z" fill="black"/>
<path d="M276.134 50.9294H277.31V47.1494H282.21V46.0574H277.31V42.1514H282.98V41.0594H276.134V50.9294ZM285.198 42.3194C285.66 42.3194 286.038 41.9414 286.038 41.4654C286.038 40.9894 285.66 40.6254 285.198 40.6254C284.722 40.6254 284.33 40.9894 284.33 41.4654C284.33 41.9414 284.722 42.3194 285.198 42.3194ZM284.596 50.9294H285.744V43.3554H284.596V50.9294ZM287.946 50.9294H289.094V40.3734H287.946V50.9294ZM291.309 50.9294H292.457V40.3734H291.309V50.9294ZM301.744 51.0694C304.18 51.0694 305.86 49.4874 305.86 47.1214C305.86 44.7834 304.18 43.2014 301.744 43.2014C299.308 43.2014 297.614 44.7834 297.614 47.1214C297.614 49.4874 299.308 51.0694 301.744 51.0694ZM301.744 50.0194C300.022 50.0194 298.79 48.8574 298.79 47.1214C298.79 45.4134 300.022 44.2514 301.744 44.2514C303.452 44.2514 304.684 45.4134 304.684 47.1214C304.684 48.8574 303.452 50.0194 301.744 50.0194ZM310.378 51.0694C311.428 51.0694 312.282 50.6914 312.996 49.9774V50.9294H314.102V43.3554H312.996V48.8294C312.436 49.4734 311.708 50.0334 310.602 50.0334C309.566 50.0334 308.502 49.6414 308.502 47.6954V43.3554H307.396V47.7934C307.396 50.3694 308.726 51.0694 310.378 51.0694ZM318.657 51.0834C319.203 51.0834 319.805 51.0134 320.239 50.8734V49.8094C319.749 49.9914 319.203 50.0474 318.853 50.0474C317.789 50.0474 317.565 49.5294 317.565 48.4094V44.3914H320.253V43.3554H317.565V40.3734H316.459V43.3554H315.213V44.3914H316.459V48.5214C316.459 50.1874 316.935 51.0834 318.657 51.0834ZM327.571 51.0834C328.117 51.0834 328.719 51.0134 329.153 50.8734V49.8094C328.663 49.9914 328.117 50.0474 327.767 50.0474C326.703 50.0474 326.479 49.5294 326.479 48.4094V44.3914H329.167V43.3554H326.479V40.3734H325.373V43.3554H324.127V44.3914H325.373V48.5214C325.373 50.1874 325.849 51.0834 327.571 51.0834ZM330.533 50.9294H331.639V45.3714C332.199 44.8114 333.025 44.2514 334.103 44.2514C335.167 44.2514 336.231 44.6434 336.231 46.5894V50.9294H337.337V46.4914C337.337 43.9154 336.021 43.2154 334.313 43.2154C333.305 43.2154 332.381 43.5934 331.639 44.2234V40.3734H330.533V50.9294ZM346.59 47.1774C346.59 44.8394 345.274 43.2014 342.698 43.2014C340.444 43.2014 338.862 44.7414 338.862 47.1214C338.862 49.5294 340.444 51.0694 342.852 51.0694C344.476 51.0694 345.596 50.4954 346.296 49.5574L345.498 48.8994C344.91 49.6134 344.028 50.0334 342.908 50.0334C341.34 50.0334 340.192 49.0674 340.024 47.4854H346.59V47.1774ZM342.712 44.2374C344.392 44.2374 345.26 45.1754 345.4 46.5194H340.052C340.276 45.0914 341.34 44.2374 342.712 44.2374ZM354.893 51.0694C355.747 51.0694 356.797 50.8454 357.511 50.0334V50.9294H358.617V43.3554H357.511V44.1954C356.783 43.4534 355.677 43.2014 354.823 43.2014C352.611 43.2014 351.099 44.6854 351.099 47.1074C351.099 49.5574 352.597 51.0694 354.893 51.0694ZM354.991 50.0194C353.367 50.0194 352.261 48.9274 352.261 47.1074C352.261 45.3294 353.381 44.2514 354.949 44.2514C355.873 44.2514 356.923 44.6994 357.511 45.5254V48.7174C356.951 49.6414 355.901 50.0194 354.991 50.0194ZM360.762 53.3794H361.868V50.0334C362.582 50.8454 363.632 51.0694 364.486 51.0694C366.782 51.0694 368.28 49.5574 368.28 47.1074C368.28 44.6854 366.768 43.2014 364.556 43.2014C363.702 43.2014 362.596 43.4534 361.868 44.1954V43.3554H360.762V53.3794ZM364.388 50.0194C363.478 50.0194 362.428 49.6414 361.868 48.7174V45.5254C362.456 44.6994 363.506 44.2514 364.43 44.2514C365.998 44.2514 367.118 45.3294 367.118 47.1074C367.118 48.9274 366.012 50.0194 364.388 50.0194ZM370.004 53.3794H371.11V50.0334C371.824 50.8454 372.874 51.0694 373.728 51.0694C376.024 51.0694 377.522 49.5574 377.522 47.1074C377.522 44.6854 376.01 43.2014 373.798 43.2014C372.944 43.2014 371.838 43.4534 371.11 44.1954V43.3554H370.004V53.3794ZM373.63 50.0194C372.72 50.0194 371.67 49.6414 371.11 48.7174V45.5254C371.698 44.6994 372.748 44.2514 373.672 44.2514C375.24 44.2514 376.36 45.3294 376.36 47.1074C376.36 48.9274 375.254 50.0194 373.63 50.0194ZM379.26 50.9294H380.408V40.3734H379.26V50.9294ZM383.212 42.3194C383.674 42.3194 384.052 41.9414 384.052 41.4654C384.052 40.9894 383.674 40.6254 383.212 40.6254C382.736 40.6254 382.344 40.9894 382.344 41.4654C382.344 41.9414 382.736 42.3194 383.212 42.3194ZM382.61 50.9294H383.758V43.3554H382.61V50.9294ZM389.488 51.0554C390.86 51.0554 392.05 50.5234 392.736 49.6554L391.938 48.8994C391.448 49.5294 390.566 50.0054 389.488 50.0054C387.766 50.0054 386.66 48.8854 386.66 47.1214C386.66 45.3854 387.78 44.2654 389.558 44.2654C390.51 44.2654 391.406 44.7274 391.896 45.3574L392.68 44.5874C392.008 43.7474 390.832 43.2154 389.558 43.2154C387.094 43.2154 385.484 44.7554 385.484 47.1214C385.484 49.5154 386.982 51.0554 389.488 51.0554ZM397.713 51.0694C398.567 51.0694 399.617 50.8454 400.331 50.0334V50.9294H401.437V43.3554H400.331V44.1954C399.603 43.4534 398.497 43.2014 397.643 43.2014C395.431 43.2014 393.919 44.6854 393.919 47.1074C393.919 49.5574 395.417 51.0694 397.713 51.0694ZM397.811 50.0194C396.187 50.0194 395.081 48.9274 395.081 47.1074C395.081 45.3294 396.201 44.2514 397.769 44.2514C398.693 44.2514 399.743 44.6994 400.331 45.5254V48.7174C399.771 49.6414 398.721 50.0194 397.811 50.0194ZM406.088 51.0834C406.634 51.0834 407.236 51.0134 407.67 50.8734V49.8094C407.18 49.9914 406.634 50.0474 406.284 50.0474C405.22 50.0474 404.996 49.5294 404.996 48.4094V44.3914H407.684V43.3554H404.996V40.3734H403.89V43.3554H402.644V44.3914H403.89V48.5214C403.89 50.1874 404.366 51.0834 406.088 51.0834ZM409.68 42.3194C410.142 42.3194 410.52 41.9414 410.52 41.4654C410.52 40.9894 410.142 40.6254 409.68 40.6254C409.204 40.6254 408.812 40.9894 408.812 41.4654C408.812 41.9414 409.204 42.3194 409.68 42.3194ZM409.078 50.9294H410.226V43.3554H409.078V50.9294ZM416.082 51.0694C418.518 51.0694 420.198 49.4874 420.198 47.1214C420.198 44.7834 418.518 43.2014 416.082 43.2014C413.646 43.2014 411.952 44.7834 411.952 47.1214C411.952 49.4874 413.646 51.0694 416.082 51.0694ZM416.082 50.0194C414.36 50.0194 413.128 48.8574 413.128 47.1214C413.128 45.4134 414.36 44.2514 416.082 44.2514C417.79 44.2514 419.022 45.4134 419.022 47.1214C419.022 48.8574 417.79 50.0194 416.082 50.0194ZM421.916 50.9294H423.022V45.3714C423.582 44.8114 424.408 44.2514 425.486 44.2514C426.55 44.2514 427.614 44.6434 427.614 46.5894V50.9294H428.72V46.4914C428.72 43.9154 427.404 43.2154 425.696 43.2154C424.688 43.2154 423.764 43.5934 423.022 44.2234V43.3554H421.916V50.9294Z" fill="#373B53"/>
<circle cx="344.5" cy="94.2178" r="10.5" fill="#A29FBF" fill-opacity="0.7"/>
<circle cx="344.5" cy="94.2178" r="6.5" fill="#3551BD"/>
<path d="M926 95.2178V57.7178" stroke="#3551BD" stroke-width="3"/>
<circle cx="925.5" cy="94.2178" r="10.5" fill="#A29FBF" fill-opacity="0.7"/>
<circle cx="925.5" cy="94.2178" r="6.5" fill="#3551BD"/>
<path d="M777 133.218V95.7178" stroke="#3551BD" stroke-width="3"/>
<circle cx="776.5" cy="94.2178" r="10.5" fill="#A29FBF" fill-opacity="0.7"/>
<circle cx="776.5" cy="94.2178" r="6.5" fill="#3551BD"/>
<path d="M489 128.218V90.7178" stroke="#3551BD" stroke-width="3"/>
<circle cx="488.5" cy="94.2178" r="10.5" fill="#A29FBF" fill-opacity="0.7"/>
<circle cx="488.5" cy="94.2178" r="6.5" fill="#3551BD"/>
<rect x="388" y="122.718" width="221" height="66" rx="4" fill="white"/>
<rect x="390" y="124.718" width="7" height="62" rx="2" fill="#C5BBF0"/>
<path d="M405.992 143.154C406.44 142.594 407.272 142.162 408.6 141.378C410.856 140.034 412.216 139.106 412.216 136.946C412.216 134.77 410.328 133.666 407.944 133.666C405.192 133.666 403.544 135.138 403.544 137.554V138.002H405.672V137.682C405.672 136.45 406.52 135.666 407.912 135.666C408.984 135.666 409.832 136.178 409.832 137.138C409.832 138.322 408.808 138.994 406.968 140.146C404.664 141.618 403.64 142.626 403.56 144.514V145.218H412.28V143.154H405.992ZM414.938 145.442C415.674 145.442 416.282 144.834 416.282 144.082C416.282 143.33 415.674 142.722 414.938 142.722C414.186 142.722 413.578 143.33 413.578 144.082C413.578 144.834 414.186 145.442 414.938 145.442ZM425.641 145.442C428.441 145.442 429.897 144.226 429.897 141.89C429.897 139.666 428.281 138.978 426.057 138.514C424.313 138.13 423.289 137.858 423.289 136.962C423.289 136.258 423.945 135.714 425.225 135.714C426.457 135.714 427.609 136.034 428.537 136.45L429.481 134.546C428.361 134.002 426.937 133.666 425.209 133.666C422.377 133.666 420.953 135.042 420.953 137.106C420.953 139.346 422.649 140.082 425.129 140.578C426.713 140.882 427.529 141.186 427.529 142.066C427.529 142.962 426.793 143.426 425.529 143.426C424.185 143.426 422.921 143.042 421.657 142.434L420.793 144.386C422.361 145.106 423.641 145.442 425.641 145.442ZM439.929 140.85C439.929 138.162 438.441 136.242 435.433 136.242C432.761 136.242 430.889 138.05 430.889 140.818C430.889 143.602 432.617 145.394 435.545 145.394C437.545 145.394 438.825 144.706 439.625 143.602L438.233 142.418C437.641 143.154 436.729 143.538 435.705 143.538C434.265 143.538 433.369 142.802 433.129 141.506H439.913C439.929 141.33 439.929 140.994 439.929 140.85ZM435.433 138.082C436.953 138.082 437.641 138.946 437.769 139.906H433.145C433.417 138.642 434.312 138.082 435.433 138.082ZM441.368 145.218H443.577V133.09H441.368V145.218ZM454.241 140.85C454.241 138.162 452.753 136.242 449.745 136.242C447.073 136.242 445.201 138.05 445.201 140.818C445.201 143.602 446.929 145.394 449.857 145.394C451.857 145.394 453.137 144.706 453.937 143.602L452.545 142.418C451.953 143.154 451.041 143.538 450.017 143.538C448.577 143.538 447.681 142.802 447.441 141.506H454.225C454.241 141.33 454.241 140.994 454.241 140.85ZM449.745 138.082C451.265 138.082 451.953 138.946 452.081 139.906H447.457C447.729 138.642 448.625 138.082 449.745 138.082ZM459.905 145.394C461.617 145.394 462.961 144.706 463.745 143.65L462.241 142.274C461.809 142.866 461.009 143.378 459.985 143.378C458.449 143.378 457.457 142.386 457.457 140.818C457.457 139.314 458.465 138.322 460.001 138.322C460.913 138.322 461.729 138.786 462.161 139.426L463.697 138.05C462.929 136.994 461.569 136.306 459.889 136.306C456.977 136.306 455.201 138.178 455.201 140.834C455.201 143.602 456.929 145.394 459.905 145.394ZM468.3 145.426C469.212 145.426 469.82 145.33 470.3 145.186V143.25C469.788 143.474 469.228 143.538 468.892 143.538C467.98 143.538 467.74 143.106 467.74 142.146V138.45H470.316V136.482H467.74V133.09H465.564V136.482H464.316V138.45H465.564V142.514C465.564 144.514 466.38 145.426 468.3 145.426ZM472.989 135.41C473.725 135.41 474.333 134.802 474.333 134.05C474.333 133.298 473.725 132.69 472.989 132.69C472.237 132.69 471.629 133.298 471.629 134.05C471.629 134.802 472.237 135.41 472.989 135.41ZM471.853 145.218H474.093V136.482H471.853V145.218ZM480.548 145.41C483.412 145.41 485.332 143.634 485.332 140.834C485.332 138.082 483.412 136.29 480.548 136.29C477.668 136.29 475.732 138.082 475.732 140.834C475.732 143.634 477.668 145.41 480.548 145.41ZM480.548 143.394C479.044 143.394 478.02 142.386 478.02 140.834C478.02 139.314 479.044 138.306 480.548 138.306C482.036 138.306 483.06 139.314 483.06 140.834C483.06 142.386 482.036 143.394 480.548 143.394ZM486.978 145.218H489.186V139.186C489.65 138.706 490.338 138.274 491.202 138.274C492.322 138.274 493.042 138.786 493.042 140.546V145.218H495.234V140.002C495.234 137.266 494.082 136.29 491.906 136.29C490.818 136.29 489.81 136.706 489.106 137.282V136.482H486.978V145.218Z" fill="black"/>
<path d="M409.958 168.052C410.882 167.772 411.428 167.03 411.428 165.868C411.428 164.272 410.35 163.348 408.25 163.348H404.134V173.218H408.726C411.134 173.218 412.17 172.238 412.17 170.39C412.17 169.144 411.372 168.346 409.958 168.052ZM405.31 164.44H408.264C409.454 164.44 410.21 164.916 410.21 165.924C410.21 167.086 409.566 167.632 408.068 167.632H405.31V164.44ZM408.726 172.126H405.31V168.724H408.362C410.196 168.724 410.952 169.354 410.952 170.39C410.952 171.524 410.336 172.126 408.726 172.126ZM421.01 169.466C421.01 167.128 419.694 165.49 417.118 165.49C414.864 165.49 413.282 167.03 413.282 169.41C413.282 171.818 414.864 173.358 417.272 173.358C418.896 173.358 420.016 172.784 420.716 171.846L419.918 171.188C419.33 171.902 418.448 172.322 417.328 172.322C415.76 172.322 414.612 171.356 414.444 169.774H421.01V169.466ZM417.132 166.526C418.812 166.526 419.68 167.464 419.82 168.808H414.472C414.696 167.38 415.76 166.526 417.132 166.526ZM433.247 169.466C433.247 167.128 431.931 165.49 429.355 165.49C427.101 165.49 425.519 167.03 425.519 169.41C425.519 171.818 427.101 173.358 429.509 173.358C431.133 173.358 432.253 172.784 432.953 171.846L432.155 171.188C431.567 171.902 430.685 172.322 429.565 172.322C427.997 172.322 426.849 171.356 426.681 169.774H433.247V169.466ZM429.369 166.526C431.049 166.526 431.917 167.464 432.057 168.808H426.709C426.933 167.38 427.997 166.526 429.369 166.526ZM440.236 165.644L437.534 171.594L436.596 169.424L434.888 165.644H433.628L437.212 173.316H437.856L441.454 165.644H440.236ZM445.719 173.358C446.573 173.358 447.623 173.134 448.337 172.322V173.218H449.443V165.644H448.337V166.484C447.609 165.742 446.503 165.49 445.649 165.49C443.437 165.49 441.925 166.974 441.925 169.396C441.925 171.846 443.423 173.358 445.719 173.358ZM445.817 172.308C444.193 172.308 443.087 171.216 443.087 169.396C443.087 167.618 444.207 166.54 445.775 166.54C446.699 166.54 447.749 166.988 448.337 167.814V171.006C447.777 171.93 446.727 172.308 445.817 172.308ZM451.602 173.218H452.75V162.662H451.602V173.218ZM457.751 173.358C458.801 173.358 459.655 172.98 460.369 172.266V173.218H461.475V165.644H460.369V171.118C459.809 171.762 459.081 172.322 457.975 172.322C456.939 172.322 455.875 171.93 455.875 169.984V165.644H454.769V170.082C454.769 172.658 456.099 173.358 457.751 173.358ZM466.856 173.358C467.71 173.358 468.76 173.134 469.474 172.322V173.218H470.58V165.644H469.474V166.484C468.746 165.742 467.64 165.49 466.786 165.49C464.574 165.49 463.062 166.974 463.062 169.396C463.062 171.846 464.56 173.358 466.856 173.358ZM466.954 172.308C465.33 172.308 464.224 171.216 464.224 169.396C464.224 167.618 465.344 166.54 466.912 166.54C467.836 166.54 468.886 166.988 469.474 167.814V171.006C468.914 171.93 467.864 172.308 466.954 172.308ZM475.231 173.372C475.777 173.372 476.379 173.302 476.813 173.162V172.098C476.323 172.28 475.777 172.336 475.427 172.336C474.363 172.336 474.139 171.818 474.139 170.698V166.68H476.827V165.644H474.139V162.662H473.033V165.644H471.787V166.68H473.033V170.81C473.033 172.476 473.509 173.372 475.231 173.372ZM485.131 169.466C485.131 167.128 483.815 165.49 481.239 165.49C478.985 165.49 477.403 167.03 477.403 169.41C477.403 171.818 478.985 173.358 481.393 173.358C483.017 173.358 484.137 172.784 484.837 171.846L484.039 171.188C483.451 171.902 482.569 172.322 481.449 172.322C479.881 172.322 478.733 171.356 478.565 169.774H485.131V169.466ZM481.253 166.526C482.933 166.526 483.801 167.464 483.941 168.808H478.593C478.817 167.38 479.881 166.526 481.253 166.526ZM490.016 173.358C490.87 173.358 491.92 173.134 492.634 172.322V173.218H493.74V162.662H492.634V166.484C491.906 165.742 490.8 165.49 489.946 165.49C487.734 165.49 486.222 166.974 486.222 169.396C486.222 171.846 487.72 173.358 490.016 173.358ZM490.114 172.308C488.49 172.308 487.384 171.216 487.384 169.396C487.384 167.618 488.504 166.54 490.072 166.54C490.996 166.54 492.046 166.988 492.634 167.814V171.006C492.074 171.93 491.024 172.308 490.114 172.308ZM503.013 173.358C505.309 173.358 506.807 171.846 506.807 169.396C506.807 166.974 505.295 165.49 503.083 165.49C502.229 165.49 501.123 165.742 500.395 166.484V162.662H499.289V173.218H500.395V172.322C501.109 173.134 502.159 173.358 503.013 173.358ZM502.915 172.308C502.005 172.308 500.955 171.93 500.395 171.006V167.814C500.983 166.988 502.033 166.54 502.957 166.54C504.525 166.54 505.645 167.618 505.645 169.396C505.645 171.216 504.539 172.308 502.915 172.308ZM513.76 165.644L511.114 172.182L508.314 165.644H507.054L510.526 173.498C510.064 174.464 509.532 174.856 508.622 174.856C508.062 174.856 507.726 174.744 507.46 174.688V175.738C507.698 175.808 508.244 175.892 508.58 175.892C509.56 175.892 510.792 175.724 511.716 173.498L514.964 165.644H513.76ZM525.472 168.052C526.396 167.772 526.942 167.03 526.942 165.868C526.942 164.272 525.864 163.348 523.764 163.348H519.648V173.218H524.24C526.648 173.218 527.684 172.238 527.684 170.39C527.684 169.144 526.886 168.346 525.472 168.052ZM520.824 164.44H523.778C524.968 164.44 525.724 164.916 525.724 165.924C525.724 167.086 525.08 167.632 523.582 167.632H520.824V164.44ZM524.24 172.126H520.824V168.724H523.876C525.71 168.724 526.466 169.354 526.466 170.39C526.466 171.524 525.85 172.126 524.24 172.126ZM536.527 173.218H537.815L533.335 163.25H532.635L528.169 173.218H529.457L530.521 170.838H535.449L536.527 173.218ZM532.985 165.098L533.895 167.226L534.945 169.746H531.039L532.075 167.226L532.985 165.098ZM546.355 163.348V170.936L539.691 163.222H539.089V173.218H540.265V165.63L546.929 173.33H547.531V163.348H546.355ZM557.158 173.218H558.446L553.966 163.25H553.266L548.8 173.218H550.088L551.152 170.838H556.08L557.158 173.218ZM553.616 165.098L554.526 167.226L555.576 169.746H551.67L552.706 167.226L553.616 165.098ZM565.602 173.372C566.148 173.372 566.75 173.302 567.184 173.162V172.098C566.694 172.28 566.148 172.336 565.798 172.336C564.734 172.336 564.51 171.818 564.51 170.698V166.68H567.198V165.644H564.51V162.662H563.404V165.644H562.158V166.68H563.404V170.81C563.404 172.476 563.88 173.372 565.602 173.372ZM575.503 169.466C575.503 167.128 574.187 165.49 571.611 165.49C569.357 165.49 567.775 167.03 567.775 169.41C567.775 171.818 569.357 173.358 571.765 173.358C573.389 173.358 574.509 172.784 575.209 171.846L574.411 171.188C573.823 171.902 572.941 172.322 571.821 172.322C570.253 172.322 569.105 171.356 568.937 169.774H575.503V169.466ZM571.625 166.526C573.305 166.526 574.173 167.464 574.313 168.808H568.965C569.189 167.38 570.253 166.526 571.625 166.526ZM580.387 173.358C581.241 173.358 582.291 173.134 583.005 172.322V173.218H584.111V165.644H583.005V166.484C582.277 165.742 581.171 165.49 580.317 165.49C578.105 165.49 576.593 166.974 576.593 169.396C576.593 171.846 578.091 173.358 580.387 173.358ZM580.485 172.308C578.861 172.308 577.755 171.216 577.755 169.396C577.755 167.618 578.875 166.54 580.443 166.54C581.367 166.54 582.417 166.988 583.005 167.814V171.006C582.445 171.93 581.395 172.308 580.485 172.308ZM595.076 165.49C593.844 165.49 592.892 165.924 592.192 166.554C591.744 165.77 590.988 165.49 589.994 165.49C589.084 165.49 588.132 165.826 587.362 166.512V165.644H586.256V173.218H587.362V167.632C587.978 167.002 588.86 166.526 589.714 166.526C590.736 166.526 591.548 167.016 591.548 168.836V173.218H592.654V168.864C592.654 168.346 592.612 167.884 592.528 167.506C593.116 166.932 593.872 166.526 594.81 166.526C595.818 166.526 596.896 166.918 596.896 169.046V173.218H598.002V168.878C598.002 166.19 596.602 165.49 595.076 165.49Z" fill="#373B53"/>
<path d="M622 83.2178V45.7178" stroke="#3551BD" stroke-width="3"/>
<circle cx="621.5" cy="94.2178" r="10.5" fill="#A29FBF" fill-opacity="0.7"/>
<circle cx="621.5" cy="94.2178" r="6.5" fill="#3551BD"/>
<rect x="509" y="0.429443" width="245" height="66" rx="4" fill="white"/>
<rect x="511" y="2.42944" width="7" height="62" rx="2" fill="#C5BBF0"/>
<path d="M529.664 15.8254L533.008 12.7374V11.5854H525.008V13.5694H529.808L526.496 16.7374L527.296 17.7774C527.808 17.5534 528.336 17.4414 528.848 17.4414C530.256 17.4414 531.168 18.0814 531.168 19.2974C531.168 20.4654 530.336 21.1854 528.864 21.1854C527.456 21.1854 526.56 20.5454 526.56 19.5214V19.4254H524.448V19.6174C524.448 21.7934 526.16 23.1534 528.944 23.1534C531.632 23.1534 533.424 21.8734 533.424 19.3934C533.424 17.5214 532.144 15.8414 529.664 15.8254ZM535.985 23.1534C536.721 23.1534 537.329 22.5454 537.329 21.7934C537.329 21.0414 536.721 20.4334 535.985 20.4334C535.233 20.4334 534.625 21.0414 534.625 21.7934C534.625 22.5454 535.233 23.1534 535.985 23.1534ZM542.528 22.9294H544.848V11.5854H542.528V22.9294ZM547.103 22.9294H549.311V16.8974C549.775 16.4174 550.463 15.9854 551.327 15.9854C552.447 15.9854 553.167 16.4974 553.167 18.2574V22.9294H555.359V17.7134C555.359 14.9774 554.207 14.0014 552.031 14.0014C550.943 14.0014 549.935 14.4174 549.231 14.9934V14.1934H547.103V22.9294ZM560.378 23.1374C561.29 23.1374 561.898 23.0414 562.378 22.8974V20.9614C561.866 21.1854 561.306 21.2494 560.97 21.2494C560.058 21.2494 559.818 20.8174 559.818 19.8574V16.1614H562.394V14.1934H559.818V10.8014H557.642V14.1934H556.394V16.1614H557.642V20.2254C557.642 22.2254 558.458 23.1374 560.378 23.1374ZM571.929 18.5614C571.929 15.8734 570.441 13.9534 567.433 13.9534C564.761 13.9534 562.889 15.7614 562.889 18.5294C562.889 21.3134 564.617 23.1054 567.545 23.1054C569.545 23.1054 570.825 22.4174 571.625 21.3134L570.233 20.1294C569.641 20.8654 568.729 21.2494 567.705 21.2494C566.265 21.2494 565.369 20.5134 565.129 19.2174H571.913C571.929 19.0414 571.929 18.7054 571.929 18.5614ZM567.433 15.7934C568.953 15.7934 569.641 16.6574 569.769 17.6174H565.145C565.417 16.3534 566.312 15.7934 567.433 15.7934ZM573.368 22.9294H575.577V18.8014C575.577 17.1214 576.536 16.3054 577.769 16.3054C578.105 16.3054 578.457 16.3694 578.825 16.4654V14.0814C578.665 14.0174 578.441 14.0014 578.217 14.0014C577.033 14.0014 576.105 14.5294 575.497 15.3294V14.1934H573.368V22.9294ZM586.34 14.1934L584.804 17.8254L584.036 19.8094L583.268 17.7934L581.764 14.1934H579.252L583.38 22.9774H584.66L588.772 14.1934H586.34ZM591.02 13.1214C591.756 13.1214 592.364 12.5134 592.364 11.7614C592.364 11.0094 591.756 10.4014 591.02 10.4014C590.268 10.4014 589.66 11.0094 589.66 11.7614C589.66 12.5134 590.268 13.1214 591.02 13.1214ZM589.884 22.9294H592.124V14.1934H589.884V22.9294ZM602.804 18.5614C602.804 15.8734 601.316 13.9534 598.308 13.9534C595.636 13.9534 593.764 15.7614 593.764 18.5294C593.764 21.3134 595.492 23.1054 598.42 23.1054C600.42 23.1054 601.7 22.4174 602.5 21.3134L601.108 20.1294C600.516 20.8654 599.604 21.2494 598.58 21.2494C597.14 21.2494 596.244 20.5134 596.004 19.2174H602.788C602.804 19.0414 602.804 18.7054 602.804 18.5614ZM598.308 15.7934C599.828 15.7934 600.516 16.6574 600.644 17.6174H596.02C596.292 16.3534 597.188 15.7934 598.308 15.7934ZM613.644 14.1934L612.044 19.3614L609.948 14.1614H608.828L606.764 19.3294L605.196 14.1934H602.892L605.948 22.9774H607.18L609.372 17.6974L611.612 22.9774H612.844L615.9 14.1934H613.644Z" fill="black"/>
<path d="M525.134 50.9294H526.31V46.9534H531.896V50.9294H533.072V41.0594H531.896V45.8614H526.31V41.0594H525.134V50.9294ZM538.623 51.0694C539.477 51.0694 540.527 50.8454 541.241 50.0334V50.9294H542.347V43.3554H541.241V44.1954C540.513 43.4534 539.407 43.2014 538.553 43.2014C536.341 43.2014 534.829 44.6854 534.829 47.1074C534.829 49.5574 536.327 51.0694 538.623 51.0694ZM538.721 50.0194C537.097 50.0194 535.991 48.9274 535.991 47.1074C535.991 45.3294 537.111 44.2514 538.679 44.2514C539.603 44.2514 540.653 44.6994 541.241 45.5254V48.7174C540.681 49.6414 539.631 50.0194 538.721 50.0194ZM550.12 43.3554L547.418 49.3054L546.48 47.1354L544.772 43.3554H543.512L547.096 51.0274H547.74L551.338 43.3554H550.12ZM559.538 47.1774C559.538 44.8394 558.222 43.2014 555.646 43.2014C553.392 43.2014 551.81 44.7414 551.81 47.1214C551.81 49.5294 553.392 51.0694 555.8 51.0694C557.424 51.0694 558.544 50.4954 559.244 49.5574L558.446 48.8994C557.858 49.6134 556.976 50.0334 555.856 50.0334C554.288 50.0334 553.14 49.0674 552.972 47.4854H559.538V47.1774ZM555.66 44.2374C557.34 44.2374 558.208 45.1754 558.348 46.5194H553C553.224 45.0914 554.288 44.2374 555.66 44.2374ZM565.11 42.3194C565.572 42.3194 565.95 41.9414 565.95 41.4654C565.95 40.9894 565.572 40.6254 565.11 40.6254C564.634 40.6254 564.242 40.9894 564.242 41.4654C564.242 41.9414 564.634 42.3194 565.11 42.3194ZM564.508 50.9294H565.656V43.3554H564.508V50.9294ZM567.844 50.9294H568.95V45.3714C569.51 44.8114 570.336 44.2514 571.414 44.2514C572.478 44.2514 573.542 44.6434 573.542 46.5894V50.9294H574.648V46.4914C574.648 43.9154 573.332 43.2154 571.624 43.2154C570.616 43.2154 569.692 43.5934 568.95 44.2234V43.3554H567.844V50.9294ZM579.141 51.0834C579.687 51.0834 580.289 51.0134 580.723 50.8734V49.8094C580.233 49.9914 579.687 50.0474 579.337 50.0474C578.273 50.0474 578.049 49.5294 578.049 48.4094V44.3914H580.737V43.3554H578.049V40.3734H576.943V43.3554H575.697V44.3914H576.943V48.5214C576.943 50.1874 577.419 51.0834 579.141 51.0834ZM589.042 47.1774C589.042 44.8394 587.726 43.2014 585.15 43.2014C582.896 43.2014 581.314 44.7414 581.314 47.1214C581.314 49.5294 582.896 51.0694 585.304 51.0694C586.928 51.0694 588.048 50.4954 588.748 49.5574L587.95 48.8994C587.362 49.6134 586.48 50.0334 585.36 50.0334C583.792 50.0334 582.644 49.0674 582.476 47.4854H589.042V47.1774ZM585.164 44.2374C586.844 44.2374 587.712 45.1754 587.852 46.5194H582.504C582.728 45.0914 583.792 44.2374 585.164 44.2374ZM590.594 50.9294H591.7V47.1634C591.7 45.3854 592.694 44.3354 593.926 44.3354C594.276 44.3354 594.64 44.4054 595.032 44.5594V43.3414C594.808 43.2434 594.472 43.2014 594.15 43.2014C592.988 43.2014 592.148 43.7614 591.7 44.5034V43.3554H590.594V50.9294ZM602.101 43.3554L599.399 49.3054L598.461 47.1354L596.753 43.3554H595.493L599.077 51.0274H599.721L603.319 43.3554H602.101ZM605.128 42.3194C605.59 42.3194 605.968 41.9414 605.968 41.4654C605.968 40.9894 605.59 40.6254 605.128 40.6254C604.652 40.6254 604.26 40.9894 604.26 41.4654C604.26 41.9414 604.652 42.3194 605.128 42.3194ZM604.526 50.9294H605.674V43.3554H604.526V50.9294ZM615.128 47.1774C615.128 44.8394 613.812 43.2014 611.236 43.2014C608.982 43.2014 607.4 44.7414 607.4 47.1214C607.4 49.5294 608.982 51.0694 611.39 51.0694C613.014 51.0694 614.134 50.4954 614.834 49.5574L614.036 48.8994C613.448 49.6134 612.566 50.0334 611.446 50.0334C609.878 50.0334 608.73 49.0674 608.562 47.4854H615.128V47.1774ZM611.25 44.2374C612.93 44.2374 613.798 45.1754 613.938 46.5194H608.59C608.814 45.0914 609.878 44.2374 611.25 44.2374ZM625.546 43.3554L623.628 49.0114L621.444 43.2994H620.772L618.616 48.9834L616.712 43.3554H615.508L618.266 51.0274H618.896L621.08 45.3294L623.306 51.0274H623.964L626.708 43.3554H625.546ZM640.394 43.3554L638.476 49.0114L636.292 43.2994H635.62L633.464 48.9834L631.56 43.3554H630.356L633.114 51.0274H633.744L635.928 45.3294L638.154 51.0274H638.812L641.556 43.3554H640.394ZM643.368 42.3194C643.83 42.3194 644.208 41.9414 644.208 41.4654C644.208 40.9894 643.83 40.6254 643.368 40.6254C642.892 40.6254 642.5 40.9894 642.5 41.4654C642.5 41.9414 642.892 42.3194 643.368 42.3194ZM642.766 50.9294H643.914V43.3554H642.766V50.9294ZM648.608 51.0834C649.154 51.0834 649.756 51.0134 650.19 50.8734V49.8094C649.7 49.9914 649.154 50.0474 648.804 50.0474C647.74 50.0474 647.516 49.5294 647.516 48.4094V44.3914H650.204V43.3554H647.516V40.3734H646.41V43.3554H645.164V44.3914H646.41V48.5214C646.41 50.1874 646.886 51.0834 648.608 51.0834ZM651.57 50.9294H652.676V45.3714C653.236 44.8114 654.062 44.2514 655.14 44.2514C656.204 44.2514 657.268 44.6434 657.268 46.5894V50.9294H658.374V46.4914C658.374 43.9154 657.058 43.2154 655.35 43.2154C654.342 43.2154 653.418 43.5934 652.676 44.2234V40.3734H651.57V50.9294ZM669.646 45.7634C670.57 45.4834 671.116 44.7414 671.116 43.5794C671.116 41.9834 670.038 41.0594 667.938 41.0594H663.822V50.9294H668.414C670.822 50.9294 671.858 49.9494 671.858 48.1014C671.858 46.8554 671.06 46.0574 669.646 45.7634ZM664.998 42.1514H667.952C669.142 42.1514 669.898 42.6274 669.898 43.6354C669.898 44.7974 669.254 45.3434 667.756 45.3434H664.998V42.1514ZM668.414 49.8374H664.998V46.4354H668.05C669.883 46.4354 670.64 47.0654 670.64 48.1014C670.64 49.2354 670.024 49.8374 668.414 49.8374ZM680.701 50.9294H681.989L677.509 40.9614H676.809L672.343 50.9294H673.631L674.695 48.5494H679.623L680.701 50.9294ZM677.159 42.8094L678.069 44.9374L679.119 47.4574H675.213L676.249 44.9374L677.159 42.8094ZM690.529 41.0594V48.6474L683.865 40.9334H683.263V50.9294H684.439V43.3414L691.103 51.0414H691.705V41.0594H690.529ZM701.332 50.9294H702.62L698.14 40.9614H697.44L692.974 50.9294H694.262L695.326 48.5494H700.254L701.332 50.9294ZM697.79 42.8094L698.7 44.9374L699.75 47.4574H695.844L696.88 44.9374L697.79 42.8094ZM709.776 51.0834C710.322 51.0834 710.924 51.0134 711.358 50.8734V49.8094C710.868 49.9914 710.322 50.0474 709.972 50.0474C708.908 50.0474 708.684 49.5294 708.684 48.4094V44.3914H711.372V43.3554H708.684V40.3734H707.578V43.3554H706.332V44.3914H707.578V48.5214C707.578 50.1874 708.054 51.0834 709.776 51.0834ZM719.676 47.1774C719.676 44.8394 718.36 43.2014 715.784 43.2014C713.53 43.2014 711.948 44.7414 711.948 47.1214C711.948 49.5294 713.53 51.0694 715.938 51.0694C717.562 51.0694 718.682 50.4954 719.382 49.5574L718.584 48.8994C717.996 49.6134 717.114 50.0334 715.994 50.0334C714.426 50.0334 713.278 49.0674 713.11 47.4854H719.676V47.1774ZM715.798 44.2374C717.478 44.2374 718.346 45.1754 718.486 46.5194H713.138C713.362 45.0914 714.426 44.2374 715.798 44.2374ZM724.561 51.0694C725.415 51.0694 726.465 50.8454 727.179 50.0334V50.9294H728.285V43.3554H727.179V44.1954C726.451 43.4534 725.345 43.2014 724.491 43.2014C722.279 43.2014 720.767 44.6854 720.767 47.1074C720.767 49.5574 722.265 51.0694 724.561 51.0694ZM724.659 50.0194C723.035 50.0194 721.929 48.9274 721.929 47.1074C721.929 45.3294 723.049 44.2514 724.617 44.2514C725.541 44.2514 726.591 44.6994 727.179 45.5254V48.7174C726.619 49.6414 725.569 50.0194 724.659 50.0194ZM739.25 43.2014C738.018 43.2014 737.066 43.6354 736.366 44.2654C735.918 43.4814 735.162 43.2014 734.168 43.2014C733.258 43.2014 732.306 43.5374 731.536 44.2234V43.3554H730.43V50.9294H731.536V45.3434C732.152 44.7134 733.034 44.2374 733.888 44.2374C734.91 44.2374 735.722 44.7274 735.722 46.5474V50.9294H736.828V46.5754C736.828 46.0574 736.786 45.5954 736.702 45.2174C737.29 44.6434 738.046 44.2374 738.984 44.2374C739.992 44.2374 741.07 44.6294 741.07 46.7574V50.9294H742.176V46.5894C742.176 43.9014 740.776 43.2014 739.25 43.2014Z" fill="#373B53"/>
<rect x="787" y="0.429443" width="364" height="66" rx="4" fill="white"/>
<rect x="789" y="2.42944" width="7" height="62" rx="2" fill="#C5BBF0"/>
<path d="M807.424 15.2974C806.56 15.2974 805.696 15.5054 805.12 15.8254L805.264 13.5694H810.912V11.5854H803.36L803.008 17.8574H804.928C805.312 17.4414 806.176 17.0894 806.992 17.0894C808.64 17.0894 809.408 17.8574 809.408 19.1694C809.408 20.4334 808.64 21.1694 807.088 21.1694C805.696 21.1694 804.704 20.5294 804.704 19.4894V19.4254H802.576V19.6014C802.576 21.7934 804.384 23.1534 807.152 23.1534C809.92 23.1534 811.648 21.8414 811.648 19.2494C811.648 16.8494 810.016 15.2974 807.424 15.2974ZM814.157 23.1534C814.893 23.1534 815.501 22.5454 815.501 21.7934C815.501 21.0414 814.893 20.4334 814.157 20.4334C813.405 20.4334 812.797 21.0414 812.797 21.7934C812.797 22.5454 813.405 23.1534 814.157 23.1534ZM820.588 22.9294H825.052C828.7 22.9294 830.62 20.6894 830.62 17.1214C830.62 13.4254 828.492 11.5854 825.004 11.5854H820.588V22.9294ZM822.796 20.8494V13.6814H825.02C827.052 13.6814 828.252 14.8974 828.252 17.1214C828.252 19.6494 826.94 20.8494 825.084 20.8494H822.796ZM840.897 18.5614C840.897 15.8734 839.409 13.9534 836.401 13.9534C833.729 13.9534 831.857 15.7614 831.857 18.5294C831.857 21.3134 833.585 23.1054 836.513 23.1054C838.513 23.1054 839.793 22.4174 840.593 21.3134L839.201 20.1294C838.609 20.8654 837.697 21.2494 836.673 21.2494C835.233 21.2494 834.337 20.5134 834.097 19.2174H840.881C840.897 19.0414 840.897 18.7054 840.897 18.5614ZM836.401 15.7934C837.921 15.7934 838.609 16.6574 838.737 17.6174H834.113C834.385 16.3534 835.281 15.7934 836.401 15.7934ZM852.945 13.9854C851.649 13.9854 850.577 14.4334 849.777 15.1214C849.281 14.3214 848.481 13.9854 847.329 13.9854C846.337 13.9854 845.313 14.3054 844.465 14.9934V14.1934H842.337V22.9294H844.545V16.8814C845.073 16.3214 845.825 15.9854 846.513 15.9854C847.553 15.9854 848.161 16.5454 848.161 18.0654V22.9294H850.321V17.7614C850.321 17.4254 850.305 17.1054 850.273 16.8174C850.769 16.2894 851.393 15.9854 852.209 15.9854C853.249 15.9854 853.969 16.4814 853.969 18.1934V22.9294H856.161V17.7614C856.161 14.9774 854.977 13.9854 852.945 13.9854ZM862.455 23.1214C865.319 23.1214 867.239 21.3454 867.239 18.5454C867.239 15.7934 865.319 14.0014 862.455 14.0014C859.575 14.0014 857.639 15.7934 857.639 18.5454C857.639 21.3454 859.575 23.1214 862.455 23.1214ZM862.455 21.1054C860.951 21.1054 859.927 20.0974 859.927 18.5454C859.927 17.0254 860.951 16.0174 862.455 16.0174C863.943 16.0174 864.967 17.0254 864.967 18.5454C864.967 20.0974 863.943 21.1054 862.455 21.1054ZM872.26 22.9294H876.724C880.372 22.9294 882.292 20.6894 882.292 17.1214C882.292 13.4254 880.164 11.5854 876.676 11.5854H872.26V22.9294ZM874.468 20.8494V13.6814H876.692C878.724 13.6814 879.924 14.8974 879.924 17.1214C879.924 19.6494 878.612 20.8494 876.756 20.8494H874.468ZM887.753 23.1214C888.601 23.1214 889.689 22.9134 890.377 22.0814V22.9294H892.521V14.1934H890.345V14.9454C889.625 14.2414 888.553 13.9854 887.657 13.9854C885.209 13.9854 883.529 15.7454 883.529 18.5454C883.529 21.3454 885.193 23.1214 887.753 23.1214ZM888.233 21.1374C886.761 21.1374 885.801 20.1614 885.801 18.5454C885.801 16.8974 886.793 15.9694 888.185 15.9694C889.033 15.9694 889.929 16.3694 890.377 17.0894V19.9854C889.929 20.8014 889.065 21.1374 888.233 21.1374ZM900.652 14.1934L898.3 20.2894L895.82 14.1934H893.356L897.276 22.9454C896.828 23.8094 896.188 24.1294 895.308 24.1294C894.796 24.1294 894.444 24.0334 894.044 23.9054V25.8094C894.428 25.9374 895.02 26.0014 895.468 26.0014C896.844 26.0014 898.332 25.7294 899.42 23.0254L903.004 14.1934H900.652Z" fill="black"/>
<path d="M805.836 50.9294H807.04V42.1514H810.428V41.0594H802.448V42.1514H805.836V50.9294ZM814.19 51.0694C815.044 51.0694 816.094 50.8454 816.808 50.0334V50.9294H817.914V43.3554H816.808V44.1954C816.08 43.4534 814.974 43.2014 814.12 43.2014C811.908 43.2014 810.396 44.6854 810.396 47.1074C810.396 49.5574 811.894 51.0694 814.19 51.0694ZM814.288 50.0194C812.664 50.0194 811.558 48.9274 811.558 47.1074C811.558 45.3294 812.678 44.2514 814.246 44.2514C815.17 44.2514 816.22 44.6994 816.808 45.5254V48.7174C816.248 49.6414 815.198 50.0194 814.288 50.0194ZM825.827 50.9294H827.199L824.231 46.2394L827.045 43.3554H825.519L821.151 47.8634V40.3734H820.045V50.9294H821.151V49.3334L823.405 47.0794L825.827 50.9294ZM835.637 47.1774C835.637 44.8394 834.321 43.2014 831.745 43.2014C829.491 43.2014 827.909 44.7414 827.909 47.1214C827.909 49.5294 829.491 51.0694 831.899 51.0694C833.523 51.0694 834.643 50.4954 835.343 49.5574L834.545 48.8994C833.957 49.6134 833.075 50.0334 831.955 50.0334C830.387 50.0334 829.239 49.0674 829.071 47.4854H835.637V47.1774ZM831.759 44.2374C833.439 44.2374 834.307 45.1754 834.447 46.5194H829.099C829.323 45.0914 830.387 44.2374 831.759 44.2374ZM840.608 53.3794H841.714V50.0334C842.428 50.8454 843.478 51.0694 844.332 51.0694C846.628 51.0694 848.126 49.5574 848.126 47.1074C848.126 44.6854 846.614 43.2014 844.402 43.2014C843.548 43.2014 842.442 43.4534 841.714 44.1954V43.3554H840.608V53.3794ZM844.234 50.0194C843.324 50.0194 842.274 49.6414 841.714 48.7174V45.5254C842.302 44.6994 843.352 44.2514 844.276 44.2514C845.844 44.2514 846.964 45.3294 846.964 47.1074C846.964 48.9274 845.858 50.0194 844.234 50.0194ZM853.182 51.0694C854.036 51.0694 855.086 50.8454 855.8 50.0334V50.9294H856.906V43.3554H855.8V44.1954C855.072 43.4534 853.966 43.2014 853.112 43.2014C850.9 43.2014 849.388 44.6854 849.388 47.1074C849.388 49.5574 850.886 51.0694 853.182 51.0694ZM853.28 50.0194C851.656 50.0194 850.55 48.9274 850.55 47.1074C850.55 45.3294 851.67 44.2514 853.238 44.2514C854.162 44.2514 855.212 44.6994 855.8 45.5254V48.7174C855.24 49.6414 854.19 50.0194 853.28 50.0194ZM859.051 50.9294H860.157V47.1634C860.157 45.3854 861.151 44.3354 862.383 44.3354C862.733 44.3354 863.097 44.4054 863.489 44.5594V43.3414C863.265 43.2434 862.929 43.2014 862.607 43.2014C861.445 43.2014 860.605 43.7614 860.157 44.5034V43.3554H859.051V50.9294ZM867.436 51.0834C867.982 51.0834 868.584 51.0134 869.018 50.8734V49.8094C868.528 49.9914 867.982 50.0474 867.632 50.0474C866.568 50.0474 866.344 49.5294 866.344 48.4094V44.3914H869.032V43.3554H866.344V40.3734H865.238V43.3554H863.992V44.3914H865.238V48.5214C865.238 50.1874 865.714 51.0834 867.436 51.0834ZM874.446 42.3194C874.908 42.3194 875.286 41.9414 875.286 41.4654C875.286 40.9894 874.908 40.6254 874.446 40.6254C873.97 40.6254 873.578 40.9894 873.578 41.4654C873.578 41.9414 873.97 42.3194 874.446 42.3194ZM873.844 50.9294H874.992V43.3554H873.844V50.9294ZM877.18 50.9294H878.286V45.3714C878.846 44.8114 879.672 44.2514 880.75 44.2514C881.814 44.2514 882.878 44.6434 882.878 46.5894V50.9294H883.984V46.4914C883.984 43.9154 882.668 43.2154 880.96 43.2154C879.952 43.2154 879.028 43.5934 878.286 44.2234V43.3554H877.18V50.9294ZM889.389 53.3794H890.495V50.0334C891.209 50.8454 892.259 51.0694 893.113 51.0694C895.409 51.0694 896.907 49.5574 896.907 47.1074C896.907 44.6854 895.395 43.2014 893.183 43.2014C892.329 43.2014 891.223 43.4534 890.495 44.1954V43.3554H889.389V53.3794ZM893.015 50.0194C892.105 50.0194 891.055 49.6414 890.495 48.7174V45.5254C891.083 44.6994 892.133 44.2514 893.057 44.2514C894.625 44.2514 895.745 45.3294 895.745 47.1074C895.745 48.9274 894.639 50.0194 893.015 50.0194ZM898.631 50.9294H899.737V47.1634C899.737 45.3854 900.731 44.3354 901.963 44.3354C902.313 44.3354 902.677 44.4054 903.069 44.5594V43.3414C902.845 43.2434 902.509 43.2014 902.187 43.2014C901.025 43.2014 900.185 43.7614 899.737 44.5034V43.3554H898.631V50.9294ZM905.112 42.3194C905.574 42.3194 905.952 41.9414 905.952 41.4654C905.952 40.9894 905.574 40.6254 905.112 40.6254C904.636 40.6254 904.244 40.9894 904.244 41.4654C904.244 41.9414 904.636 42.3194 905.112 42.3194ZM904.51 50.9294H905.658V43.3554H904.51V50.9294ZM913.474 43.3554L910.772 49.3054L909.834 47.1354L908.126 43.3554H906.866L910.45 51.0274H911.094L914.692 43.3554H913.474ZM918.957 51.0694C919.811 51.0694 920.861 50.8454 921.575 50.0334V50.9294H922.681V43.3554H921.575V44.1954C920.847 43.4534 919.741 43.2014 918.887 43.2014C916.675 43.2014 915.163 44.6854 915.163 47.1074C915.163 49.5574 916.661 51.0694 918.957 51.0694ZM919.055 50.0194C917.431 50.0194 916.325 48.9274 916.325 47.1074C916.325 45.3294 917.445 44.2514 919.013 44.2514C919.937 44.2514 920.987 44.6994 921.575 45.5254V48.7174C921.015 49.6414 919.965 50.0194 919.055 50.0194ZM927.332 51.0834C927.878 51.0834 928.48 51.0134 928.914 50.8734V49.8094C928.424 49.9914 927.878 50.0474 927.528 50.0474C926.464 50.0474 926.24 49.5294 926.24 48.4094V44.3914H928.928V43.3554H926.24V40.3734H925.134V43.3554H923.888V44.3914H925.134V48.5214C925.134 50.1874 925.61 51.0834 927.332 51.0834ZM937.233 47.1774C937.233 44.8394 935.917 43.2014 933.341 43.2014C931.087 43.2014 929.505 44.7414 929.505 47.1214C929.505 49.5294 931.087 51.0694 933.495 51.0694C935.119 51.0694 936.239 50.4954 936.939 49.5574L936.141 48.8994C935.553 49.6134 934.671 50.0334 933.551 50.0334C931.983 50.0334 930.835 49.0674 930.667 47.4854H937.233V47.1774ZM933.355 44.2374C935.035 44.2374 935.903 45.1754 936.043 46.5194H930.695C930.919 45.0914 931.983 44.2374 933.355 44.2374ZM942.245 50.9294H945.829C948.937 50.9294 950.589 48.9414 950.589 45.8894C950.589 42.6274 948.783 41.0594 945.759 41.0594H942.245V50.9294ZM943.421 49.8374V42.1514H945.759C948.195 42.1514 949.371 43.4954 949.371 45.8894C949.371 48.4234 947.971 49.8374 945.829 49.8374H943.421ZM959.6 47.1774C959.6 44.8394 958.284 43.2014 955.708 43.2014C953.454 43.2014 951.872 44.7414 951.872 47.1214C951.872 49.5294 953.454 51.0694 955.862 51.0694C957.486 51.0694 958.606 50.4954 959.306 49.5574L958.508 48.8994C957.92 49.6134 957.038 50.0334 955.918 50.0334C954.35 50.0334 953.202 49.0674 953.034 47.4854H959.6V47.1774ZM955.722 44.2374C957.402 44.2374 958.27 45.1754 958.41 46.5194H953.062C953.286 45.0914 954.35 44.2374 955.722 44.2374ZM969.973 43.2014C968.741 43.2014 967.789 43.6354 967.089 44.2654C966.641 43.4814 965.885 43.2014 964.891 43.2014C963.981 43.2014 963.029 43.5374 962.259 44.2234V43.3554H961.153V50.9294H962.259V45.3434C962.875 44.7134 963.757 44.2374 964.611 44.2374C965.633 44.2374 966.445 44.7274 966.445 46.5474V50.9294H967.551V46.5754C967.551 46.0574 967.509 45.5954 967.425 45.2174C968.013 44.6434 968.769 44.2374 969.707 44.2374C970.715 44.2374 971.793 44.6294 971.793 46.7574V50.9294H972.899V46.5894C972.899 43.9014 971.499 43.2014 969.973 43.2014ZM978.561 51.0694C980.997 51.0694 982.677 49.4874 982.677 47.1214C982.677 44.7834 980.997 43.2014 978.561 43.2014C976.125 43.2014 974.431 44.7834 974.431 47.1214C974.431 49.4874 976.125 51.0694 978.561 51.0694ZM978.561 50.0194C976.839 50.0194 975.607 48.8574 975.607 47.1214C975.607 45.4134 976.839 44.2514 978.561 44.2514C980.269 44.2514 981.501 45.4134 981.501 47.1214C981.501 48.8574 980.269 50.0194 978.561 50.0194ZM987.855 50.9294H991.439C994.547 50.9294 996.199 48.9414 996.199 45.8894C996.199 42.6274 994.393 41.0594 991.369 41.0594H987.855V50.9294ZM989.031 49.8374V42.1514H991.369C993.805 42.1514 994.981 43.4954 994.981 45.8894C994.981 48.4234 993.581 49.8374 991.439 49.8374H989.031ZM1001.28 51.0694C1002.13 51.0694 1003.18 50.8454 1003.89 50.0334V50.9294H1005V43.3554H1003.89V44.1954C1003.17 43.4534 1002.06 43.2014 1001.21 43.2014C998.994 43.2014 997.482 44.6854 997.482 47.1074C997.482 49.5574 998.98 51.0694 1001.28 51.0694ZM1001.37 50.0194C999.75 50.0194 998.644 48.9274 998.644 47.1074C998.644 45.3294 999.764 44.2514 1001.33 44.2514C1002.26 44.2514 1003.31 44.6994 1003.89 45.5254V48.7174C1003.33 49.6414 1002.28 50.0194 1001.37 50.0194ZM1012.65 43.3554L1010 49.8934L1007.2 43.3554H1005.94L1009.41 51.2094C1008.95 52.1754 1008.42 52.5674 1007.51 52.5674C1006.95 52.5674 1006.61 52.4554 1006.35 52.3994V53.4494C1006.58 53.5194 1007.13 53.6034 1007.47 53.6034C1008.45 53.6034 1009.68 53.4354 1010.6 51.2094L1013.85 43.3554H1012.65ZM1027.55 43.3554L1025.63 49.0114L1023.45 43.2994H1022.78L1020.62 48.9834L1018.72 43.3554H1017.51L1020.27 51.0274H1020.9L1023.08 45.3294L1025.31 51.0274H1025.97L1028.71 43.3554H1027.55ZM1030.52 42.3194C1030.99 42.3194 1031.36 41.9414 1031.36 41.4654C1031.36 40.9894 1030.99 40.6254 1030.52 40.6254C1030.05 40.6254 1029.66 40.9894 1029.66 41.4654C1029.66 41.9414 1030.05 42.3194 1030.52 42.3194ZM1029.92 50.9294H1031.07V43.3554H1029.92V50.9294ZM1035.76 51.0834C1036.31 51.0834 1036.91 51.0134 1037.35 50.8734V49.8094C1036.86 49.9914 1036.31 50.0474 1035.96 50.0474C1034.9 50.0474 1034.67 49.5294 1034.67 48.4094V44.3914H1037.36V43.3554H1034.67V40.3734H1033.57V43.3554H1032.32V44.3914H1033.57V48.5214C1033.57 50.1874 1034.04 51.0834 1035.76 51.0834ZM1038.73 50.9294H1039.83V45.3714C1040.39 44.8114 1041.22 44.2514 1042.3 44.2514C1043.36 44.2514 1044.42 44.6434 1044.42 46.5894V50.9294H1045.53V46.4914C1045.53 43.9154 1044.21 43.2154 1042.51 43.2154C1041.5 43.2154 1040.57 43.5934 1039.83 44.2234V40.3734H1038.73V50.9294ZM1056.8 45.7634C1057.73 45.4834 1058.27 44.7414 1058.27 43.5794C1058.27 41.9834 1057.19 41.0594 1055.09 41.0594H1050.98V50.9294H1055.57C1057.98 50.9294 1059.01 49.9494 1059.01 48.1014C1059.01 46.8554 1058.22 46.0574 1056.8 45.7634ZM1052.15 42.1514H1055.11C1056.3 42.1514 1057.05 42.6274 1057.05 43.6354C1057.05 44.7974 1056.41 45.3434 1054.91 45.3434H1052.15V42.1514ZM1055.57 49.8374H1052.15V46.4354H1055.21C1057.04 46.4354 1057.8 47.0654 1057.8 48.1014C1057.8 49.2354 1057.18 49.8374 1055.57 49.8374ZM1067.86 50.9294H1069.15L1064.67 40.9614H1063.97L1059.5 50.9294H1060.79L1061.85 48.5494H1066.78L1067.86 50.9294ZM1064.32 42.8094L1065.23 44.9374L1066.28 47.4574H1062.37L1063.41 44.9374L1064.32 42.8094ZM1077.69 41.0594V48.6474L1071.02 40.9334H1070.42V50.9294H1071.6V43.3414L1078.26 51.0414H1078.86V41.0594H1077.69ZM1088.49 50.9294H1089.78L1085.3 40.9614H1084.6L1080.13 50.9294H1081.42L1082.48 48.5494H1087.41L1088.49 50.9294ZM1084.95 42.8094L1085.86 44.9374L1086.91 47.4574H1083L1084.04 44.9374L1084.95 42.8094ZM1097.76 51.0694C1098.61 51.0694 1099.66 50.8454 1100.38 50.0334V50.9294H1101.48V43.3554H1100.38V44.1954C1099.65 43.4534 1098.54 43.2014 1097.69 43.2014C1095.48 43.2014 1093.96 44.6854 1093.96 47.1074C1093.96 49.5574 1095.46 51.0694 1097.76 51.0694ZM1097.86 50.0194C1096.23 50.0194 1095.13 48.9274 1095.13 47.1074C1095.13 45.3294 1096.25 44.2514 1097.81 44.2514C1098.74 44.2514 1099.79 44.6994 1100.38 45.5254V48.7174C1099.82 49.6414 1098.77 50.0194 1097.86 50.0194ZM1103.63 50.9294H1104.73V45.3714C1105.29 44.8114 1106.12 44.2514 1107.2 44.2514C1108.26 44.2514 1109.33 44.6434 1109.33 46.5894V50.9294H1110.43V46.4914C1110.43 43.9154 1109.12 43.2154 1107.41 43.2154C1106.4 43.2154 1105.48 43.5934 1104.73 44.2234V43.3554H1103.63V50.9294ZM1115.71 53.6034C1118.31 53.6034 1119.47 52.5674 1119.47 50.2014V43.3554H1118.37V44.1954C1117.64 43.4534 1116.53 43.2014 1115.68 43.2014C1113.47 43.2014 1111.96 44.6854 1111.96 46.8974C1111.96 49.1794 1113.45 50.6914 1115.75 50.6914C1116.6 50.6914 1117.65 50.4674 1118.37 49.6694V50.2294C1118.37 51.9654 1117.32 52.5534 1115.62 52.5534C1114.24 52.5534 1113.44 52.2174 1112.57 51.7554V52.9594C1113.36 53.3094 1114.21 53.6034 1115.71 53.6034ZM1115.85 49.6414C1114.22 49.6414 1113.12 48.5494 1113.12 46.8974C1113.12 45.3294 1114.24 44.2514 1115.81 44.2514C1116.73 44.2514 1117.78 44.6994 1118.37 45.5254V48.3394C1117.81 49.2634 1116.76 49.6414 1115.85 49.6414ZM1128.84 47.1774C1128.84 44.8394 1127.53 43.2014 1124.95 43.2014C1122.7 43.2014 1121.12 44.7414 1121.12 47.1214C1121.12 49.5294 1122.7 51.0694 1125.11 51.0694C1126.73 51.0694 1127.85 50.4954 1128.55 49.5574L1127.75 48.8994C1127.16 49.6134 1126.28 50.0334 1125.16 50.0334C1123.59 50.0334 1122.45 49.0674 1122.28 47.4854H1128.84V47.1774ZM1124.97 44.2374C1126.65 44.2374 1127.51 45.1754 1127.65 46.5194H1122.31C1122.53 45.0914 1123.59 44.2374 1124.97 44.2374ZM1130.41 50.9294H1131.56V40.3734H1130.41V50.9294ZM1136.48 51.0834C1138.53 51.0834 1139.47 50.3694 1139.47 48.7734C1139.47 47.4574 1138.48 46.9674 1136.62 46.5474C1135.24 46.2394 1134.64 45.9874 1134.64 45.2594C1134.64 44.5734 1135.31 44.2514 1136.28 44.2514C1137.06 44.2514 1137.93 44.4194 1138.69 44.7974L1139.08 43.8034C1138.23 43.4534 1137.3 43.2154 1136.31 43.2154C1134.63 43.2154 1133.47 43.9714 1133.47 45.3154C1133.47 46.6454 1134.36 47.1914 1136.27 47.5974C1137.51 47.8634 1138.27 48.1014 1138.27 48.8294C1138.27 49.5854 1137.79 50.0474 1136.5 50.0474C1135.5 50.0474 1134.6 49.7954 1133.76 49.3334L1133.33 50.3414C1134.22 50.8174 1135.27 51.0834 1136.48 51.0834Z" fill="#373B53"/>
<rect x="634" y="122.859" width="484" height="66" rx="4" fill="white"/>
<rect x="636" y="124.859" width="7" height="62" rx="2" fill="#C5BBF0"/>
<path d="M657.576 141.423V133.967H655.96L649.288 142.175V143.359H655.352V145.359H657.576V143.359H659.352V141.423H657.576ZM652.088 141.535L655.528 137.311V141.535H652.088ZM661.61 145.583C662.346 145.583 662.954 144.975 662.954 144.223C662.954 143.471 662.346 142.863 661.61 142.863C660.858 142.863 660.25 143.471 660.25 144.223C660.25 144.975 660.858 145.583 661.61 145.583ZM672.553 134.015H668.041V145.359H670.297V142.287H672.313C675.465 142.287 677.145 140.959 677.145 138.095C677.145 135.423 675.561 134.015 672.553 134.015ZM672.233 140.303H670.297V136.031H672.409C674.073 136.031 674.809 136.751 674.809 138.159C674.809 139.503 674.009 140.303 672.233 140.303ZM678.509 145.359H680.717V141.231C680.717 139.551 681.677 138.735 682.909 138.735C683.245 138.735 683.597 138.799 683.965 138.895V136.511C683.805 136.447 683.581 136.431 683.357 136.431C682.173 136.431 681.245 136.959 680.637 137.759V136.623H678.509V145.359ZM693.741 140.991C693.741 138.303 692.253 136.383 689.245 136.383C686.573 136.383 684.701 138.191 684.701 140.959C684.701 143.743 686.429 145.535 689.357 145.535C691.357 145.535 692.637 144.847 693.437 143.743L692.045 142.559C691.453 143.295 690.541 143.679 689.517 143.679C688.077 143.679 687.181 142.943 686.941 141.647H693.725C693.741 141.471 693.741 141.135 693.741 140.991ZM689.245 138.223C690.765 138.223 691.453 139.087 691.581 140.047H686.957C687.229 138.783 688.125 138.223 689.245 138.223ZM695.181 148.175H697.357V144.511C698.045 145.343 699.101 145.551 699.949 145.551C702.509 145.551 704.157 143.775 704.157 140.975C704.157 138.175 702.493 136.415 700.045 136.415C699.149 136.415 698.077 136.671 697.357 137.375V136.623H695.181V148.175ZM699.469 143.567C698.637 143.567 697.789 143.231 697.325 142.415V139.519C697.773 138.799 698.669 138.399 699.517 138.399C700.909 138.399 701.885 139.327 701.885 140.975C701.885 142.591 700.941 143.567 699.469 143.567ZM709.55 145.551C710.398 145.551 711.486 145.343 712.174 144.511V145.359H714.318V136.623H712.142V137.375C711.422 136.671 710.35 136.415 709.454 136.415C707.006 136.415 705.326 138.175 705.326 140.975C705.326 143.775 706.99 145.551 709.55 145.551ZM710.03 143.567C708.558 143.567 707.598 142.591 707.598 140.975C707.598 139.327 708.59 138.399 709.982 138.399C710.83 138.399 711.726 138.799 712.174 139.519V142.415C711.726 143.231 710.862 143.567 710.03 143.567ZM716.368 145.359H718.577V141.231C718.577 139.551 719.536 138.735 720.769 138.735C721.105 138.735 721.457 138.799 721.825 138.895V136.511C721.665 136.447 721.441 136.431 721.217 136.431C720.033 136.431 719.105 136.959 718.497 137.759V136.623H716.368V145.359ZM726.784 145.551C727.632 145.551 728.72 145.343 729.408 144.511V145.359H731.552V136.623H729.376V137.375C728.656 136.671 727.584 136.415 726.688 136.415C724.24 136.415 722.56 138.175 722.56 140.975C722.56 143.775 724.224 145.551 726.784 145.551ZM727.264 143.567C725.792 143.567 724.832 142.591 724.832 140.975C724.832 139.327 725.824 138.399 727.216 138.399C728.064 138.399 728.96 138.799 729.408 139.519V142.415C728.96 143.231 728.096 143.567 727.264 143.567ZM736.675 145.567C737.587 145.567 738.195 145.471 738.675 145.327V143.391C738.163 143.615 737.603 143.679 737.267 143.679C736.355 143.679 736.115 143.247 736.115 142.287V138.591H738.691V136.623H736.115V133.231H733.939V136.623H732.691V138.591H733.939V142.655C733.939 144.655 734.755 145.567 736.675 145.567ZM741.364 135.551C742.1 135.551 742.708 134.943 742.708 134.191C742.708 133.439 742.1 132.831 741.364 132.831C740.612 132.831 740.004 133.439 740.004 134.191C740.004 134.943 740.612 135.551 741.364 135.551ZM740.228 145.359H742.468V136.623H740.228V145.359ZM748.923 145.551C751.787 145.551 753.707 143.775 753.707 140.975C753.707 138.223 751.787 136.431 748.923 136.431C746.043 136.431 744.107 138.223 744.107 140.975C744.107 143.775 746.043 145.551 748.923 145.551ZM748.923 143.535C747.419 143.535 746.395 142.527 746.395 140.975C746.395 139.455 747.419 138.447 748.923 138.447C750.411 138.447 751.435 139.455 751.435 140.975C751.435 142.527 750.411 143.535 748.923 143.535ZM755.353 145.359H757.561V139.327C758.025 138.847 758.713 138.415 759.577 138.415C760.697 138.415 761.417 138.927 761.417 140.687V145.359H763.609V140.143C763.609 137.407 762.457 136.431 760.281 136.431C759.193 136.431 758.185 136.847 757.481 137.423V136.623H755.353V145.359Z" fill="black"/>
<path d="M662.314 163.489L659.626 171.133L656.7 163.433H656.056L653.116 171.119L650.4 163.489H649.112L652.738 173.471H653.382L656.364 165.799L659.36 173.471H660.004L663.602 163.489H662.314ZM667.774 173.499C670.21 173.499 671.89 171.917 671.89 169.551C671.89 167.213 670.21 165.631 667.774 165.631C665.338 165.631 663.644 167.213 663.644 169.551C663.644 171.917 665.338 173.499 667.774 173.499ZM667.774 172.449C666.052 172.449 664.82 171.287 664.82 169.551C664.82 167.843 666.052 166.681 667.774 166.681C669.482 166.681 670.714 167.843 670.714 169.551C670.714 171.287 669.482 172.449 667.774 172.449ZM673.608 173.359H674.714V169.593C674.714 167.815 675.708 166.765 676.94 166.765C677.29 166.765 677.654 166.835 678.046 166.989V165.771C677.822 165.673 677.486 165.631 677.164 165.631C676.002 165.631 675.162 166.191 674.714 166.933V165.785H673.608V173.359ZM685.255 173.359H686.627L683.659 168.669L686.473 165.785H684.947L680.579 170.293V162.803H679.473V173.359H680.579V171.763L682.833 169.509L685.255 173.359ZM695.09 173.499C697.526 173.499 699.206 171.917 699.206 169.551C699.206 167.213 697.526 165.631 695.09 165.631C692.654 165.631 690.96 167.213 690.96 169.551C690.96 171.917 692.654 173.499 695.09 173.499ZM695.09 172.449C693.368 172.449 692.136 171.287 692.136 169.551C692.136 167.843 693.368 166.681 695.09 166.681C696.798 166.681 698.03 167.843 698.03 169.551C698.03 171.287 696.798 172.449 695.09 172.449ZM700.924 173.359H702.03V167.801C702.59 167.241 703.416 166.681 704.494 166.681C705.558 166.681 706.622 167.073 706.622 169.019V173.359H707.728V168.921C707.728 166.345 706.412 165.645 704.704 165.645C703.696 165.645 702.772 166.023 702.03 166.653V165.785H700.924V173.359ZM718.635 165.785L715.989 172.323L713.189 165.785H711.929L715.401 173.639C714.939 174.605 714.407 174.997 713.497 174.997C712.937 174.997 712.601 174.885 712.335 174.829V175.879C712.573 175.949 713.119 176.033 713.455 176.033C714.435 176.033 715.667 175.865 716.591 173.639L719.839 165.785H718.635ZM724.457 173.499C726.893 173.499 728.573 171.917 728.573 169.551C728.573 167.213 726.893 165.631 724.457 165.631C722.021 165.631 720.327 167.213 720.327 169.551C720.327 171.917 722.021 173.499 724.457 173.499ZM724.457 172.449C722.735 172.449 721.503 171.287 721.503 169.551C721.503 167.843 722.735 166.681 724.457 166.681C726.165 166.681 727.397 167.843 727.397 169.551C727.397 171.287 726.165 172.449 724.457 172.449ZM733.091 173.499C734.141 173.499 734.995 173.121 735.709 172.407V173.359H736.815V165.785H735.709V171.259C735.149 171.903 734.421 172.463 733.315 172.463C732.279 172.463 731.215 172.071 731.215 170.125V165.785H730.109V170.223C730.109 172.799 731.439 173.499 733.091 173.499ZM738.863 173.359H739.969V169.593C739.969 167.815 740.963 166.765 742.195 166.765C742.545 166.765 742.909 166.835 743.301 166.989V165.771C743.077 165.673 742.741 165.631 742.419 165.631C741.257 165.631 740.417 166.191 739.969 166.933V165.785H738.863V173.359ZM748.762 164.749C749.224 164.749 749.602 164.371 749.602 163.895C749.602 163.419 749.224 163.055 748.762 163.055C748.286 163.055 747.894 163.419 747.894 163.895C747.894 164.371 748.286 164.749 748.762 164.749ZM748.16 173.359H749.308V165.785H748.16V173.359ZM751.496 173.359H752.602V167.801C753.162 167.241 753.988 166.681 755.066 166.681C756.13 166.681 757.194 167.073 757.194 169.019V173.359H758.3V168.921C758.3 166.345 756.984 165.645 755.276 165.645C754.268 165.645 753.344 166.023 752.602 166.653V165.785H751.496V173.359ZM765.915 165.785L763.213 171.735L762.275 169.565L760.567 165.785H759.307L762.891 173.457H763.535L767.133 165.785H765.915ZM775.333 169.607C775.333 167.269 774.017 165.631 771.441 165.631C769.187 165.631 767.605 167.171 767.605 169.551C767.605 171.959 769.187 173.499 771.595 173.499C773.219 173.499 774.339 172.925 775.039 171.987L774.241 171.329C773.653 172.043 772.771 172.463 771.651 172.463C770.083 172.463 768.935 171.497 768.767 169.915H775.333V169.607ZM771.455 166.667C773.135 166.667 774.003 167.605 774.143 168.949H768.795C769.019 167.521 770.083 166.667 771.455 166.667ZM779.601 173.513C781.659 173.513 782.597 172.799 782.597 171.203C782.597 169.887 781.603 169.397 779.741 168.977C778.369 168.669 777.767 168.417 777.767 167.689C777.767 167.003 778.439 166.681 779.405 166.681C780.189 166.681 781.057 166.849 781.813 167.227L782.205 166.233C781.351 165.883 780.427 165.645 779.433 165.645C777.753 165.645 776.591 166.401 776.591 167.745C776.591 169.075 777.487 169.621 779.391 170.027C780.637 170.293 781.393 170.531 781.393 171.259C781.393 172.015 780.917 172.477 779.629 172.477C778.621 172.477 777.725 172.225 776.885 171.763L776.451 172.771C777.347 173.247 778.397 173.513 779.601 173.513ZM786.801 173.513C787.347 173.513 787.949 173.443 788.383 173.303V172.239C787.893 172.421 787.347 172.477 786.997 172.477C785.933 172.477 785.709 171.959 785.709 170.839V166.821H788.397V165.785H785.709V162.803H784.603V165.785H783.357V166.821H784.603V170.951C784.603 172.617 785.079 173.513 786.801 173.513ZM798.611 165.631C797.379 165.631 796.427 166.065 795.727 166.695C795.279 165.911 794.523 165.631 793.529 165.631C792.619 165.631 791.667 165.967 790.897 166.653V165.785H789.791V173.359H790.897V167.773C791.513 167.143 792.395 166.667 793.249 166.667C794.271 166.667 795.083 167.157 795.083 168.977V173.359H796.189V169.005C796.189 168.487 796.147 168.025 796.063 167.647C796.651 167.073 797.407 166.667 798.345 166.667C799.353 166.667 800.431 167.059 800.431 169.187V173.359H801.537V169.019C801.537 166.331 800.137 165.631 798.611 165.631ZM810.797 169.607C810.797 167.269 809.481 165.631 806.905 165.631C804.651 165.631 803.069 167.171 803.069 169.551C803.069 171.959 804.651 173.499 807.059 173.499C808.683 173.499 809.803 172.925 810.503 171.987L809.705 171.329C809.117 172.043 808.235 172.463 807.115 172.463C805.547 172.463 804.399 171.497 804.231 169.915H810.797V169.607ZM806.919 166.667C808.599 166.667 809.467 167.605 809.607 168.949H804.259C804.483 167.521 805.547 166.667 806.919 166.667ZM812.35 173.359H813.456V167.801C814.016 167.241 814.842 166.681 815.92 166.681C816.984 166.681 818.048 167.073 818.048 169.019V173.359H819.154V168.921C819.154 166.345 817.838 165.645 816.13 165.645C815.122 165.645 814.198 166.023 813.456 166.653V165.785H812.35V173.359ZM823.647 173.513C824.193 173.513 824.795 173.443 825.229 173.303V172.239C824.739 172.421 824.193 172.477 823.843 172.477C822.779 172.477 822.555 171.959 822.555 170.839V166.821H825.243V165.785H822.555V162.803H821.449V165.785H820.203V166.821H821.449V170.951C821.449 172.617 821.925 173.513 823.647 173.513ZM833.387 173.499C834.241 173.499 835.291 173.275 836.005 172.463V173.359H837.111V162.803H836.005V166.625C835.277 165.883 834.171 165.631 833.317 165.631C831.105 165.631 829.593 167.115 829.593 169.537C829.593 171.987 831.091 173.499 833.387 173.499ZM833.485 172.449C831.861 172.449 830.755 171.357 830.755 169.537C830.755 167.759 831.875 166.681 833.443 166.681C834.367 166.681 835.417 167.129 836.005 167.955V171.147C835.445 172.071 834.395 172.449 833.485 172.449ZM846.522 169.607C846.522 167.269 845.206 165.631 842.63 165.631C840.376 165.631 838.794 167.171 838.794 169.551C838.794 171.959 840.376 173.499 842.784 173.499C844.408 173.499 845.528 172.925 846.228 171.987L845.43 171.329C844.842 172.043 843.96 172.463 842.84 172.463C841.272 172.463 840.124 171.497 839.956 169.915H846.522V169.607ZM842.644 166.667C844.324 166.667 845.192 167.605 845.332 168.949H839.984C840.208 167.521 841.272 166.667 842.644 166.667ZM851.616 173.485C852.988 173.485 854.178 172.953 854.864 172.085L854.066 171.329C853.576 171.959 852.694 172.435 851.616 172.435C849.894 172.435 848.788 171.315 848.788 169.551C848.788 167.815 849.908 166.695 851.686 166.695C852.638 166.695 853.534 167.157 854.024 167.787L854.808 167.017C854.136 166.177 852.96 165.645 851.686 165.645C849.222 165.645 847.612 167.185 847.612 169.551C847.612 171.945 849.11 173.485 851.616 173.485ZM862.278 173.359H863.65L860.682 168.669L863.496 165.785H861.97L857.602 170.293V162.803H856.496V173.359H857.602V171.763L859.856 169.509L862.278 173.359ZM871.778 173.499C872.632 173.499 873.682 173.275 874.396 172.463V173.359H875.502V165.785H874.396V166.625C873.668 165.883 872.562 165.631 871.708 165.631C869.496 165.631 867.984 167.115 867.984 169.537C867.984 171.987 869.482 173.499 871.778 173.499ZM871.876 172.449C870.252 172.449 869.146 171.357 869.146 169.537C869.146 167.759 870.266 166.681 871.834 166.681C872.758 166.681 873.808 167.129 874.396 167.955V171.147C873.836 172.071 872.786 172.449 871.876 172.449ZM877.647 173.359H878.753V167.801C879.313 167.241 880.139 166.681 881.217 166.681C882.281 166.681 883.345 167.073 883.345 169.019V173.359H884.451V168.921C884.451 166.345 883.135 165.645 881.427 165.645C880.419 165.645 879.495 166.023 878.753 166.653V165.785H877.647V173.359ZM889.77 173.499C890.624 173.499 891.674 173.275 892.388 172.463V173.359H893.494V162.803H892.388V166.625C891.66 165.883 890.554 165.631 889.7 165.631C887.488 165.631 885.976 167.115 885.976 169.537C885.976 171.987 887.474 173.499 889.77 173.499ZM889.868 172.449C888.244 172.449 887.138 171.357 887.138 169.537C887.138 167.759 888.258 166.681 889.826 166.681C890.75 166.681 891.8 167.129 892.388 167.955V171.147C891.828 172.071 890.778 172.449 889.868 172.449ZM899.491 173.359H900.597V166.821H903.019V165.785H900.597V165.253C900.597 164.021 900.961 163.629 901.899 163.629C902.235 163.629 902.641 163.671 903.131 163.825V162.845C902.697 162.705 902.235 162.635 901.731 162.635C900.219 162.635 899.491 163.531 899.491 165.197V165.785H898.217V166.821H899.491V173.359ZM904.84 164.749C905.302 164.749 905.68 164.371 905.68 163.895C905.68 163.419 905.302 163.055 904.84 163.055C904.364 163.055 903.972 163.419 903.972 163.895C903.972 164.371 904.364 164.749 904.84 164.749ZM904.238 173.359H905.386V165.785H904.238V173.359ZM907.574 173.359H908.68V167.801C909.24 167.241 910.066 166.681 911.144 166.681C912.208 166.681 913.272 167.073 913.272 169.019V173.359H914.378V168.921C914.378 166.345 913.062 165.645 911.354 165.645C910.346 165.645 909.422 166.023 908.68 166.653V165.785H907.574V173.359ZM919.697 173.499C920.551 173.499 921.601 173.275 922.315 172.463V173.359H923.421V165.785H922.315V166.625C921.587 165.883 920.481 165.631 919.627 165.631C917.415 165.631 915.903 167.115 915.903 169.537C915.903 171.987 917.401 173.499 919.697 173.499ZM919.795 172.449C918.171 172.449 917.065 171.357 917.065 169.537C917.065 167.759 918.185 166.681 919.753 166.681C920.677 166.681 921.727 167.129 922.315 167.955V171.147C921.755 172.071 920.705 172.449 919.795 172.449ZM925.567 173.359H926.673V167.801C927.233 167.241 928.059 166.681 929.137 166.681C930.201 166.681 931.265 167.073 931.265 169.019V173.359H932.371V168.921C932.371 166.345 931.055 165.645 929.347 165.645C928.339 165.645 927.415 166.023 926.673 166.653V165.785H925.567V173.359ZM937.9 173.485C939.272 173.485 940.462 172.953 941.148 172.085L940.35 171.329C939.86 171.959 938.978 172.435 937.9 172.435C936.178 172.435 935.072 171.315 935.072 169.551C935.072 167.815 936.192 166.695 937.97 166.695C938.922 166.695 939.818 167.157 940.308 167.787L941.092 167.017C940.42 166.177 939.244 165.645 937.97 165.645C935.506 165.645 933.896 167.185 933.896 169.551C933.896 171.945 935.394 173.485 937.9 173.485ZM943.395 164.749C943.857 164.749 944.235 164.371 944.235 163.895C944.235 163.419 943.857 163.055 943.395 163.055C942.919 163.055 942.527 163.419 942.527 163.895C942.527 164.371 942.919 164.749 943.395 164.749ZM942.793 173.359H943.941V165.785H942.793V173.359ZM949.461 173.499C950.315 173.499 951.365 173.275 952.079 172.463V173.359H953.185V165.785H952.079V166.625C951.351 165.883 950.245 165.631 949.391 165.631C947.179 165.631 945.667 167.115 945.667 169.537C945.667 171.987 947.165 173.499 949.461 173.499ZM949.559 172.449C947.935 172.449 946.829 171.357 946.829 169.537C946.829 167.759 947.949 166.681 949.517 166.681C950.441 166.681 951.491 167.129 952.079 167.955V171.147C951.519 172.071 950.469 172.449 949.559 172.449ZM955.344 173.359H956.492V162.803H955.344V173.359ZM962.112 175.809H963.218V172.463C963.932 173.275 964.982 173.499 965.836 173.499C968.132 173.499 969.63 171.987 969.63 169.537C969.63 167.115 968.118 165.631 965.906 165.631C965.052 165.631 963.946 165.883 963.218 166.625V165.785H962.112V175.809ZM965.738 172.449C964.828 172.449 963.778 172.071 963.218 171.147V167.955C963.806 167.129 964.856 166.681 965.78 166.681C967.348 166.681 968.468 167.759 968.468 169.537C968.468 171.357 967.362 172.449 965.738 172.449ZM971.368 173.359H972.516V162.803H971.368V173.359ZM978.049 173.499C978.903 173.499 979.953 173.275 980.667 172.463V173.359H981.773V165.785H980.667V166.625C979.939 165.883 978.833 165.631 977.979 165.631C975.767 165.631 974.255 167.115 974.255 169.537C974.255 171.987 975.753 173.499 978.049 173.499ZM978.147 172.449C976.523 172.449 975.417 171.357 975.417 169.537C975.417 167.759 976.537 166.681 978.105 166.681C979.029 166.681 980.079 167.129 980.667 167.955V171.147C980.107 172.071 979.057 172.449 978.147 172.449ZM983.918 173.359H985.024V167.801C985.584 167.241 986.41 166.681 987.488 166.681C988.552 166.681 989.616 167.073 989.616 169.019V173.359H990.722V168.921C990.722 166.345 989.406 165.645 987.698 165.645C986.69 165.645 985.766 166.023 985.024 166.653V165.785H983.918V173.359ZM1005.19 165.785L1003.27 171.441L1001.08 165.729H1000.41L998.255 171.413L996.351 165.785H995.147L997.905 173.457H998.535L1000.72 167.759L1002.95 173.457H1003.6L1006.35 165.785H1005.19ZM1008.16 164.749C1008.62 164.749 1009 164.371 1009 163.895C1009 163.419 1008.62 163.055 1008.16 163.055C1007.68 163.055 1007.29 163.419 1007.29 163.895C1007.29 164.371 1007.68 164.749 1008.16 164.749ZM1007.56 173.359H1008.7V165.785H1007.56V173.359ZM1013.4 173.513C1013.94 173.513 1014.55 173.443 1014.98 173.303V172.239C1014.49 172.421 1013.94 172.477 1013.59 172.477C1012.53 172.477 1012.31 171.959 1012.31 170.839V166.821H1014.99V165.785H1012.31V162.803H1011.2V165.785H1009.95V166.821H1011.2V170.951C1011.2 172.617 1011.68 173.513 1013.4 173.513ZM1016.36 173.359H1017.47V167.801C1018.03 167.241 1018.85 166.681 1019.93 166.681C1020.99 166.681 1022.06 167.073 1022.06 169.019V173.359H1023.16V168.921C1023.16 166.345 1021.85 165.645 1020.14 165.645C1019.13 165.645 1018.21 166.023 1017.47 166.653V162.803H1016.36V173.359ZM1034.44 168.193C1035.36 167.913 1035.91 167.171 1035.91 166.009C1035.91 164.413 1034.83 163.489 1032.73 163.489H1028.61V173.359H1033.2C1035.61 173.359 1036.65 172.379 1036.65 170.531C1036.65 169.285 1035.85 168.487 1034.44 168.193ZM1029.79 164.581H1032.74C1033.93 164.581 1034.69 165.057 1034.69 166.065C1034.69 167.227 1034.04 167.773 1032.55 167.773H1029.79V164.581ZM1033.2 172.267H1029.79V168.865H1032.84C1034.67 168.865 1035.43 169.495 1035.43 170.531C1035.43 171.665 1034.81 172.267 1033.2 172.267ZM1045.49 173.359H1046.78L1042.3 163.391H1041.6L1037.13 173.359H1038.42L1039.49 170.979H1044.41L1045.49 173.359ZM1041.95 165.239L1042.86 167.367L1043.91 169.887H1040L1041.04 167.367L1041.95 165.239ZM1055.32 163.489V171.077L1048.66 163.363H1048.05V173.359H1049.23V165.771L1055.89 173.471H1056.5V163.489H1055.32ZM1066.12 173.359H1067.41L1062.93 163.391H1062.23L1057.77 173.359H1059.05L1060.12 170.979H1065.05L1066.12 173.359ZM1062.58 165.239L1063.49 167.367L1064.54 169.887H1060.64L1061.67 167.367L1062.58 165.239ZM1074.57 173.513C1075.11 173.513 1075.71 173.443 1076.15 173.303V172.239C1075.66 172.421 1075.11 172.477 1074.76 172.477C1073.7 172.477 1073.47 171.959 1073.47 170.839V166.821H1076.16V165.785H1073.47V162.803H1072.37V165.785H1071.12V166.821H1072.37V170.951C1072.37 172.617 1072.84 173.513 1074.57 173.513ZM1084.47 169.607C1084.47 167.269 1083.15 165.631 1080.58 165.631C1078.32 165.631 1076.74 167.171 1076.74 169.551C1076.74 171.959 1078.32 173.499 1080.73 173.499C1082.35 173.499 1083.47 172.925 1084.17 171.987L1083.38 171.329C1082.79 172.043 1081.91 172.463 1080.79 172.463C1079.22 172.463 1078.07 171.497 1077.9 169.915H1084.47V169.607ZM1080.59 166.667C1082.27 166.667 1083.14 167.605 1083.28 168.949H1077.93C1078.15 167.521 1079.22 166.667 1080.59 166.667ZM1089.35 173.499C1090.21 173.499 1091.26 173.275 1091.97 172.463V173.359H1093.08V165.785H1091.97V166.625C1091.24 165.883 1090.14 165.631 1089.28 165.631C1087.07 165.631 1085.56 167.115 1085.56 169.537C1085.56 171.987 1087.06 173.499 1089.35 173.499ZM1089.45 172.449C1087.83 172.449 1086.72 171.357 1086.72 169.537C1086.72 167.759 1087.84 166.681 1089.41 166.681C1090.33 166.681 1091.38 167.129 1091.97 167.955V171.147C1091.41 172.071 1090.36 172.449 1089.45 172.449ZM1104.04 165.631C1102.81 165.631 1101.86 166.065 1101.16 166.695C1100.71 165.911 1099.95 165.631 1098.96 165.631C1098.05 165.631 1097.1 165.967 1096.33 166.653V165.785H1095.22V173.359H1096.33V167.773C1096.94 167.143 1097.82 166.667 1098.68 166.667C1099.7 166.667 1100.51 167.157 1100.51 168.977V173.359H1101.62V169.005C1101.62 168.487 1101.58 168.025 1101.49 167.647C1102.08 167.073 1102.84 166.667 1103.77 166.667C1104.78 166.667 1105.86 167.059 1105.86 169.187V173.359H1106.97V169.019C1106.97 166.331 1105.57 165.631 1104.04 165.631Z" fill="#373B53"/>
</svg>
