<svg width="343" height="371" viewBox="0 0 343 371" fill="none" xmlns="http://www.w3.org/2000/svg">
<path d="M173.5 370.429L174.354 0.429462" stroke="#C5BBF0" stroke-width="6"/>
<path d="M173 103.429L210.5 103.429" stroke="#3551BD" stroke-width="2"/>
<circle cx="174" cy="102.929" r="9.5" transform="rotate(90 174 102.929)" fill="#A29FBF" fill-opacity="0.7"/>
<circle cx="174" cy="102.929" r="5.88095" transform="rotate(90 174 102.929)" fill="#3551BD"/>
<path d="M173 239.429L210.5 239.429" stroke="#3551BD" stroke-width="2"/>
<circle cx="174" cy="238.929" r="9.5" transform="rotate(90 174 238.929)" fill="#A29FBF" fill-opacity="0.7"/>
<circle cx="174" cy="238.929" r="5.88095" transform="rotate(90 174 238.929)" fill="#3551BD"/>
<path d="M175 52.4294L137.5 52.4294" stroke="#3551BD" stroke-width="2"/>
<circle cx="174" cy="52.9294" r="9.5" transform="rotate(-90 174 52.9294)" fill="#A29FBF" fill-opacity="0.7"/>
<circle cx="174" cy="52.9295" r="5.88095" transform="rotate(-90 174 52.9295)" fill="#3551BD"/>
<path d="M175 163.429L137.5 163.429" stroke="#3551BD" stroke-width="2"/>
<circle cx="174" cy="163.929" r="9.5" transform="rotate(-90 174 163.929)" fill="#A29FBF" fill-opacity="0.7"/>
<circle cx="174" cy="163.929" r="5.88095" transform="rotate(-90 174 163.929)" fill="#3551BD"/>
<rect x="0.5" y="28.4293" width="151" height="50" rx="4" fill="white"/>
<rect x="2.5" y="30.4293" width="4" height="45" rx="1" fill="#C5BBF0"/>
<path d="M22.1575 46.9293H24.1315V36.9893H22.8575L19.5395 38.2213L20.1135 39.7893L22.1575 39.0753V46.9293ZM27.084 47.1253C27.728 47.1253 28.26 46.5933 28.26 45.9353C28.26 45.2773 27.728 44.7453 27.084 44.7453C26.426 44.7453 25.894 45.2773 25.894 45.9353C25.894 46.5933 26.426 47.1253 27.084 47.1253ZM41.788 46.9293H43.944L39.394 36.9613H38.106L33.57 46.9293H35.726L36.58 45.0393H40.92L41.788 46.9293ZM38.75 39.5793L39.52 41.6093L40.262 43.3733H37.252L37.994 41.6093L38.75 39.5793ZM44.9377 49.3933H46.8417V46.1873C47.4437 46.9153 48.3677 47.0973 49.1097 47.0973C51.3497 47.0973 52.7917 45.5433 52.7917 43.0933C52.7917 40.6433 51.3357 39.1033 49.1937 39.1033C48.4097 39.1033 47.4717 39.3273 46.8417 39.9433V39.2853H44.9377V49.3933ZM48.6897 45.3613C47.9617 45.3613 47.2197 45.0673 46.8137 44.3533V41.8193C47.2057 41.1893 47.9897 40.8393 48.7317 40.8393C49.9497 40.8393 50.8037 41.6513 50.8037 43.0933C50.8037 44.5073 49.9777 45.3613 48.6897 45.3613ZM54.2345 49.3933H56.1385V46.1873C56.7405 46.9153 57.6645 47.0973 58.4065 47.0973C60.6465 47.0973 62.0885 45.5433 62.0885 43.0933C62.0885 40.6433 60.6325 39.1033 58.4905 39.1033C57.7065 39.1033 56.7685 39.3273 56.1385 39.9433V39.2853H54.2345V49.3933ZM57.9865 45.3613C57.2585 45.3613 56.5165 45.0673 56.1105 44.3533V41.8193C56.5025 41.1893 57.2865 40.8393 58.0285 40.8393C59.2465 40.8393 60.1005 41.6513 60.1005 43.0933C60.1005 44.5073 59.2745 45.3613 57.9865 45.3613ZM63.5314 46.9293H65.4634V36.3173H63.5314V46.9293ZM68.2989 38.3473C68.9429 38.3473 69.4749 37.8153 69.4749 37.1573C69.4749 36.4993 68.9429 35.9673 68.2989 35.9673C67.6409 35.9673 67.1089 36.4993 67.1089 37.1573C67.1089 37.8153 67.6409 38.3473 68.2989 38.3473ZM67.3049 46.9293H69.2649V39.2853H67.3049V46.9293ZM74.8153 47.0833C76.3133 47.0833 77.4893 46.4813 78.1753 45.5573L76.8593 44.3533C76.4813 44.8713 75.7813 45.3193 74.8853 45.3193C73.5413 45.3193 72.6733 44.4513 72.6733 43.0793C72.6733 41.7633 73.5553 40.8953 74.8993 40.8953C75.6973 40.8953 76.4113 41.3013 76.7893 41.8613L78.1333 40.6573C77.4613 39.7333 76.2713 39.1313 74.8013 39.1313C72.2533 39.1313 70.6993 40.7693 70.6993 43.0933C70.6993 45.5153 72.2113 47.0833 74.8153 47.0833ZM82.6805 47.0973C83.4225 47.0973 84.3745 46.9153 84.9765 46.1873V46.9293H86.8525V39.2853H84.9485V39.9433C84.3185 39.3273 83.3805 39.1033 82.5965 39.1033C80.4545 39.1033 78.9845 40.6433 78.9845 43.0933C78.9845 45.5433 80.4405 47.0973 82.6805 47.0973ZM83.1005 45.3613C81.8125 45.3613 80.9725 44.5073 80.9725 43.0933C80.9725 41.6513 81.8405 40.8393 83.0585 40.8393C83.8005 40.8393 84.5845 41.1893 84.9765 41.8193V44.3533C84.5845 45.0673 83.8285 45.3613 83.1005 45.3613ZM91.3347 47.1113C92.1327 47.1113 92.6647 47.0273 93.0847 46.9013V45.2073C92.6367 45.4033 92.1467 45.4593 91.8527 45.4593C91.0547 45.4593 90.8447 45.0813 90.8447 44.2413V41.0073H93.0987V39.2853H90.8447V36.3173H88.9407V39.2853H87.8487V41.0073H88.9407V44.5633C88.9407 46.3133 89.6547 47.1113 91.3347 47.1113ZM95.4375 38.3473C96.0815 38.3473 96.6135 37.8153 96.6135 37.1573C96.6135 36.4993 96.0815 35.9673 95.4375 35.9673C94.7795 35.9673 94.2475 36.4993 94.2475 37.1573C94.2475 37.8153 94.7795 38.3473 95.4375 38.3473ZM94.4435 46.9293H96.4035V39.2853H94.4435V46.9293ZM102.052 47.0973C104.558 47.0973 106.238 45.5433 106.238 43.0933C106.238 40.6853 104.558 39.1173 102.052 39.1173C99.532 39.1173 97.838 40.6853 97.838 43.0933C97.838 45.5433 99.532 47.0973 102.052 47.0973ZM102.052 45.3333C100.736 45.3333 99.84 44.4513 99.84 43.0933C99.84 41.7633 100.736 40.8813 102.052 40.8813C103.354 40.8813 104.25 41.7633 104.25 43.0933C104.25 44.4513 103.354 45.3333 102.052 45.3333ZM107.678 46.9293H109.61V41.6513C110.016 41.2313 110.618 40.8533 111.374 40.8533C112.354 40.8533 112.984 41.3013 112.984 42.8413V46.9293H114.902V42.3653C114.902 39.9713 113.894 39.1173 111.99 39.1173C111.038 39.1173 110.156 39.4813 109.54 39.9853V39.2853H107.678V46.9293Z" fill="black"/>
<path d="M13.472 67.9293H14.48V64.6893H18.68V63.7533H14.48V60.4053H19.34V59.4693H13.472V67.9293ZM21.2411 60.5493C21.6371 60.5493 21.9611 60.2253 21.9611 59.8173C21.9611 59.4093 21.6371 59.0973 21.2411 59.0973C20.8331 59.0973 20.4971 59.4093 20.4971 59.8173C20.4971 60.2253 20.8331 60.5493 21.2411 60.5493ZM20.7251 67.9293H21.7091V61.4373H20.7251V67.9293ZM23.5964 67.9293H24.5804V58.8813H23.5964V67.9293ZM26.4793 67.9293H27.4633V58.8813H26.4793V67.9293ZM35.4238 68.0493C37.5117 68.0493 38.9518 66.6933 38.9518 64.6653C38.9518 62.6613 37.5117 61.3053 35.4238 61.3053C33.3358 61.3053 31.8838 62.6613 31.8838 64.6653C31.8838 66.6933 33.3358 68.0493 35.4238 68.0493ZM35.4238 67.1493C33.9478 67.1493 32.8918 66.1533 32.8918 64.6653C32.8918 63.2013 33.9478 62.2053 35.4238 62.2053C36.8878 62.2053 37.9438 63.2013 37.9438 64.6653C37.9438 66.1533 36.8878 67.1493 35.4238 67.1493ZM42.8243 68.0493C43.7243 68.0493 44.4563 67.7253 45.0683 67.1133V67.9293H46.0163V61.4373H45.0683V66.1293C44.5883 66.6813 43.9643 67.1613 43.0163 67.1613C42.1283 67.1613 41.2163 66.8253 41.2163 65.1573V61.4373H40.2683V65.2413C40.2683 67.4493 41.4083 68.0493 42.8243 68.0493ZM49.9199 68.0613C50.3879 68.0613 50.9039 68.0013 51.2759 67.8813V66.9693C50.8559 67.1253 50.3879 67.1733 50.0879 67.1733C49.1759 67.1733 48.9839 66.7293 48.9839 65.7693V62.3253H51.2879V61.4373H48.9839V58.8813H48.0359V61.4373H46.9679V62.3253H48.0359V65.8653C48.0359 67.2933 48.4439 68.0613 49.9199 68.0613ZM57.5606 68.0613C58.0286 68.0613 58.5446 68.0013 58.9166 67.8813V66.9693C58.4966 67.1253 58.0286 67.1733 57.7286 67.1733C56.8166 67.1733 56.6246 66.7293 56.6246 65.7693V62.3253H58.9286V61.4373H56.6246V58.8813H55.6766V61.4373H54.6086V62.3253H55.6766V65.8653C55.6766 67.2933 56.0846 68.0613 57.5606 68.0613ZM60.0995 67.9293H61.0475V63.1653C61.5275 62.6853 62.2355 62.2053 63.1595 62.2053C64.0715 62.2053 64.9835 62.5413 64.9835 64.2093V67.9293H65.9315V64.1253C65.9315 61.9173 64.8035 61.3173 63.3395 61.3173C62.4755 61.3173 61.6835 61.6413 61.0475 62.1813V58.8813H60.0995V67.9293ZM73.8632 64.7133C73.8632 62.7093 72.7352 61.3053 70.5272 61.3053C68.5952 61.3053 67.2392 62.6253 67.2392 64.6653C67.2392 66.7293 68.5952 68.0493 70.6592 68.0493C72.0512 68.0493 73.0112 67.5573 73.6112 66.7533L72.9272 66.1893C72.4232 66.8013 71.6672 67.1613 70.7072 67.1613C69.3632 67.1613 68.3792 66.3333 68.2352 64.9773H73.8632V64.7133ZM70.5392 62.1933C71.9792 62.1933 72.7232 62.9973 72.8432 64.1493H68.2592C68.4512 62.9253 69.3632 62.1933 70.5392 62.1933ZM80.9795 68.0493C81.7115 68.0493 82.6115 67.8573 83.2235 67.1613V67.9293H84.1715V61.4373H83.2235V62.1573C82.5995 61.5213 81.6515 61.3053 80.9195 61.3053C79.0235 61.3053 77.7275 62.5773 77.7275 64.6533C77.7275 66.7533 79.0115 68.0493 80.9795 68.0493ZM81.0635 67.1493C79.6715 67.1493 78.7235 66.2133 78.7235 64.6533C78.7235 63.1293 79.6835 62.2053 81.0275 62.2053C81.8195 62.2053 82.7195 62.5893 83.2235 63.2973V66.0333C82.7435 66.8253 81.8435 67.1493 81.0635 67.1493ZM86.0102 70.0293H86.9582V67.1613C87.5702 67.8573 88.4702 68.0493 89.2022 68.0493C91.1702 68.0493 92.4542 66.7533 92.4542 64.6533C92.4542 62.5773 91.1582 61.3053 89.2622 61.3053C88.5302 61.3053 87.5822 61.5213 86.9582 62.1573V61.4373H86.0102V70.0293ZM89.1182 67.1493C88.3382 67.1493 87.4382 66.8253 86.9582 66.0333V63.2973C87.4622 62.5893 88.3622 62.2053 89.1542 62.2053C90.4982 62.2053 91.4582 63.1293 91.4582 64.6533C91.4582 66.2133 90.5102 67.1493 89.1182 67.1493ZM93.9321 70.0293H94.8801V67.1613C95.4921 67.8573 96.3921 68.0493 97.1241 68.0493C99.0921 68.0493 100.376 66.7533 100.376 64.6533C100.376 62.5773 99.0801 61.3053 97.1841 61.3053C96.4521 61.3053 95.5041 61.5213 94.8801 62.1573V61.4373H93.9321V70.0293ZM97.0401 67.1493C96.2601 67.1493 95.3601 66.8253 94.8801 66.0333V63.2973C95.3841 62.5893 96.2841 62.2053 97.0761 62.2053C98.4201 62.2053 99.3801 63.1293 99.3801 64.6533C99.3801 66.2133 98.4321 67.1493 97.0401 67.1493ZM101.866 67.9293H102.85V58.8813H101.866V67.9293ZM105.253 60.5493C105.649 60.5493 105.973 60.2253 105.973 59.8173C105.973 59.4093 105.649 59.0973 105.253 59.0973C104.845 59.0973 104.509 59.4093 104.509 59.8173C104.509 60.2253 104.845 60.5493 105.253 60.5493ZM104.737 67.9293H105.721V61.4373H104.737V67.9293ZM110.632 68.0373C111.808 68.0373 112.828 67.5813 113.416 66.8373L112.732 66.1893C112.312 66.7293 111.556 67.1373 110.632 67.1373C109.156 67.1373 108.208 66.1773 108.208 64.6653C108.208 63.1773 109.168 62.2173 110.692 62.2173C111.508 62.2173 112.276 62.6133 112.696 63.1533L113.368 62.4933C112.792 61.7733 111.784 61.3173 110.692 61.3173C108.58 61.3173 107.2 62.6373 107.2 64.6653C107.2 66.7173 108.484 68.0373 110.632 68.0373ZM117.683 68.0493C118.415 68.0493 119.315 67.8573 119.927 67.1613V67.9293H120.875V61.4373H119.927V62.1573C119.303 61.5213 118.355 61.3053 117.623 61.3053C115.727 61.3053 114.431 62.5773 114.431 64.6533C114.431 66.7533 115.715 68.0493 117.683 68.0493ZM117.767 67.1493C116.375 67.1493 115.427 66.2133 115.427 64.6533C115.427 63.1293 116.387 62.2053 117.731 62.2053C118.523 62.2053 119.423 62.5893 119.927 63.2973V66.0333C119.447 66.8253 118.547 67.1493 117.767 67.1493ZM124.861 68.0613C125.329 68.0613 125.845 68.0013 126.217 67.8813V66.9693C125.797 67.1253 125.329 67.1733 125.029 67.1733C124.117 67.1733 123.925 66.7293 123.925 65.7693V62.3253H126.229V61.4373H123.925V58.8813H122.977V61.4373H121.909V62.3253H122.977V65.8653C122.977 67.2933 123.385 68.0613 124.861 68.0613ZM127.94 60.5493C128.336 60.5493 128.66 60.2253 128.66 59.8173C128.66 59.4093 128.336 59.0973 127.94 59.0973C127.532 59.0973 127.196 59.4093 127.196 59.8173C127.196 60.2253 127.532 60.5493 127.94 60.5493ZM127.424 67.9293H128.408V61.4373H127.424V67.9293ZM133.428 68.0493C135.516 68.0493 136.956 66.6933 136.956 64.6653C136.956 62.6613 135.516 61.3053 133.428 61.3053C131.34 61.3053 129.888 62.6613 129.888 64.6653C129.888 66.6933 131.34 68.0493 133.428 68.0493ZM133.428 67.1493C131.952 67.1493 130.896 66.1533 130.896 64.6653C130.896 63.2013 131.952 62.2053 133.428 62.2053C134.892 62.2053 135.948 63.2013 135.948 64.6653C135.948 66.1533 134.892 67.1493 133.428 67.1493ZM138.428 67.9293H139.376V63.1653C139.856 62.6853 140.564 62.2053 141.488 62.2053C142.4 62.2053 143.312 62.5413 143.312 64.2093V67.9293H144.26V64.1253C144.26 61.9173 143.132 61.3173 141.668 61.3173C140.804 61.3173 140.012 61.6413 139.376 62.1813V61.4373H138.428V67.9293Z" fill="#373B53"/>
<rect x="19.5" y="130.429" width="126" height="67" rx="4" fill="white"/>
<rect x="21.5" y="132.429" width="4" height="60" rx="1" fill="#C5BBF0"/>
<path d="M36.456 140.213L39.382 137.511V136.503H32.382V138.239H36.582L33.684 141.011L34.384 141.921C34.832 141.725 35.294 141.627 35.742 141.627C36.974 141.627 37.772 142.187 37.772 143.251C37.772 144.273 37.044 144.903 35.756 144.903C34.524 144.903 33.74 144.343 33.74 143.447V143.363H31.892V143.531C31.892 145.435 33.39 146.625 35.826 146.625C38.178 146.625 39.746 145.505 39.746 143.335C39.746 141.697 38.626 140.227 36.456 140.213ZM41.987 146.625C42.631 146.625 43.163 146.093 43.163 145.435C43.163 144.777 42.631 144.245 41.987 144.245C41.329 144.245 40.797 144.777 40.797 145.435C40.797 146.093 41.329 146.625 41.987 146.625ZM47.7121 146.429H49.7421V136.503H47.7121V146.429ZM51.715 146.429H53.647V141.151C54.053 140.731 54.655 140.353 55.411 140.353C56.391 140.353 57.021 140.801 57.021 142.341V146.429H58.939V141.865C58.939 139.471 57.931 138.617 56.027 138.617C55.075 138.617 54.193 138.981 53.577 139.485V138.785H51.715V146.429ZM63.3308 146.611C64.1288 146.611 64.6608 146.527 65.0808 146.401V144.707C64.6328 144.903 64.1428 144.959 63.8488 144.959C63.0508 144.959 62.8408 144.581 62.8408 143.741V140.507H65.0948V138.785H62.8408V135.817H60.9368V138.785H59.8448V140.507H60.9368V144.063C60.9368 145.813 61.6508 146.611 63.3308 146.611ZM73.4374 142.607C73.4374 140.255 72.1354 138.575 69.5034 138.575C67.1654 138.575 65.5274 140.157 65.5274 142.579C65.5274 145.015 67.0394 146.583 69.6014 146.583C71.3514 146.583 72.4714 145.981 73.1714 145.015L71.9534 143.979C71.4354 144.623 70.6374 144.959 69.7414 144.959C68.4814 144.959 67.6974 144.315 67.4874 143.181H73.4234C73.4374 143.027 73.4374 142.733 73.4374 142.607ZM69.5034 140.185C70.8334 140.185 71.4354 140.941 71.5474 141.781H67.5014C67.7394 140.675 68.5234 140.185 69.5034 140.185ZM74.6974 146.429H76.6294V142.817C76.6294 141.347 77.4694 140.633 78.5474 140.633C78.8414 140.633 79.1494 140.689 79.4714 140.773V138.687C79.3314 138.631 79.1354 138.617 78.9394 138.617C77.9034 138.617 77.0914 139.079 76.5594 139.779V138.785H74.6974V146.429ZM86.0471 138.785L84.7031 141.963L84.0311 143.699L83.3591 141.935L82.0431 138.785H79.8451L83.4571 146.471H84.5771L88.1751 138.785H86.0471ZM90.1426 137.847C90.7866 137.847 91.3186 137.315 91.3186 136.657C91.3186 135.999 90.7866 135.467 90.1426 135.467C89.4846 135.467 88.9526 135.999 88.9526 136.657C88.9526 137.315 89.4846 137.847 90.1426 137.847ZM89.1486 146.429H91.1086V138.785H89.1486V146.429ZM100.453 142.607C100.453 140.255 99.1511 138.575 96.5191 138.575C94.1811 138.575 92.5431 140.157 92.5431 142.579C92.5431 145.015 94.0551 146.583 96.6171 146.583C98.3671 146.583 99.4871 145.981 100.187 145.015L98.9691 143.979C98.4511 144.623 97.6531 144.959 96.7571 144.959C95.4971 144.959 94.7131 144.315 94.5031 143.181H100.439C100.453 143.027 100.453 142.733 100.453 142.607ZM96.5191 140.185C97.8491 140.185 98.4511 140.941 98.5631 141.781H94.5171C94.7551 140.675 95.5391 140.185 96.5191 140.185ZM109.939 138.785L108.539 143.307L106.705 138.757H105.725L103.919 143.279L102.547 138.785H100.531L103.205 146.471H104.283L106.201 141.851L108.161 146.471H109.239L111.913 138.785H109.939Z" fill="black"/>
<path d="M32.472 167.429H33.48V164.021H38.268V167.429H39.276V158.969H38.268V163.085H33.48V158.969H32.472V167.429ZM44.0342 167.549C44.7662 167.549 45.6662 167.357 46.2782 166.661V167.429H47.2262V160.937H46.2782V161.657C45.6542 161.021 44.7062 160.805 43.9742 160.805C42.0782 160.805 40.7822 162.077 40.7822 164.153C40.7822 166.253 42.0662 167.549 44.0342 167.549ZM44.1182 166.649C42.7262 166.649 41.7782 165.713 41.7782 164.153C41.7782 162.629 42.7382 161.705 44.0822 161.705C44.8742 161.705 45.7742 162.089 46.2782 162.797V165.533C45.7982 166.325 44.8982 166.649 44.1182 166.649ZM53.8889 160.937L51.5729 166.037L50.7689 164.177L49.3049 160.937H48.2249L51.2969 167.513H51.8489L54.9329 160.937H53.8889ZM61.9609 164.213C61.9609 162.209 60.8329 160.805 58.6249 160.805C56.6929 160.805 55.3369 162.125 55.3369 164.165C55.3369 166.229 56.6929 167.549 58.7569 167.549C60.1489 167.549 61.1089 167.057 61.7089 166.253L61.0249 165.689C60.5209 166.301 59.7649 166.661 58.8049 166.661C57.4609 166.661 56.4769 165.833 56.3329 164.477H61.9609V164.213ZM58.6369 161.693C60.0769 161.693 60.8209 162.497 60.9409 163.649H56.3569C56.5489 162.425 57.4609 161.693 58.6369 161.693ZM66.7372 160.049C67.1332 160.049 67.4572 159.725 67.4572 159.317C67.4572 158.909 67.1332 158.597 66.7372 158.597C66.3292 158.597 65.9932 158.909 65.9932 159.317C65.9932 159.725 66.3292 160.049 66.7372 160.049ZM66.2212 167.429H67.2052V160.937H66.2212V167.429ZM69.0805 167.429H70.0285V162.665C70.5085 162.185 71.2165 161.705 72.1405 161.705C73.0525 161.705 73.9645 162.041 73.9645 163.709V167.429H74.9125V163.625C74.9125 161.417 73.7845 160.817 72.3205 160.817C71.4565 160.817 70.6645 161.141 70.0285 161.681V160.937H69.0805V167.429ZM78.7637 167.561C79.2317 167.561 79.7477 167.501 80.1197 167.381V166.469C79.6997 166.625 79.2317 166.673 78.9317 166.673C78.0197 166.673 77.8277 166.229 77.8277 165.269V161.825H80.1317V160.937H77.8277V158.381H76.8797V160.937H75.8117V161.825H76.8797V165.365C76.8797 166.793 77.2877 167.561 78.7637 167.561ZM87.2499 164.213C87.2499 162.209 86.1219 160.805 83.9139 160.805C81.9819 160.805 80.6259 162.125 80.6259 164.165C80.6259 166.229 81.9819 167.549 84.0459 167.549C85.4379 167.549 86.3979 167.057 86.9979 166.253L86.3139 165.689C85.8099 166.301 85.0539 166.661 84.0939 166.661C82.7499 166.661 81.7659 165.833 81.6219 164.477H87.2499V164.213ZM83.9259 161.693C85.3659 161.693 86.1099 162.497 86.2299 163.649H81.6459C81.8379 162.425 82.7499 161.693 83.9259 161.693ZM88.5805 167.429H89.5285V164.201C89.5285 162.677 90.3805 161.777 91.4365 161.777C91.7365 161.777 92.0485 161.837 92.3845 161.969V160.925C92.1925 160.841 91.9045 160.805 91.6285 160.805C90.6325 160.805 89.9125 161.285 89.5285 161.921V160.937H88.5805V167.429ZM98.4436 160.937L96.1276 166.037L95.3236 164.177L93.8596 160.937H92.7796L95.8516 167.513H96.4036L99.4876 160.937H98.4436ZM101.038 160.049C101.434 160.049 101.758 159.725 101.758 159.317C101.758 158.909 101.434 158.597 101.038 158.597C100.63 158.597 100.294 158.909 100.294 159.317C100.294 159.725 100.63 160.049 101.038 160.049ZM100.522 167.429H101.506V160.937H100.522V167.429ZM109.609 164.213C109.609 162.209 108.481 160.805 106.273 160.805C104.341 160.805 102.985 162.125 102.985 164.165C102.985 166.229 104.341 167.549 106.405 167.549C107.797 167.549 108.757 167.057 109.357 166.253L108.673 165.689C108.169 166.301 107.413 166.661 106.453 166.661C105.109 166.661 104.125 165.833 103.981 164.477H109.609V164.213ZM106.285 161.693C107.725 161.693 108.469 162.497 108.589 163.649H104.005C104.197 162.425 105.109 161.693 106.285 161.693ZM118.54 160.937L116.896 165.785L115.024 160.889H114.448L112.6 165.761L110.968 160.937H109.936L112.3 167.513H112.84L114.712 162.629L116.62 167.513H117.184L119.536 160.937H118.54ZM43.1297 180.937L41.4857 185.785L39.6137 180.889H39.0377L37.1897 185.761L35.5577 180.937H34.5257L36.8897 187.513H37.4297L39.3017 182.629L41.2097 187.513H41.7737L44.1257 180.937H43.1297ZM45.6786 180.049C46.0746 180.049 46.3986 179.725 46.3986 179.317C46.3986 178.909 46.0746 178.597 45.6786 178.597C45.2706 178.597 44.9346 178.909 44.9346 179.317C44.9346 179.725 45.2706 180.049 45.6786 180.049ZM45.1626 187.429H46.1466V180.937H45.1626V187.429ZM50.1699 187.561C50.6379 187.561 51.1539 187.501 51.5259 187.381V186.469C51.1059 186.625 50.6379 186.673 50.3379 186.673C49.4259 186.673 49.2339 186.229 49.2339 185.269V181.825H51.5379V180.937H49.2339V178.381H48.2859V180.937H47.2179V181.825H48.2859V185.365C48.2859 186.793 48.6939 187.561 50.1699 187.561ZM52.7089 187.429H53.6569V182.665C54.1369 182.185 54.8449 181.705 55.7689 181.705C56.6809 181.705 57.5929 182.041 57.5929 183.709V187.429H58.5409V183.625C58.5409 181.417 57.4129 180.817 55.9489 180.817C55.0849 180.817 54.2929 181.141 53.6569 181.681V178.381H52.7089V187.429ZM68.2023 183.001C68.9943 182.761 69.4623 182.125 69.4623 181.129C69.4623 179.761 68.5383 178.969 66.7383 178.969H63.2103V187.429H67.1463C69.2103 187.429 70.0983 186.589 70.0983 185.005C70.0983 183.937 69.4143 183.253 68.2023 183.001ZM64.2183 179.905H66.7503C67.7703 179.905 68.4183 180.313 68.4183 181.177C68.4183 182.173 67.8663 182.641 66.5823 182.641H64.2183V179.905ZM67.1463 186.493H64.2183V183.577H66.8343C68.4063 183.577 69.0543 184.117 69.0543 185.005C69.0543 185.977 68.5263 186.493 67.1463 186.493ZM77.6785 187.429H78.7825L74.9425 178.885H74.3425L70.5145 187.429H71.6185L72.5305 185.389H76.7545L77.6785 187.429ZM74.6425 180.469L75.4225 182.293L76.3225 184.453H72.9745L73.8625 182.293L74.6425 180.469ZM86.1023 178.969V185.473L80.3903 178.861H79.8743V187.429H80.8823V180.925L86.5943 187.525H87.1103V178.969H86.1023ZM95.3621 187.429H96.4661L92.6261 178.885H92.0261L88.1981 187.429H89.3021L90.2141 185.389H94.4381L95.3621 187.429ZM92.3261 180.469L93.1061 182.293L94.0061 184.453H90.6581L91.5461 182.293L92.3261 180.469ZM102.6 187.561C103.068 187.561 103.584 187.501 103.956 187.381V186.469C103.536 186.625 103.068 186.673 102.768 186.673C101.856 186.673 101.664 186.229 101.664 185.269V181.825H103.968V180.937H101.664V178.381H100.716V180.937H99.6476V181.825H100.716V185.365C100.716 186.793 101.124 187.561 102.6 187.561ZM111.086 184.213C111.086 182.209 109.958 180.805 107.75 180.805C105.818 180.805 104.462 182.125 104.462 184.165C104.462 186.229 105.818 187.549 107.882 187.549C109.274 187.549 110.234 187.057 110.834 186.253L110.15 185.689C109.646 186.301 108.89 186.661 107.93 186.661C106.586 186.661 105.602 185.833 105.458 184.477H111.086V184.213ZM107.762 181.693C109.202 181.693 109.946 182.497 110.066 183.649H105.482C105.674 182.425 106.586 181.693 107.762 181.693ZM115.272 187.549C116.004 187.549 116.904 187.357 117.516 186.661V187.429H118.464V180.937H117.516V181.657C116.892 181.021 115.944 180.805 115.212 180.805C113.316 180.805 112.02 182.077 112.02 184.153C112.02 186.253 113.304 187.549 115.272 187.549ZM115.356 186.649C113.964 186.649 113.016 185.713 113.016 184.153C113.016 182.629 113.976 181.705 115.32 181.705C116.112 181.705 117.012 182.089 117.516 182.797V185.533C117.036 186.325 116.136 186.649 115.356 186.649ZM127.863 180.805C126.807 180.805 125.991 181.177 125.391 181.717C125.007 181.045 124.359 180.805 123.507 180.805C122.727 180.805 121.911 181.093 121.251 181.681V180.937H120.303V187.429H121.251V182.641C121.779 182.101 122.535 181.693 123.267 181.693C124.143 181.693 124.839 182.113 124.839 183.673V187.429H125.787V183.697C125.787 183.253 125.751 182.857 125.679 182.533C126.183 182.041 126.831 181.693 127.635 181.693C128.499 181.693 129.423 182.029 129.423 183.853V187.429H130.371V183.709C130.371 181.405 129.171 180.805 127.863 180.805Z" fill="#373B53"/>
<path d="M175 321.429L137.5 321.429" stroke="#3551BD" stroke-width="2"/>
<circle cx="174" cy="321.929" r="9.5" transform="rotate(-90 174 321.929)" fill="#A29FBF" fill-opacity="0.7"/>
<circle cx="174" cy="321.929" r="5.88095" transform="rotate(-90 174 321.929)" fill="#3551BD"/>
<rect x="19.5" y="280.429" width="126" height="86" rx="4" fill="white"/>
<rect x="21.5" y="282.429" width="4" height="80" rx="1" fill="#C5BBF0"/>
<path d="M36.246 289.751C35.49 289.751 34.734 289.933 34.23 290.213L34.356 288.239H39.298V286.503H32.69L32.382 291.991H34.062C34.398 291.627 35.154 291.319 35.868 291.319C37.31 291.319 37.982 291.991 37.982 293.139C37.982 294.245 37.31 294.889 35.952 294.889C34.734 294.889 33.866 294.329 33.866 293.419V293.363H32.004V293.517C32.004 295.435 33.586 296.625 36.008 296.625C38.43 296.625 39.942 295.477 39.942 293.209C39.942 291.109 38.514 289.751 36.246 289.751ZM42.1374 296.625C42.7814 296.625 43.3134 296.093 43.3134 295.435C43.3134 294.777 42.7814 294.245 42.1374 294.245C41.4794 294.245 40.9474 294.777 40.9474 295.435C40.9474 296.093 41.4794 296.625 42.1374 296.625ZM47.7645 296.429H51.6705C54.8625 296.429 56.5425 294.469 56.5425 291.347C56.5425 288.113 54.6805 286.503 51.6285 286.503H47.7645V296.429ZM49.6965 294.609V288.337H51.6425C53.4205 288.337 54.4705 289.401 54.4705 291.347C54.4705 293.559 53.3225 294.609 51.6985 294.609H49.6965ZM65.5351 292.607C65.5351 290.255 64.2331 288.575 61.6011 288.575C59.2631 288.575 57.6251 290.157 57.6251 292.579C57.6251 295.015 59.1371 296.583 61.6991 296.583C63.4491 296.583 64.5691 295.981 65.2691 295.015L64.0511 293.979C63.5331 294.623 62.7351 294.959 61.8391 294.959C60.5791 294.959 59.7951 294.315 59.5851 293.181H65.5211C65.5351 293.027 65.5351 292.733 65.5351 292.607ZM61.6011 290.185C62.9311 290.185 63.5331 290.941 63.6451 291.781H59.5991C59.8371 290.675 60.6211 290.185 61.6011 290.185ZM76.0771 288.603C74.9431 288.603 74.0051 288.995 73.3051 289.597C72.8711 288.897 72.1711 288.603 71.1631 288.603C70.2951 288.603 69.3991 288.883 68.6571 289.485V288.785H66.7951V296.429H68.7271V291.137C69.1891 290.647 69.8471 290.353 70.4491 290.353C71.3591 290.353 71.8911 290.843 71.8911 292.173V296.429H73.7811V291.907C73.7811 291.613 73.7671 291.333 73.7391 291.081C74.1731 290.619 74.7191 290.353 75.4331 290.353C76.3431 290.353 76.9731 290.787 76.9731 292.285V296.429H78.8911V291.907C78.8911 289.471 77.8551 288.603 76.0771 288.603ZM84.3977 296.597C86.9037 296.597 88.5837 295.043 88.5837 292.593C88.5837 290.185 86.9037 288.617 84.3977 288.617C81.8777 288.617 80.1837 290.185 80.1837 292.593C80.1837 295.043 81.8777 296.597 84.3977 296.597ZM84.3977 294.833C83.0817 294.833 82.1857 293.951 82.1857 292.593C82.1857 291.263 83.0817 290.381 84.3977 290.381C85.6997 290.381 86.5957 291.263 86.5957 292.593C86.5957 293.951 85.6997 294.833 84.3977 294.833ZM92.9774 296.429H96.8834C100.075 296.429 101.755 294.469 101.755 291.347C101.755 288.113 99.8934 286.503 96.8414 286.503H92.9774V296.429ZM94.9094 294.609V288.337H96.8554C98.6334 288.337 99.6834 289.401 99.6834 291.347C99.6834 293.559 98.5354 294.609 96.9114 294.609H94.9094ZM106.534 296.597C107.276 296.597 108.228 296.415 108.83 295.687V296.429H110.706V288.785H108.802V289.443C108.172 288.827 107.234 288.603 106.45 288.603C104.308 288.603 102.838 290.143 102.838 292.593C102.838 295.043 104.294 296.597 106.534 296.597ZM106.954 294.861C105.666 294.861 104.826 294.007 104.826 292.593C104.826 291.151 105.694 290.339 106.912 290.339C107.654 290.339 108.438 290.689 108.83 291.319V293.853C108.438 294.567 107.682 294.861 106.954 294.861ZM117.82 288.785L115.762 294.119L113.592 288.785H111.436L114.866 296.443C114.474 297.199 113.914 297.479 113.144 297.479C112.696 297.479 112.388 297.395 112.038 297.283V298.949C112.374 299.061 112.892 299.117 113.284 299.117C114.488 299.117 115.79 298.879 116.742 296.513L119.878 288.785H117.82Z" fill="black"/>
<path d="M34.788 317.429H35.82V309.905H38.724V308.969H31.884V309.905H34.788V317.429ZM41.9483 317.549C42.6803 317.549 43.5803 317.357 44.1923 316.661V317.429H45.1403V310.937H44.1923V311.657C43.5683 311.021 42.6203 310.805 41.8883 310.805C39.9923 310.805 38.6963 312.077 38.6963 314.153C38.6963 316.253 39.9803 317.549 41.9483 317.549ZM42.0323 316.649C40.6403 316.649 39.6923 315.713 39.6923 314.153C39.6923 312.629 40.6523 311.705 41.9963 311.705C42.7883 311.705 43.6883 312.089 44.1923 312.797V315.533C43.7123 316.325 42.8123 316.649 42.0323 316.649ZM51.923 317.429H53.099L50.555 313.409L52.967 310.937H51.659L47.915 314.801V308.381H46.967V317.429H47.915V316.061L49.847 314.129L51.923 317.429ZM60.332 314.213C60.332 312.209 59.204 310.805 56.996 310.805C55.064 310.805 53.708 312.125 53.708 314.165C53.708 316.229 55.064 317.549 57.128 317.549C58.52 317.549 59.48 317.057 60.08 316.253L59.396 315.689C58.892 316.301 58.136 316.661 57.176 316.661C55.832 316.661 54.848 315.833 54.704 314.477H60.332V314.213ZM57.008 311.693C58.448 311.693 59.192 312.497 59.312 313.649H54.728C54.92 312.425 55.832 311.693 57.008 311.693ZM64.5923 319.529H65.5403V316.661C66.1523 317.357 67.0523 317.549 67.7843 317.549C69.7523 317.549 71.0363 316.253 71.0363 314.153C71.0363 312.077 69.7403 310.805 67.8443 310.805C67.1123 310.805 66.1643 311.021 65.5403 311.657V310.937H64.5923V319.529ZM67.7003 316.649C66.9203 316.649 66.0203 316.325 65.5403 315.533V312.797C66.0443 312.089 66.9443 311.705 67.7363 311.705C69.0803 311.705 70.0403 312.629 70.0403 314.153C70.0403 315.713 69.0923 316.649 67.7003 316.649ZM75.3701 317.549C76.1021 317.549 77.0021 317.357 77.6141 316.661V317.429H78.5621V310.937H77.6141V311.657C76.9901 311.021 76.0421 310.805 75.3101 310.805C73.4141 310.805 72.1181 312.077 72.1181 314.153C72.1181 316.253 73.4021 317.549 75.3701 317.549ZM75.4541 316.649C74.0621 316.649 73.1141 315.713 73.1141 314.153C73.1141 312.629 74.0741 311.705 75.4181 311.705C76.2101 311.705 77.1101 312.089 77.6141 312.797V315.533C77.1341 316.325 76.2341 316.649 75.4541 316.649ZM80.4008 317.429H81.3488V314.201C81.3488 312.677 82.2008 311.777 83.2568 311.777C83.5568 311.777 83.8688 311.837 84.2048 311.969V310.925C84.0128 310.841 83.7248 310.805 83.4488 310.805C82.4528 310.805 81.7328 311.285 81.3488 311.921V310.937H80.4008V317.429ZM87.5879 317.561C88.0559 317.561 88.5719 317.501 88.9439 317.381V316.469C88.5239 316.625 88.0559 316.673 87.7559 316.673C86.8439 316.673 86.6519 316.229 86.6519 315.269V311.825H88.9559V310.937H86.6519V308.381H85.7039V310.937H84.6359V311.825H85.7039V315.365C85.7039 316.793 86.1119 317.561 87.5879 317.561ZM93.5965 310.049C93.9925 310.049 94.3165 309.725 94.3165 309.317C94.3165 308.909 93.9925 308.597 93.5965 308.597C93.1885 308.597 92.8525 308.909 92.8525 309.317C92.8525 309.725 93.1885 310.049 93.5965 310.049ZM93.0805 317.429H94.0645V310.937H93.0805V317.429ZM95.9399 317.429H96.8879V312.665C97.3679 312.185 98.0759 311.705 98.9999 311.705C99.9119 311.705 100.824 312.041 100.824 313.709V317.429H101.772V313.625C101.772 311.417 100.644 310.817 99.1799 310.817C98.3159 310.817 97.5239 311.141 96.8879 311.681V310.937H95.9399V317.429ZM32.436 339.529H33.384V336.661C33.996 337.357 34.896 337.549 35.628 337.549C37.596 337.549 38.88 336.253 38.88 334.153C38.88 332.077 37.584 330.805 35.688 330.805C34.956 330.805 34.008 331.021 33.384 331.657V330.937H32.436V339.529ZM35.544 336.649C34.764 336.649 33.864 336.325 33.384 335.533V332.797C33.888 332.089 34.788 331.705 35.58 331.705C36.924 331.705 37.884 332.629 37.884 334.153C37.884 335.713 36.936 336.649 35.544 336.649ZM40.3579 337.429H41.3059V334.201C41.3059 332.677 42.1579 331.777 43.2139 331.777C43.5139 331.777 43.8259 331.837 44.1619 331.969V330.925C43.9699 330.841 43.6819 330.805 43.4059 330.805C42.4099 330.805 41.6899 331.285 41.3059 331.921V330.937H40.3579V337.429ZM45.9129 330.049C46.3089 330.049 46.6329 329.725 46.6329 329.317C46.6329 328.909 46.3089 328.597 45.9129 328.597C45.5049 328.597 45.1689 328.909 45.1689 329.317C45.1689 329.725 45.5049 330.049 45.9129 330.049ZM45.3969 337.429H46.3809V330.937H45.3969V337.429ZM53.0803 330.937L50.7643 336.037L49.9603 334.177L48.4963 330.937H47.4163L50.4883 337.513H51.0403L54.1243 330.937H53.0803ZM57.7803 337.549C58.5123 337.549 59.4123 337.357 60.0243 336.661V337.429H60.9723V330.937H60.0243V331.657C59.4003 331.021 58.4523 330.805 57.7203 330.805C55.8243 330.805 54.5283 332.077 54.5283 334.153C54.5283 336.253 55.8123 337.549 57.7803 337.549ZM57.8643 336.649C56.4723 336.649 55.5243 335.713 55.5243 334.153C55.5243 332.629 56.4843 331.705 57.8283 331.705C58.6203 331.705 59.5203 332.089 60.0243 332.797V335.533C59.5443 336.325 58.6443 336.649 57.8643 336.649ZM64.959 337.561C65.427 337.561 65.943 337.501 66.315 337.381V336.469C65.895 336.625 65.427 336.673 65.127 336.673C64.215 336.673 64.023 336.229 64.023 335.269V331.825H66.327V330.937H64.023V328.381H63.075V330.937H62.007V331.825H63.075V335.365C63.075 336.793 63.483 337.561 64.959 337.561ZM73.4453 334.213C73.4453 332.209 72.3173 330.805 70.1093 330.805C68.1773 330.805 66.8213 332.125 66.8213 334.165C66.8213 336.229 68.1773 337.549 70.2413 337.549C71.6333 337.549 72.5933 337.057 73.1933 336.253L72.5093 335.689C72.0053 336.301 71.2493 336.661 70.2893 336.661C68.9453 336.661 67.9613 335.833 67.8173 334.477H73.4453V334.213ZM70.1213 331.693C71.5613 331.693 72.3053 332.497 72.4253 333.649H67.8413C68.0333 332.425 68.9453 331.693 70.1213 331.693ZM77.7415 337.429H80.8135C83.4775 337.429 84.8935 335.725 84.8935 333.109C84.8935 330.313 83.3455 328.969 80.7535 328.969H77.7415V337.429ZM78.7495 336.493V329.905H80.7535C82.8415 329.905 83.8495 331.057 83.8495 333.109C83.8495 335.281 82.6495 336.493 80.8135 336.493H78.7495ZM92.6171 334.213C92.6171 332.209 91.4891 330.805 89.2811 330.805C87.3491 330.805 85.9931 332.125 85.9931 334.165C85.9931 336.229 87.3491 337.549 89.4131 337.549C90.8051 337.549 91.7651 337.057 92.3651 336.253L91.6811 335.689C91.1771 336.301 90.4211 336.661 89.4611 336.661C88.1171 336.661 87.1331 335.833 86.9891 334.477H92.6171V334.213ZM89.2931 331.693C90.7331 331.693 91.4771 332.497 91.5971 333.649H87.0131C87.2051 332.425 88.1171 331.693 89.2931 331.693ZM101.508 330.805C100.452 330.805 99.6357 331.177 99.0357 331.717C98.6517 331.045 98.0037 330.805 97.1517 330.805C96.3717 330.805 95.5557 331.093 94.8957 331.681V330.937H93.9477V337.429H94.8957V332.641C95.4237 332.101 96.1797 331.693 96.9117 331.693C97.7877 331.693 98.4837 332.113 98.4837 333.673V337.429H99.4317V333.697C99.4317 333.253 99.3957 332.857 99.3237 332.533C99.8277 332.041 100.476 331.693 101.28 331.693C102.144 331.693 103.068 332.029 103.068 333.853V337.429H104.016V333.709C104.016 331.405 102.816 330.805 101.508 330.805ZM108.869 337.549C110.957 337.549 112.397 336.193 112.397 334.165C112.397 332.161 110.957 330.805 108.869 330.805C106.781 330.805 105.329 332.161 105.329 334.165C105.329 336.193 106.781 337.549 108.869 337.549ZM108.869 336.649C107.393 336.649 106.337 335.653 106.337 334.165C106.337 332.701 107.393 331.705 108.869 331.705C110.333 331.705 111.389 332.701 111.389 334.165C111.389 335.653 110.333 336.649 108.869 336.649ZM116.835 337.429H119.907C122.571 337.429 123.987 335.725 123.987 333.109C123.987 330.313 122.439 328.969 119.847 328.969H116.835V337.429ZM117.843 336.493V329.905H119.847C121.935 329.905 122.943 331.057 122.943 333.109C122.943 335.281 121.743 336.493 119.907 336.493H117.843ZM128.339 337.549C129.071 337.549 129.971 337.357 130.583 336.661V337.429H131.531V330.937H130.583V331.657C129.959 331.021 129.011 330.805 128.279 330.805C126.383 330.805 125.087 332.077 125.087 334.153C125.087 336.253 126.371 337.549 128.339 337.549ZM128.423 336.649C127.031 336.649 126.083 335.713 126.083 334.153C126.083 332.629 127.043 331.705 128.387 331.705C129.179 331.705 130.079 332.089 130.583 332.797V335.533C130.103 336.325 129.203 336.649 128.423 336.649ZM138.086 330.937L135.818 336.541L133.418 330.937H132.338L135.314 337.669C134.918 338.497 134.462 338.833 133.682 338.833C133.202 338.833 132.914 338.737 132.686 338.689V339.589C132.89 339.649 133.358 339.721 133.646 339.721C134.486 339.721 135.542 339.577 136.334 337.669L139.118 330.937H138.086ZM40.2 350.937L38.556 355.785L36.684 350.889H36.108L34.26 355.761L32.628 350.937H31.596L33.96 357.513H34.5L36.372 352.629L38.28 357.513H38.844L41.196 350.937H40.2ZM42.7489 350.049C43.1449 350.049 43.4689 349.725 43.4689 349.317C43.4689 348.909 43.1449 348.597 42.7489 348.597C42.3409 348.597 42.0049 348.909 42.0049 349.317C42.0049 349.725 42.3409 350.049 42.7489 350.049ZM42.2329 357.429H43.2169V350.937H42.2329V357.429ZM47.2402 357.561C47.7083 357.561 48.2243 357.501 48.5963 357.381V356.469C48.1763 356.625 47.7083 356.673 47.4083 356.673C46.4963 356.673 46.3043 356.229 46.3043 355.269V351.825H48.6083V350.937H46.3043V348.381H45.3563V350.937H44.2883V351.825H45.3563V355.365C45.3563 356.793 45.7643 357.561 47.2402 357.561ZM49.7792 357.429H50.7272V352.665C51.2072 352.185 51.9152 351.705 52.8392 351.705C53.7512 351.705 54.6632 352.041 54.6632 353.709V357.429H55.6112V353.625C55.6112 351.417 54.4832 350.817 53.0192 350.817C52.1552 350.817 51.3632 351.141 50.7272 351.681V348.381H49.7792V357.429ZM65.2726 353.001C66.0646 352.761 66.5326 352.125 66.5326 351.129C66.5326 349.761 65.6086 348.969 63.8086 348.969H60.2806V357.429H64.2166C66.2806 357.429 67.1686 356.589 67.1686 355.005C67.1686 353.937 66.4846 353.253 65.2726 353.001ZM61.2886 349.905H63.8206C64.8406 349.905 65.4886 350.313 65.4886 351.177C65.4886 352.173 64.9366 352.641 63.6526 352.641H61.2886V349.905ZM64.2166 356.493H61.2886V353.577H63.9046C65.4766 353.577 66.1246 354.117 66.1246 355.005C66.1246 355.977 65.5966 356.493 64.2166 356.493ZM74.7488 357.429H75.8528L72.0128 348.885H71.4128L67.5848 357.429H68.6888L69.6008 355.389H73.8248L74.7488 357.429ZM71.7128 350.469L72.4928 352.293L73.3928 354.453H70.0448L70.9328 352.293L71.7128 350.469ZM83.1727 348.969V355.473L77.4607 348.861H76.9447V357.429H77.9527V350.925L83.6647 357.525H84.1807V348.969H83.1727ZM92.4324 357.429H93.5364L89.6964 348.885H89.0964L85.2684 357.429H86.3724L87.2844 355.389H91.5084L92.4324 357.429ZM89.3964 350.469L90.1764 352.293L91.0764 354.453H87.7284L88.6164 352.293L89.3964 350.469ZM100.378 357.549C101.11 357.549 102.01 357.357 102.622 356.661V357.429H103.57V350.937H102.622V351.657C101.998 351.021 101.05 350.805 100.318 350.805C98.4219 350.805 97.1259 352.077 97.1259 354.153C97.1259 356.253 98.4099 357.549 100.378 357.549ZM100.462 356.649C99.0699 356.649 98.1219 355.713 98.1219 354.153C98.1219 352.629 99.0819 351.705 100.426 351.705C101.218 351.705 102.118 352.089 102.622 352.797V355.533C102.142 356.325 101.242 356.649 100.462 356.649ZM105.409 357.429H106.357V352.665C106.837 352.185 107.545 351.705 108.469 351.705C109.381 351.705 110.293 352.041 110.293 353.709V357.429H111.241V353.625C111.241 351.417 110.113 350.817 108.649 350.817C107.785 350.817 106.993 351.141 106.357 351.681V350.937H105.409V357.429ZM115.764 359.721C117.996 359.721 118.992 358.833 118.992 356.805V350.937H118.044V351.657C117.42 351.021 116.472 350.805 115.74 350.805C113.844 350.805 112.548 352.077 112.548 353.973C112.548 355.929 113.832 357.225 115.8 357.225C116.532 357.225 117.432 357.033 118.044 356.349V356.829C118.044 358.317 117.144 358.821 115.692 358.821C114.504 358.821 113.82 358.533 113.076 358.137V359.169C113.748 359.469 114.48 359.721 115.764 359.721ZM115.884 356.325C114.492 356.325 113.544 355.389 113.544 353.973C113.544 352.629 114.504 351.705 115.848 351.705C116.64 351.705 117.54 352.089 118.044 352.797V355.209C117.564 356.001 116.664 356.325 115.884 356.325ZM127.023 354.213C127.023 352.209 125.895 350.805 123.687 350.805C121.755 350.805 120.399 352.125 120.399 354.165C120.399 356.229 121.755 357.549 123.819 357.549C125.211 357.549 126.171 357.057 126.771 356.253L126.087 355.689C125.583 356.301 124.827 356.661 123.867 356.661C122.523 356.661 121.539 355.833 121.395 354.477H127.023V354.213ZM123.699 351.693C125.139 351.693 125.883 352.497 126.003 353.649H121.419C121.611 352.425 122.523 351.693 123.699 351.693ZM128.366 357.429H129.35V348.381H128.366V357.429ZM133.565 357.561C135.329 357.561 136.133 356.949 136.133 355.581C136.133 354.453 135.281 354.033 133.685 353.673C132.509 353.409 131.993 353.193 131.993 352.569C131.993 351.981 132.569 351.705 133.397 351.705C134.069 351.705 134.813 351.849 135.461 352.173L135.797 351.321C135.065 351.021 134.273 350.817 133.421 350.817C131.981 350.817 130.985 351.465 130.985 352.617C130.985 353.757 131.753 354.225 133.385 354.573C134.453 354.801 135.101 355.005 135.101 355.629C135.101 356.277 134.693 356.673 133.589 356.673C132.725 356.673 131.957 356.457 131.237 356.061L130.865 356.925C131.633 357.333 132.533 357.561 133.565 357.561Z" fill="#373B53"/>
<rect x="196.5" y="73.4294" width="141" height="67" rx="4" fill="white"/>
<rect x="198.5" y="75.4294" width="4" height="63" rx="1" fill="#C5BBF0"/>
<path d="M211.118 89.1234C211.51 88.6334 212.238 88.2554 213.4 87.5694C215.374 86.3934 216.564 85.5814 216.564 83.6914C216.564 81.7874 214.912 80.8214 212.826 80.8214C210.418 80.8214 208.976 82.1094 208.976 84.2234V84.6154H210.838V84.3354C210.838 83.2574 211.58 82.5714 212.798 82.5714C213.736 82.5714 214.478 83.0194 214.478 83.8594C214.478 84.8954 213.582 85.4834 211.972 86.4914C209.956 87.7794 209.06 88.6614 208.99 90.3134V90.9294H216.62V89.1234H211.118ZM218.946 91.1254C219.59 91.1254 220.122 90.5934 220.122 89.9354C220.122 89.2774 219.59 88.7454 218.946 88.7454C218.288 88.7454 217.756 89.2774 217.756 89.9354C217.756 90.5934 218.288 91.1254 218.946 91.1254ZM228.311 91.1254C230.761 91.1254 232.035 90.0614 232.035 88.0174C232.035 86.0714 230.621 85.4694 228.675 85.0634C227.149 84.7274 226.253 84.4894 226.253 83.7054C226.253 83.0894 226.827 82.6134 227.947 82.6134C229.025 82.6134 230.033 82.8934 230.845 83.2574L231.671 81.5914C230.691 81.1154 229.445 80.8214 227.933 80.8214C225.455 80.8214 224.209 82.0254 224.209 83.8314C224.209 85.7914 225.693 86.4354 227.863 86.8694C229.249 87.1354 229.963 87.4014 229.963 88.1714C229.963 88.9554 229.319 89.3614 228.213 89.3614C227.037 89.3614 225.931 89.0254 224.825 88.4934L224.069 90.2014C225.441 90.8314 226.561 91.1254 228.311 91.1254ZM240.812 87.1074C240.812 84.7554 239.51 83.0754 236.878 83.0754C234.54 83.0754 232.902 84.6574 232.902 87.0794C232.902 89.5154 234.414 91.0834 236.976 91.0834C238.726 91.0834 239.846 90.4814 240.546 89.5154L239.328 88.4794C238.81 89.1234 238.012 89.4594 237.116 89.4594C235.856 89.4594 235.072 88.8154 234.862 87.6814H240.798C240.812 87.5274 240.812 87.2334 240.812 87.1074ZM236.878 84.6854C238.208 84.6854 238.81 85.4414 238.922 86.2814H234.876C235.114 85.1754 235.898 84.6854 236.878 84.6854ZM242.072 90.9294H244.004V80.3174H242.072V90.9294ZM253.336 87.1074C253.336 84.7554 252.034 83.0754 249.402 83.0754C247.064 83.0754 245.426 84.6574 245.426 87.0794C245.426 89.5154 246.938 91.0834 249.5 91.0834C251.25 91.0834 252.37 90.4814 253.07 89.5154L251.852 88.4794C251.334 89.1234 250.536 89.4594 249.64 89.4594C248.38 89.4594 247.596 88.8154 247.386 87.6814H253.322C253.336 87.5274 253.336 87.2334 253.336 87.1074ZM249.402 84.6854C250.732 84.6854 251.334 85.4414 251.446 86.2814H247.4C247.638 85.1754 248.422 84.6854 249.402 84.6854ZM258.292 91.0834C259.79 91.0834 260.966 90.4814 261.652 89.5574L260.336 88.3534C259.958 88.8714 259.258 89.3194 258.362 89.3194C257.018 89.3194 256.15 88.4514 256.15 87.0794C256.15 85.7634 257.032 84.8954 258.376 84.8954C259.174 84.8954 259.888 85.3014 260.266 85.8614L261.61 84.6574C260.938 83.7334 259.748 83.1314 258.278 83.1314C255.73 83.1314 254.176 84.7694 254.176 87.0934C254.176 89.5154 255.688 91.0834 258.292 91.0834ZM265.637 91.1114C266.435 91.1114 266.967 91.0274 267.387 90.9014V89.2074C266.939 89.4034 266.449 89.4594 266.155 89.4594C265.357 89.4594 265.147 89.0814 265.147 88.2414V85.0074H267.401V83.2854H265.147V80.3174H263.243V83.2854H262.151V85.0074H263.243V88.5634C263.243 90.3134 263.957 91.1114 265.637 91.1114ZM269.74 82.3474C270.384 82.3474 270.916 81.8154 270.916 81.1574C270.916 80.4994 270.384 79.9674 269.74 79.9674C269.082 79.9674 268.55 80.4994 268.55 81.1574C268.55 81.8154 269.082 82.3474 269.74 82.3474ZM268.746 90.9294H270.706V83.2854H268.746V90.9294ZM276.355 91.0974C278.861 91.0974 280.541 89.5434 280.541 87.0934C280.541 84.6854 278.861 83.1174 276.355 83.1174C273.835 83.1174 272.141 84.6854 272.141 87.0934C272.141 89.5434 273.835 91.0974 276.355 91.0974ZM276.355 89.3334C275.039 89.3334 274.143 88.4514 274.143 87.0934C274.143 85.7634 275.039 84.8814 276.355 84.8814C277.657 84.8814 278.553 85.7634 278.553 87.0934C278.553 88.4514 277.657 89.3334 276.355 89.3334ZM281.981 90.9294H283.913V85.6514C284.319 85.2314 284.921 84.8534 285.677 84.8534C286.657 84.8534 287.287 85.3014 287.287 86.8414V90.9294H289.205V86.3654C289.205 83.9714 288.197 83.1174 286.293 83.1174C285.341 83.1174 284.459 83.4814 283.843 83.9854V83.2854H281.981V90.9294Z" fill="black"/>
<path d="M214.464 107.501C215.256 107.261 215.724 106.625 215.724 105.629C215.724 104.261 214.8 103.469 213 103.469H209.472V111.929H213.408C215.472 111.929 216.36 111.089 216.36 109.505C216.36 108.437 215.676 107.753 214.464 107.501ZM210.48 104.405H213.012C214.032 104.405 214.68 104.813 214.68 105.677C214.68 106.673 214.128 107.141 212.844 107.141H210.48V104.405ZM213.408 110.993H210.48V108.077H213.096C214.668 108.077 215.316 108.617 215.316 109.505C215.316 110.477 214.788 110.993 213.408 110.993ZM223.937 108.713C223.937 106.709 222.809 105.305 220.601 105.305C218.669 105.305 217.313 106.625 217.313 108.665C217.313 110.729 218.669 112.049 220.733 112.049C222.125 112.049 223.085 111.557 223.685 110.753L223.001 110.189C222.497 110.801 221.741 111.161 220.781 111.161C219.437 111.161 218.453 110.333 218.309 108.977H223.937V108.713ZM220.613 106.193C222.053 106.193 222.797 106.997 222.917 108.149H218.333C218.525 106.925 219.437 106.193 220.613 106.193ZM234.426 108.713C234.426 106.709 233.298 105.305 231.09 105.305C229.158 105.305 227.802 106.625 227.802 108.665C227.802 110.729 229.158 112.049 231.222 112.049C232.614 112.049 233.574 111.557 234.174 110.753L233.49 110.189C232.986 110.801 232.23 111.161 231.27 111.161C229.926 111.161 228.942 110.333 228.798 108.977H234.426V108.713ZM231.102 106.193C232.542 106.193 233.286 106.997 233.406 108.149H228.822C229.014 106.925 229.926 106.193 231.102 106.193ZM240.416 105.437L238.1 110.537L237.296 108.677L235.832 105.437H234.752L237.824 112.013H238.376L241.46 105.437H240.416ZM245.116 112.049C245.848 112.049 246.748 111.857 247.36 111.161V111.929H248.308V105.437H247.36V106.157C246.736 105.521 245.788 105.305 245.056 105.305C243.16 105.305 241.864 106.577 241.864 108.653C241.864 110.753 243.148 112.049 245.116 112.049ZM245.2 111.149C243.808 111.149 242.86 110.213 242.86 108.653C242.86 107.129 243.82 106.205 245.164 106.205C245.956 106.205 246.856 106.589 247.36 107.297V110.033C246.88 110.825 245.98 111.149 245.2 111.149ZM250.159 111.929H251.143V102.881H250.159V111.929ZM255.43 112.049C256.33 112.049 257.062 111.725 257.674 111.113V111.929H258.622V105.437H257.674V110.129C257.194 110.681 256.57 111.161 255.622 111.161C254.734 111.161 253.822 110.825 253.822 109.157V105.437H252.874V109.241C252.874 111.449 254.014 112.049 255.43 112.049ZM263.233 112.049C263.965 112.049 264.865 111.857 265.477 111.161V111.929H266.425V105.437H265.477V106.157C264.853 105.521 263.905 105.305 263.173 105.305C261.277 105.305 259.981 106.577 259.981 108.653C259.981 110.753 261.265 112.049 263.233 112.049ZM263.317 111.149C261.925 111.149 260.977 110.213 260.977 108.653C260.977 107.129 261.937 106.205 263.281 106.205C264.073 106.205 264.973 106.589 265.477 107.297V110.033C264.997 110.825 264.097 111.149 263.317 111.149ZM270.412 112.061C270.88 112.061 271.396 112.001 271.768 111.881V110.969C271.348 111.125 270.88 111.173 270.58 111.173C269.668 111.173 269.476 110.729 269.476 109.769V106.325H271.78V105.437H269.476V102.881H268.528V105.437H267.46V106.325H268.528V109.865C268.528 111.293 268.936 112.061 270.412 112.061ZM278.898 108.713C278.898 106.709 277.77 105.305 275.562 105.305C273.63 105.305 272.274 106.625 272.274 108.665C272.274 110.729 273.63 112.049 275.694 112.049C277.086 112.049 278.046 111.557 278.646 110.753L277.962 110.189C277.458 110.801 276.702 111.161 275.742 111.161C274.398 111.161 273.414 110.333 273.27 108.977H278.898V108.713ZM275.574 106.193C277.014 106.193 277.758 106.997 277.878 108.149H273.294C273.486 106.925 274.398 106.193 275.574 106.193ZM283.085 112.049C283.817 112.049 284.717 111.857 285.329 111.161V111.929H286.277V102.881H285.329V106.157C284.705 105.521 283.757 105.305 283.025 105.305C281.129 105.305 279.833 106.577 279.833 108.653C279.833 110.753 281.117 112.049 283.085 112.049ZM283.169 111.149C281.777 111.149 280.829 110.213 280.829 108.653C280.829 107.129 281.789 106.205 283.133 106.205C283.925 106.205 284.825 106.589 285.329 107.297V110.033C284.849 110.825 283.949 111.149 283.169 111.149ZM294.225 112.049C296.193 112.049 297.477 110.753 297.477 108.653C297.477 106.577 296.181 105.305 294.285 105.305C293.553 105.305 292.605 105.521 291.981 106.157V102.881H291.033V111.929H291.981V111.161C292.593 111.857 293.493 112.049 294.225 112.049ZM294.141 111.149C293.361 111.149 292.461 110.825 291.981 110.033V107.297C292.485 106.589 293.385 106.205 294.177 106.205C295.521 106.205 296.481 107.129 296.481 108.653C296.481 110.213 295.533 111.149 294.141 111.149ZM303.437 105.437L301.169 111.041L298.769 105.437H297.689L300.665 112.169C300.269 112.997 299.813 113.333 299.033 113.333C298.553 113.333 298.265 113.237 298.037 113.189V114.089C298.241 114.149 298.709 114.221 298.997 114.221C299.837 114.221 300.893 114.077 301.685 112.169L304.469 105.437H303.437ZM214.464 127.501C215.256 127.261 215.724 126.625 215.724 125.629C215.724 124.261 214.8 123.469 213 123.469H209.472V131.929H213.408C215.472 131.929 216.36 131.089 216.36 129.505C216.36 128.437 215.676 127.753 214.464 127.501ZM210.48 124.405H213.012C214.032 124.405 214.68 124.813 214.68 125.677C214.68 126.673 214.128 127.141 212.844 127.141H210.48V124.405ZM213.408 130.993H210.48V128.077H213.096C214.668 128.077 215.316 128.617 215.316 129.505C215.316 130.477 214.788 130.993 213.408 130.993ZM223.94 131.929H225.044L221.204 123.385H220.604L216.776 131.929H217.88L218.792 129.889H223.016L223.94 131.929ZM220.904 124.969L221.684 126.793L222.584 128.953H219.236L220.124 126.793L220.904 124.969ZM232.364 123.469V129.973L226.652 123.361H226.136V131.929H227.144V125.425L232.856 132.025H233.372V123.469H232.364ZM241.624 131.929H242.728L238.888 123.385H238.288L234.46 131.929H235.564L236.476 129.889H240.7L241.624 131.929ZM238.588 124.969L239.368 126.793L240.268 128.953H236.92L237.808 126.793L238.588 124.969ZM248.861 132.061C249.329 132.061 249.845 132.001 250.217 131.881V130.969C249.797 131.125 249.329 131.173 249.029 131.173C248.117 131.173 247.925 130.729 247.925 129.769V126.325H250.229V125.437H247.925V122.881H246.977V125.437H245.909V126.325H246.977V129.865C246.977 131.293 247.385 132.061 248.861 132.061ZM257.348 128.713C257.348 126.709 256.22 125.305 254.012 125.305C252.08 125.305 250.724 126.625 250.724 128.665C250.724 130.729 252.08 132.049 254.144 132.049C255.536 132.049 256.496 131.557 257.096 130.753L256.412 130.189C255.908 130.801 255.152 131.161 254.192 131.161C252.848 131.161 251.864 130.333 251.72 128.977H257.348V128.713ZM254.024 126.193C255.464 126.193 256.208 126.997 256.328 128.149H251.744C251.936 126.925 252.848 126.193 254.024 126.193ZM261.534 132.049C262.266 132.049 263.166 131.857 263.778 131.161V131.929H264.726V125.437H263.778V126.157C263.154 125.521 262.206 125.305 261.474 125.305C259.578 125.305 258.282 126.577 258.282 128.653C258.282 130.753 259.566 132.049 261.534 132.049ZM261.618 131.149C260.226 131.149 259.278 130.213 259.278 128.653C259.278 127.129 260.238 126.205 261.582 126.205C262.374 126.205 263.274 126.589 263.778 127.297V130.033C263.298 130.825 262.398 131.149 261.618 131.149ZM274.125 125.305C273.069 125.305 272.253 125.677 271.653 126.217C271.269 125.545 270.621 125.305 269.769 125.305C268.989 125.305 268.173 125.593 267.513 126.181V125.437H266.565V131.929H267.513V127.141C268.041 126.601 268.797 126.193 269.529 126.193C270.405 126.193 271.101 126.613 271.101 128.173V131.929H272.049V128.197C272.049 127.753 272.013 127.357 271.941 127.033C272.445 126.541 273.093 126.193 273.897 126.193C274.761 126.193 275.685 126.529 275.685 128.353V131.929H276.633V128.209C276.633 125.905 275.433 125.305 274.125 125.305Z" fill="#373B53"/>
<rect x="201.5" y="183.429" width="141" height="111" rx="4" fill="white"/>
<rect x="203.5" y="185.429" width="4" height="106" rx="1" fill="#C5BBF0"/>
<path d="M221.004 198.985V192.461H219.59L213.752 199.643V200.679H219.058V202.429H221.004V200.679H222.558V198.985H221.004ZM216.202 199.083L219.212 195.387V199.083H216.202ZM224.534 202.625C225.178 202.625 225.71 202.093 225.71 201.435C225.71 200.777 225.178 200.245 224.534 200.245C223.876 200.245 223.344 200.777 223.344 201.435C223.344 202.093 223.876 202.625 224.534 202.625ZM234.109 192.503H230.161V202.429H232.135V199.741H233.899C236.657 199.741 238.127 198.579 238.127 196.073C238.127 193.735 236.741 192.503 234.109 192.503ZM233.829 198.005H232.135V194.267H233.983C235.439 194.267 236.083 194.897 236.083 196.129C236.083 197.305 235.383 198.005 233.829 198.005ZM239.32 202.429H241.252V198.817C241.252 197.347 242.092 196.633 243.17 196.633C243.464 196.633 243.772 196.689 244.094 196.773V194.687C243.954 194.631 243.758 194.617 243.562 194.617C242.526 194.617 241.714 195.079 241.182 195.779V194.785H239.32V202.429ZM252.648 198.607C252.648 196.255 251.346 194.575 248.714 194.575C246.376 194.575 244.738 196.157 244.738 198.579C244.738 201.015 246.25 202.583 248.812 202.583C250.562 202.583 251.682 201.981 252.382 201.015L251.164 199.979C250.646 200.623 249.848 200.959 248.952 200.959C247.692 200.959 246.908 200.315 246.698 199.181H252.634C252.648 199.027 252.648 198.733 252.648 198.607ZM248.714 196.185C250.044 196.185 250.646 196.941 250.758 197.781H246.712C246.95 196.675 247.734 196.185 248.714 196.185ZM253.908 204.893H255.812V201.687C256.414 202.415 257.338 202.597 258.08 202.597C260.32 202.597 261.762 201.043 261.762 198.593C261.762 196.143 260.306 194.603 258.164 194.603C257.38 194.603 256.442 194.827 255.812 195.443V194.785H253.908V204.893ZM257.66 200.861C256.932 200.861 256.19 200.567 255.784 199.853V197.319C256.176 196.689 256.96 196.339 257.702 196.339C258.92 196.339 259.774 197.151 259.774 198.593C259.774 200.007 258.948 200.861 257.66 200.861ZM266.481 202.597C267.223 202.597 268.175 202.415 268.777 201.687V202.429H270.653V194.785H268.749V195.443C268.119 194.827 267.181 194.603 266.397 194.603C264.255 194.603 262.785 196.143 262.785 198.593C262.785 201.043 264.241 202.597 266.481 202.597ZM266.901 200.861C265.613 200.861 264.773 200.007 264.773 198.593C264.773 197.151 265.641 196.339 266.859 196.339C267.601 196.339 268.385 196.689 268.777 197.319V199.853C268.385 200.567 267.629 200.861 266.901 200.861ZM272.447 202.429H274.379V198.817C274.379 197.347 275.219 196.633 276.297 196.633C276.591 196.633 276.899 196.689 277.221 196.773V194.687C277.081 194.631 276.885 194.617 276.689 194.617C275.653 194.617 274.841 195.079 274.309 195.779V194.785H272.447V202.429ZM281.561 202.597C282.303 202.597 283.255 202.415 283.857 201.687V202.429H285.733V194.785H283.829V195.443C283.199 194.827 282.261 194.603 281.477 194.603C279.335 194.603 277.865 196.143 277.865 198.593C277.865 201.043 279.321 202.597 281.561 202.597ZM281.981 200.861C280.693 200.861 279.853 200.007 279.853 198.593C279.853 197.151 280.721 196.339 281.939 196.339C282.681 196.339 283.465 196.689 283.857 197.319V199.853C283.465 200.567 282.709 200.861 281.981 200.861ZM290.216 202.611C291.014 202.611 291.546 202.527 291.966 202.401V200.707C291.518 200.903 291.028 200.959 290.734 200.959C289.936 200.959 289.726 200.581 289.726 199.741V196.507H291.98V194.785H289.726V191.817H287.822V194.785H286.73V196.507H287.822V200.063C287.822 201.813 288.536 202.611 290.216 202.611ZM294.318 193.847C294.962 193.847 295.494 193.315 295.494 192.657C295.494 191.999 294.962 191.467 294.318 191.467C293.66 191.467 293.128 191.999 293.128 192.657C293.128 193.315 293.66 193.847 294.318 193.847ZM293.324 202.429H295.284V194.785H293.324V202.429ZM300.933 202.597C303.439 202.597 305.119 201.043 305.119 198.593C305.119 196.185 303.439 194.617 300.933 194.617C298.413 194.617 296.719 196.185 296.719 198.593C296.719 201.043 298.413 202.597 300.933 202.597ZM300.933 200.833C299.617 200.833 298.721 199.951 298.721 198.593C298.721 197.263 299.617 196.381 300.933 196.381C302.235 196.381 303.131 197.263 303.131 198.593C303.131 199.951 302.235 200.833 300.933 200.833ZM306.559 202.429H308.491V197.151C308.897 196.731 309.499 196.353 310.255 196.353C311.235 196.353 311.865 196.801 311.865 198.341V202.429H313.783V197.865C313.783 195.471 312.775 194.617 310.871 194.617C309.919 194.617 309.037 194.981 308.421 195.485V194.785H306.559V202.429Z" fill="black"/>
<path d="M224.912 214.969L222.608 221.521L220.1 214.921H219.548L217.028 221.509L214.7 214.969H213.596L216.704 223.525H217.256L219.812 216.949L222.38 223.525H222.932L226.016 214.969H224.912ZM229.592 223.549C231.68 223.549 233.12 222.193 233.12 220.165C233.12 218.161 231.68 216.805 229.592 216.805C227.504 216.805 226.052 218.161 226.052 220.165C226.052 222.193 227.504 223.549 229.592 223.549ZM229.592 222.649C228.116 222.649 227.06 221.653 227.06 220.165C227.06 218.701 228.116 217.705 229.592 217.705C231.056 217.705 232.112 218.701 232.112 220.165C232.112 221.653 231.056 222.649 229.592 222.649ZM234.592 223.429H235.54V220.201C235.54 218.677 236.392 217.777 237.448 217.777C237.748 217.777 238.06 217.837 238.396 217.969V216.925C238.204 216.841 237.916 216.805 237.64 216.805C236.644 216.805 235.924 217.285 235.54 217.921V216.937H234.592V223.429ZM244.575 223.429H245.751L243.207 219.409L245.619 216.937H244.311L240.567 220.801V214.381H239.619V223.429H240.567V222.061L242.499 220.129L244.575 223.429ZM253.006 223.549C255.094 223.549 256.534 222.193 256.534 220.165C256.534 218.161 255.094 216.805 253.006 216.805C250.918 216.805 249.466 218.161 249.466 220.165C249.466 222.193 250.918 223.549 253.006 223.549ZM253.006 222.649C251.53 222.649 250.474 221.653 250.474 220.165C250.474 218.701 251.53 217.705 253.006 217.705C254.47 217.705 255.526 218.701 255.526 220.165C255.526 221.653 254.47 222.649 253.006 222.649ZM258.006 223.429H258.954V218.665C259.434 218.185 260.142 217.705 261.066 217.705C261.978 217.705 262.89 218.041 262.89 219.709V223.429H263.838V219.625C263.838 217.417 262.71 216.817 261.246 216.817C260.382 216.817 259.59 217.141 258.954 217.681V216.937H258.006V223.429ZM273.187 216.937L270.919 222.541L268.519 216.937H267.439L270.415 223.669C270.019 224.497 269.563 224.833 268.783 224.833C268.303 224.833 268.015 224.737 267.787 224.689V225.589C267.991 225.649 268.459 225.721 268.747 225.721C269.587 225.721 270.643 225.577 271.435 223.669L274.219 216.937H273.187ZM278.178 223.549C280.266 223.549 281.706 222.193 281.706 220.165C281.706 218.161 280.266 216.805 278.178 216.805C276.09 216.805 274.638 218.161 274.638 220.165C274.638 222.193 276.09 223.549 278.178 223.549ZM278.178 222.649C276.702 222.649 275.646 221.653 275.646 220.165C275.646 218.701 276.702 217.705 278.178 217.705C279.642 217.705 280.698 218.701 280.698 220.165C280.698 221.653 279.642 222.649 278.178 222.649ZM285.578 223.549C286.478 223.549 287.21 223.225 287.822 222.613V223.429H288.77V216.937H287.822V221.629C287.342 222.181 286.718 222.661 285.77 222.661C284.882 222.661 283.97 222.325 283.97 220.657V216.937H283.022V220.741C283.022 222.949 284.162 223.549 285.578 223.549ZM290.526 223.429H291.474V220.201C291.474 218.677 292.326 217.777 293.382 217.777C293.682 217.777 293.994 217.837 294.33 217.969V216.925C294.138 216.841 293.85 216.805 293.574 216.805C292.578 216.805 291.858 217.285 291.474 217.921V216.937H290.526V223.429ZM214.952 236.049C215.348 236.049 215.672 235.725 215.672 235.317C215.672 234.909 215.348 234.597 214.952 234.597C214.544 234.597 214.208 234.909 214.208 235.317C214.208 235.725 214.544 236.049 214.952 236.049ZM214.436 243.429H215.42V236.937H214.436V243.429ZM217.295 243.429H218.243V238.665C218.723 238.185 219.431 237.705 220.355 237.705C221.267 237.705 222.179 238.041 222.179 239.709V243.429H223.127V239.625C223.127 237.417 221.999 236.817 220.535 236.817C219.671 236.817 218.879 237.141 218.243 237.681V236.937H217.295V243.429ZM229.655 236.937L227.339 242.037L226.535 240.177L225.071 236.937H223.991L227.063 243.513H227.615L230.699 236.937H229.655ZM237.727 240.213C237.727 238.209 236.599 236.805 234.391 236.805C232.459 236.805 231.103 238.125 231.103 240.165C231.103 242.229 232.459 243.549 234.523 243.549C235.915 243.549 236.875 243.057 237.475 242.253L236.791 241.689C236.287 242.301 235.531 242.661 234.571 242.661C233.227 242.661 232.243 241.833 232.099 240.477H237.727V240.213ZM234.403 237.693C235.843 237.693 236.587 238.497 236.707 239.649H232.123C232.315 238.425 233.227 237.693 234.403 237.693ZM241.385 243.561C243.149 243.561 243.953 242.949 243.953 241.581C243.953 240.453 243.101 240.033 241.505 239.673C240.329 239.409 239.813 239.193 239.813 238.569C239.813 237.981 240.389 237.705 241.217 237.705C241.889 237.705 242.633 237.849 243.281 238.173L243.617 237.321C242.885 237.021 242.093 236.817 241.241 236.817C239.801 236.817 238.805 237.465 238.805 238.617C238.805 239.757 239.573 240.225 241.205 240.573C242.273 240.801 242.921 241.005 242.921 241.629C242.921 242.277 242.513 242.673 241.409 242.673C240.545 242.673 239.777 242.457 239.057 242.061L238.685 242.925C239.453 243.333 240.353 243.561 241.385 243.561ZM247.557 243.561C248.025 243.561 248.541 243.501 248.913 243.381V242.469C248.493 242.625 248.025 242.673 247.725 242.673C246.813 242.673 246.621 242.229 246.621 241.269V237.825H248.925V236.937H246.621V234.381H245.673V236.937H244.605V237.825H245.673V241.365C245.673 242.793 246.081 243.561 247.557 243.561ZM257.68 236.805C256.624 236.805 255.808 237.177 255.208 237.717C254.824 237.045 254.176 236.805 253.324 236.805C252.544 236.805 251.728 237.093 251.068 237.681V236.937H250.12V243.429H251.068V238.641C251.596 238.101 252.352 237.693 253.084 237.693C253.96 237.693 254.656 238.113 254.656 239.673V243.429H255.604V239.697C255.604 239.253 255.568 238.857 255.496 238.533C256 238.041 256.648 237.693 257.452 237.693C258.316 237.693 259.24 238.029 259.24 239.853V243.429H260.188V239.709C260.188 237.405 258.988 236.805 257.68 236.805ZM268.125 240.213C268.125 238.209 266.997 236.805 264.789 236.805C262.857 236.805 261.501 238.125 261.501 240.165C261.501 242.229 262.857 243.549 264.921 243.549C266.313 243.549 267.273 243.057 267.873 242.253L267.189 241.689C266.685 242.301 265.929 242.661 264.969 242.661C263.625 242.661 262.641 241.833 262.497 240.477H268.125V240.213ZM264.801 237.693C266.241 237.693 266.985 238.497 267.105 239.649H262.521C262.713 238.425 263.625 237.693 264.801 237.693ZM269.456 243.429H270.404V238.665C270.884 238.185 271.592 237.705 272.516 237.705C273.428 237.705 274.34 238.041 274.34 239.709V243.429H275.288V239.625C275.288 237.417 274.16 236.817 272.696 236.817C271.832 236.817 271.04 237.141 270.404 237.681V236.937H269.456V243.429ZM279.139 243.561C279.607 243.561 280.123 243.501 280.495 243.381V242.469C280.075 242.625 279.607 242.673 279.307 242.673C278.395 242.673 278.203 242.229 278.203 241.269V237.825H280.507V236.937H278.203V234.381H277.255V236.937H276.187V237.825H277.255V241.365C277.255 242.793 277.663 243.561 279.139 243.561ZM287.487 243.549C288.219 243.549 289.119 243.357 289.731 242.661V243.429H290.679V234.381H289.731V237.657C289.107 237.021 288.159 236.805 287.427 236.805C285.531 236.805 284.235 238.077 284.235 240.153C284.235 242.253 285.519 243.549 287.487 243.549ZM287.571 242.649C286.179 242.649 285.231 241.713 285.231 240.153C285.231 238.629 286.191 237.705 287.535 237.705C288.327 237.705 289.227 238.089 289.731 238.797V241.533C289.251 242.325 288.351 242.649 287.571 242.649ZM298.746 240.213C298.746 238.209 297.618 236.805 295.41 236.805C293.478 236.805 292.122 238.125 292.122 240.165C292.122 242.229 293.478 243.549 295.542 243.549C296.934 243.549 297.894 243.057 298.494 242.253L297.81 241.689C297.306 242.301 296.55 242.661 295.59 242.661C294.246 242.661 293.262 241.833 293.118 240.477H298.746V240.213ZM295.422 237.693C296.862 237.693 297.606 238.497 297.726 239.649H293.142C293.334 238.425 294.246 237.693 295.422 237.693ZM303.113 243.537C304.289 243.537 305.309 243.081 305.897 242.337L305.213 241.689C304.793 242.229 304.037 242.637 303.113 242.637C301.637 242.637 300.689 241.677 300.689 240.165C300.689 238.677 301.649 237.717 303.173 237.717C303.989 237.717 304.757 238.113 305.177 238.653L305.849 237.993C305.273 237.273 304.265 236.817 303.173 236.817C301.061 236.817 299.681 238.137 299.681 240.165C299.681 242.217 300.965 243.537 303.113 243.537ZM312.251 243.429H313.427L310.883 239.409L313.295 236.937H311.987L308.243 240.801V234.381H307.295V243.429H308.243V242.061L310.175 240.129L312.251 243.429ZM217.292 263.549C218.024 263.549 218.924 263.357 219.536 262.661V263.429H220.484V256.937H219.536V257.657C218.912 257.021 217.964 256.805 217.232 256.805C215.336 256.805 214.04 258.077 214.04 260.153C214.04 262.253 215.324 263.549 217.292 263.549ZM217.376 262.649C215.984 262.649 215.036 261.713 215.036 260.153C215.036 258.629 215.996 257.705 217.34 257.705C218.132 257.705 219.032 258.089 219.536 258.797V261.533C219.056 262.325 218.156 262.649 217.376 262.649ZM222.323 263.429H223.271V258.665C223.751 258.185 224.459 257.705 225.383 257.705C226.295 257.705 227.207 258.041 227.207 259.709V263.429H228.155V259.625C228.155 257.417 227.027 256.817 225.563 256.817C224.699 256.817 223.907 257.141 223.271 257.681V256.937H222.323V263.429ZM232.714 263.549C233.446 263.549 234.346 263.357 234.958 262.661V263.429H235.906V254.381H234.958V257.657C234.334 257.021 233.386 256.805 232.654 256.805C230.758 256.805 229.462 258.077 229.462 260.153C229.462 262.253 230.746 263.549 232.714 263.549ZM232.798 262.649C231.406 262.649 230.458 261.713 230.458 260.153C230.458 258.629 231.418 257.705 232.762 257.705C233.554 257.705 234.454 258.089 234.958 258.797V261.533C234.478 262.325 233.578 262.649 232.798 262.649ZM241.046 263.429H241.994V257.825H244.07V256.937H241.994V256.481C241.994 255.425 242.306 255.089 243.11 255.089C243.398 255.089 243.746 255.125 244.166 255.257V254.417C243.794 254.297 243.398 254.237 242.966 254.237C241.67 254.237 241.046 255.005 241.046 256.433V256.937H239.954V257.825H241.046V263.429ZM245.632 256.049C246.028 256.049 246.352 255.725 246.352 255.317C246.352 254.909 246.028 254.597 245.632 254.597C245.224 254.597 244.888 254.909 244.888 255.317C244.888 255.725 245.224 256.049 245.632 256.049ZM245.116 263.429H246.1V256.937H245.116V263.429ZM247.975 263.429H248.923V258.665C249.403 258.185 250.111 257.705 251.035 257.705C251.947 257.705 252.859 258.041 252.859 259.709V263.429H253.807V259.625C253.807 257.417 252.679 256.817 251.215 256.817C250.351 256.817 249.559 257.141 248.923 257.681V256.937H247.975V263.429ZM258.366 263.549C259.098 263.549 259.998 263.357 260.61 262.661V263.429H261.558V256.937H260.61V257.657C259.986 257.021 259.038 256.805 258.306 256.805C256.41 256.805 255.114 258.077 255.114 260.153C255.114 262.253 256.398 263.549 258.366 263.549ZM258.45 262.649C257.058 262.649 256.11 261.713 256.11 260.153C256.11 258.629 257.07 257.705 258.414 257.705C259.206 257.705 260.106 258.089 260.61 258.797V261.533C260.13 262.325 259.23 262.649 258.45 262.649ZM263.397 263.429H264.345V258.665C264.825 258.185 265.533 257.705 266.457 257.705C267.369 257.705 268.281 258.041 268.281 259.709V263.429H269.229V259.625C269.229 257.417 268.101 256.817 266.637 256.817C265.773 256.817 264.981 257.141 264.345 257.681V256.937H263.397V263.429ZM273.968 263.537C275.144 263.537 276.164 263.081 276.752 262.337L276.068 261.689C275.648 262.229 274.892 262.637 273.968 262.637C272.492 262.637 271.544 261.677 271.544 260.165C271.544 258.677 272.504 257.717 274.028 257.717C274.844 257.717 275.612 258.113 276.032 258.653L276.704 257.993C276.128 257.273 275.12 256.817 274.028 256.817C271.916 256.817 270.536 258.137 270.536 260.165C270.536 262.217 271.82 263.537 273.968 263.537ZM278.679 256.049C279.075 256.049 279.399 255.725 279.399 255.317C279.399 254.909 279.075 254.597 278.679 254.597C278.271 254.597 277.935 254.909 277.935 255.317C277.935 255.725 278.271 256.049 278.679 256.049ZM278.163 263.429H279.147V256.937H278.163V263.429ZM283.878 263.549C284.61 263.549 285.51 263.357 286.122 262.661V263.429H287.07V256.937H286.122V257.657C285.498 257.021 284.55 256.805 283.818 256.805C281.922 256.805 280.626 258.077 280.626 260.153C280.626 262.253 281.91 263.549 283.878 263.549ZM283.962 262.649C282.57 262.649 281.622 261.713 281.622 260.153C281.622 258.629 282.582 257.705 283.926 257.705C284.718 257.705 285.618 258.089 286.122 258.797V261.533C285.642 262.325 284.742 262.649 283.962 262.649ZM288.921 263.429H289.905V254.381H288.921V263.429ZM294.721 265.529H295.669V262.661C296.281 263.357 297.181 263.549 297.913 263.549C299.881 263.549 301.165 262.253 301.165 260.153C301.165 258.077 299.869 256.805 297.973 256.805C297.241 256.805 296.293 257.021 295.669 257.657V256.937H294.721V265.529ZM297.829 262.649C297.049 262.649 296.149 262.325 295.669 261.533V258.797C296.173 258.089 297.073 257.705 297.865 257.705C299.209 257.705 300.169 258.629 300.169 260.153C300.169 261.713 299.221 262.649 297.829 262.649ZM302.655 263.429H303.639V254.381H302.655V263.429ZM308.382 263.549C309.114 263.549 310.014 263.357 310.626 262.661V263.429H311.574V256.937H310.626V257.657C310.002 257.021 309.054 256.805 308.322 256.805C306.426 256.805 305.13 258.077 305.13 260.153C305.13 262.253 306.414 263.549 308.382 263.549ZM308.466 262.649C307.074 262.649 306.126 261.713 306.126 260.153C306.126 258.629 307.086 257.705 308.43 257.705C309.222 257.705 310.122 258.089 310.626 258.797V261.533C310.146 262.325 309.246 262.649 308.466 262.649ZM313.413 263.429H314.361V258.665C314.841 258.185 315.549 257.705 316.473 257.705C317.385 257.705 318.297 258.041 318.297 259.709V263.429H319.245V259.625C319.245 257.417 318.117 256.817 316.653 256.817C315.789 256.817 314.997 257.141 314.361 257.681V256.937H313.413V263.429ZM222.2 276.937L220.556 281.785L218.684 276.889H218.108L216.26 281.761L214.628 276.937H213.596L215.96 283.513H216.5L218.372 278.629L220.28 283.513H220.844L223.196 276.937H222.2ZM224.749 276.049C225.145 276.049 225.469 275.725 225.469 275.317C225.469 274.909 225.145 274.597 224.749 274.597C224.341 274.597 224.005 274.909 224.005 275.317C224.005 275.725 224.341 276.049 224.749 276.049ZM224.233 283.429H225.217V276.937H224.233V283.429ZM229.24 283.561C229.708 283.561 230.224 283.501 230.596 283.381V282.469C230.176 282.625 229.708 282.673 229.408 282.673C228.496 282.673 228.304 282.229 228.304 281.269V277.825H230.608V276.937H228.304V274.381H227.356V276.937H226.288V277.825H227.356V281.365C227.356 282.793 227.764 283.561 229.24 283.561ZM231.779 283.429H232.727V278.665C233.207 278.185 233.915 277.705 234.839 277.705C235.751 277.705 236.663 278.041 236.663 279.709V283.429H237.611V279.625C237.611 277.417 236.483 276.817 235.019 276.817C234.155 276.817 233.363 277.141 232.727 277.681V274.381H231.779V283.429ZM247.273 279.001C248.065 278.761 248.533 278.125 248.533 277.129C248.533 275.761 247.609 274.969 245.809 274.969H242.281V283.429H246.217C248.281 283.429 249.169 282.589 249.169 281.005C249.169 279.937 248.485 279.253 247.273 279.001ZM243.289 275.905H245.821C246.841 275.905 247.489 276.313 247.489 277.177C247.489 278.173 246.937 278.641 245.653 278.641H243.289V275.905ZM246.217 282.493H243.289V279.577H245.905C247.477 279.577 248.125 280.117 248.125 281.005C248.125 281.977 247.597 282.493 246.217 282.493ZM256.749 283.429H257.853L254.013 274.885H253.413L249.585 283.429H250.689L251.601 281.389H255.825L256.749 283.429ZM253.713 276.469L254.493 278.293L255.393 280.453H252.045L252.933 278.293L253.713 276.469ZM265.173 274.969V281.473L259.461 274.861H258.945V283.429H259.953V276.925L265.665 283.525H266.181V274.969H265.173ZM274.432 283.429H275.536L271.696 274.885H271.096L267.268 283.429H268.372L269.284 281.389H273.508L274.432 283.429ZM271.396 276.469L272.176 278.293L273.076 280.453H269.728L270.616 278.293L271.396 276.469ZM281.67 283.561C282.138 283.561 282.654 283.501 283.026 283.381V282.469C282.606 282.625 282.138 282.673 281.838 282.673C280.926 282.673 280.734 282.229 280.734 281.269V277.825H283.038V276.937H280.734V274.381H279.786V276.937H278.718V277.825H279.786V281.365C279.786 282.793 280.194 283.561 281.67 283.561ZM290.156 280.213C290.156 278.209 289.028 276.805 286.82 276.805C284.888 276.805 283.532 278.125 283.532 280.165C283.532 282.229 284.888 283.549 286.952 283.549C288.344 283.549 289.304 283.057 289.904 282.253L289.22 281.689C288.716 282.301 287.96 282.661 287 282.661C285.656 282.661 284.672 281.833 284.528 280.477H290.156V280.213ZM286.832 277.693C288.272 277.693 289.016 278.497 289.136 279.649H284.552C284.744 278.425 285.656 277.693 286.832 277.693ZM294.343 283.549C295.075 283.549 295.975 283.357 296.587 282.661V283.429H297.535V276.937H296.587V277.657C295.963 277.021 295.015 276.805 294.283 276.805C292.387 276.805 291.091 278.077 291.091 280.153C291.091 282.253 292.375 283.549 294.343 283.549ZM294.427 282.649C293.035 282.649 292.087 281.713 292.087 280.153C292.087 278.629 293.047 277.705 294.391 277.705C295.183 277.705 296.083 278.089 296.587 278.797V281.533C296.107 282.325 295.207 282.649 294.427 282.649ZM306.934 276.805C305.878 276.805 305.062 277.177 304.462 277.717C304.078 277.045 303.43 276.805 302.578 276.805C301.798 276.805 300.982 277.093 300.322 277.681V276.937H299.374V283.429H300.322V278.641C300.85 278.101 301.605 277.693 302.338 277.693C303.214 277.693 303.91 278.113 303.91 279.673V283.429H304.858V279.697C304.858 279.253 304.822 278.857 304.75 278.533C305.254 278.041 305.902 277.693 306.706 277.693C307.57 277.693 308.494 278.029 308.494 279.853V283.429H309.442V279.709C309.442 277.405 308.242 276.805 306.934 276.805Z" fill="#373B53"/>
</svg>
