<svg width="96" height="145" viewBox="0 0 96 145" fill="none" xmlns="http://www.w3.org/2000/svg">
<path d="M65.999 107.021L65.999 103.272L54.7538 103.272L54.7538 107.021L65.999 107.021Z" fill="#FEFEFE"/>
<path d="M4.74161 103.272H0.993164V144.504H4.74161V103.272Z" fill="#FEFEFE"/>
<path d="M11.6475 107.021L11.6475 103.272L0.993258 103.272L0.993258 107.021L11.6475 107.021Z" fill="#FEFEFE"/>
<path d="M19.1444 103.272H15.396V144.504H19.1444V103.272Z" fill="#FEFEFE"/>
<path d="M26.6405 103.272H22.8921V144.504H26.6405V103.272Z" fill="#FEFEFE"/>
<path d="M34.1376 103.272H30.3892V144.504H34.1376V103.272Z" fill="#FEFEFE"/>
<path d="M39.7603 107.021L39.7603 103.272L30.3893 103.272L30.3893 107.021L39.7603 107.021Z" fill="#FEFEFE"/>
<path d="M41.6343 144.504L41.6343 140.756L30.3891 140.756L30.3891 144.504L41.6343 144.504Z" fill="#FEFEFE"/>
<path d="M49.1313 103.272H45.3828V144.504H49.1313V103.272Z" fill="#FEFEFE"/>
<path d="M58.5019 103.272H54.7534V144.504H58.5019V103.272Z" fill="#FEFEFE"/>
<path d="M65.9989 103.272H62.2505V144.504H65.9989V103.272Z" fill="#FEFEFE"/>
<path d="M73.4955 103.272H69.7471V144.504H73.4955V103.272Z" fill="#FEFEFE"/>
<path fill-rule="evenodd" clip-rule="evenodd" d="M79.1177 134.897L80.9923 144.504H77.1729L75.2983 134.897H79.1177Z" fill="#FEFEFE"/>
<path d="M95.9858 137.008L95.9858 133.259L84.7407 133.259L84.7407 137.008L95.9858 137.008Z" fill="#FEFEFE"/>
<path d="M95.9858 103.272H92.2373V133.259H95.9858V103.272Z" fill="#FEFEFE"/>
<path d="M88.4892 103.272H84.7407V133.259H88.4892V103.272Z" fill="#FEFEFE"/>
<path d="M65.999 144.504L65.999 140.756L54.7538 140.756L54.7538 144.504L65.999 144.504Z" fill="#FEFEFE"/>
<path fill-rule="evenodd" clip-rule="evenodd" d="M4.74161 51.9194V92.0271H92.2373V4.53141H4.74161V51.9194ZM92.2373 0.782959H95.9856V4.53141V92.0271V95.7754H92.2373H4.74161H0.993164V92.0271V51.9194V4.53141V0.782959H4.74161H92.2373Z" fill="#FEFEFE"/>
<path d="M23.5372 117.227C23.13 117.431 22.723 117.533 22.3152 117.533C21.5009 117.533 20.8386 116.998 20.3299 115.929C20.0242 115.216 19.8712 114.248 19.8712 113.026C19.8712 111.753 19.9731 110.404 20.1767 108.979C20.3803 107.553 20.5076 106.662 20.5586 106.305C21.3735 101.315 23.0538 95.3072 25.5995 88.2808C25.8542 87.466 26.1339 86.7022 26.4397 85.9892L27.0505 84.3091C27.2035 83.9018 27.2799 83.5708 27.2799 83.3163C27.2799 83.0616 27.1651 82.896 26.9361 82.8196C26.7068 82.7435 26.3376 82.7308 25.8288 82.7812L19.6423 83.545C19.4386 83.5961 19.184 83.6472 18.8785 83.6982C18.5727 83.7487 18.1908 83.7744 17.7326 83.7744C17.3764 83.7744 17.0966 83.7487 16.8924 83.6982C16.5873 83.5961 16.409 83.4436 16.3579 83.2399V83.0106C16.3579 82.7051 16.4853 82.5015 16.7398 82.3998C17.2491 82.2468 17.9619 82.0685 18.8785 81.8649C20.4571 81.6613 23.1811 81.3304 27.0505 80.8722C27.9673 80.8211 28.6034 80.3882 28.96 79.5737L31.0223 74.9911C31.9386 73.3618 32.6516 72.1399 33.1607 71.3251C33.3643 70.8668 33.619 70.5233 33.9245 70.2939C34.2298 70.065 34.51 69.9502 34.7647 69.9502C34.9683 69.9502 35.1335 70.0266 35.2608 70.1796C35.3882 70.3323 35.4517 70.5359 35.4517 70.7904C35.4517 71.0961 35.3245 71.5544 35.0698 72.165C34.6628 73.1835 33.7209 75.2204 32.2444 78.2754C32.1933 78.3769 32.0912 78.5936 31.9386 78.9247C31.7861 79.2555 31.7099 79.6501 31.7099 80.1084C32.2186 80.2103 32.5499 80.2613 32.7024 80.2613L33.5426 80.1845C35.9357 79.9299 38.2269 79.7263 40.4164 79.5737L47.4432 78.8863C48.0538 78.8352 48.5889 78.8226 49.0471 78.8483C49.5052 78.8736 49.8871 78.8863 50.1924 78.8863C50.498 78.8863 50.7016 79.1407 50.8037 79.6501C50.8037 80.0573 50.6505 80.312 50.3454 80.4139C49.8363 80.5154 49.1744 80.6175 48.3595 80.7196L31.9386 82.1704C31.3784 82.2215 30.9202 82.3614 30.564 82.5907C30.2074 82.8196 29.9274 83.1889 29.7238 83.6982C28.8075 85.7856 27.5854 89.1337 26.0578 93.7414C24.5304 98.3493 23.5121 101.825 23.0028 104.167C22.4936 106.204 22.1115 108.749 21.8571 111.804C21.8571 112.059 21.8317 112.313 21.7807 112.568C21.7296 112.823 21.7045 113.077 21.7045 113.332C21.7045 114.146 21.9843 114.783 22.5445 115.241C23.0538 115.19 23.4611 115.025 23.7666 114.745C24.0717 114.465 24.3647 114.159 24.6447 113.829C24.9249 113.497 25.1161 113.256 25.2176 113.103C26.7962 111.117 28.909 108.24 31.5567 104.472C31.964 103.912 32.8809 102.652 34.3064 100.691C35.4378 99.1362 38.8058 95.4933 39.4928 94.261C39.7985 94.1591 39.6273 95.1544 39.8818 95.3072C40.289 95.6127 40.3654 95.9946 40.1107 96.4529C40.1107 96.6054 40.0345 96.7584 39.8818 96.9112C38.9143 98.0311 37.0048 100.551 34.1534 104.472C33.6952 105.083 32.5499 106.649 30.7166 109.17C28.8838 111.69 27.2035 113.815 25.6759 115.547C25.1665 116.26 24.4538 116.82 23.5372 117.227ZM65.6506 95.3072C65.9561 95.5616 66.0835 95.8674 66.0325 96.2235C65.9307 96.6818 65.5742 97.2167 64.9633 97.8275C64.0974 98.6424 62.7354 99.7239 60.8774 101.073C59.0188 102.423 57.6568 103.276 56.7909 103.632C56.129 103.887 55.5945 104.014 55.1873 104.014C54.4745 104.014 53.8633 103.772 53.354 103.289C52.8448 102.805 52.4887 102.13 52.2851 101.264C52.0304 100.042 51.954 98.4641 52.0557 96.5291C52.0557 95.6637 52.0304 95.0015 51.9793 94.5432C51.9793 94.4417 51.9156 94.3522 51.7884 94.276C51.6611 94.1997 51.5464 94.2123 51.4449 94.3144C51.0373 94.5689 50.7321 94.8236 50.5285 95.0782C49.4079 96.3003 48.288 97.8786 47.1678 99.8134C45.4876 102.461 43.8073 105.618 42.1271 109.284L40.3706 112.568C40.0649 113.23 39.6572 113.765 39.1485 114.172C38.7917 114.427 38.4862 114.554 38.2315 114.554C37.6718 114.554 37.2641 114.223 37.0099 113.561C36.8569 112.95 36.7805 112.288 36.7805 111.575C36.6786 109.386 36.908 106.484 37.4681 102.868C37.5696 102.207 37.7733 101.214 38.079 99.8898L38.6134 96.9873C38.6645 96.8348 38.7407 96.5674 38.8428 96.1855C38.9443 95.8036 38.921 95.4507 38.9953 95.1544C39.4691 93.2622 39.6904 92.2873 40.4848 90.1137C44.1916 79.9731 49.2198 69.7313 54.7779 60.4888C54.9533 60.1967 55.5881 59.2172 56.8399 57.6633C57.0656 57.3829 57.4254 57.1793 57.8327 56.9757C57.8837 56.9246 57.9601 56.8993 58.062 56.8993C58.2656 56.8993 58.4445 56.963 58.5967 57.0902C58.7486 57.2177 58.8254 57.3576 58.8254 57.5101C58.8254 58.0705 58.7595 58.4725 58.6728 58.7322C58.5048 59.2363 58.2732 60.0194 57.8327 61.0238C56.0842 65.0096 50.6684 75.4878 49.1155 78.4664C47.5624 81.445 45.8949 84.3091 44.1124 87.0587C43.2981 88.3823 42.6616 89.808 42.2033 91.3358C40.421 97.0894 39.3011 102.461 38.8428 107.451C38.7917 107.909 38.7664 108.571 38.7664 109.437C38.7664 109.487 38.8171 109.819 38.9192 110.43C39.4283 110.073 39.7845 109.653 39.9885 109.17C40.1921 108.686 40.3447 108.342 40.4468 108.138C42.2797 104.32 44.0619 101.035 45.7928 98.2858C46.9638 96.3003 48.0844 94.7474 49.1533 93.6268C49.7645 92.9141 50.4517 92.3032 51.2155 91.7939C51.5213 91.5392 51.9032 91.412 52.3612 91.412C53.2778 91.412 53.8123 91.9213 53.9652 92.9398C54.0163 93.1434 54.0416 93.4743 54.0416 93.9323V95.6127C54.0416 95.9689 54.0289 96.4018 54.0032 96.9112C53.9779 97.4203 53.9905 98.0058 54.0416 98.6677C54.0416 99.584 54.0926 100.246 54.1941 100.654C54.3471 101.519 54.7035 101.952 55.2637 101.952C55.5692 101.952 55.8745 101.876 56.18 101.722C57.0455 101.366 58.3695 100.526 60.1514 99.2022C61.9337 97.8786 63.1811 96.8348 63.8938 96.071C64.1485 95.7653 64.4289 95.4855 64.734 95.2308C64.9887 95.0272 65.2944 95.0525 65.6506 95.3072ZM68.7279 111.788C64.01 111.788 60.641 105.146 62.4729 99.966C63.4404 96.9112 64.9171 94.4417 66.903 92.5577C67.6668 91.8449 68.3922 91.2974 69.0798 90.9153C69.7668 90.5334 70.5435 90.3425 71.4092 90.3425C72.1726 90.3425 72.7714 90.5971 73.2037 91.1065C73.6367 91.6156 73.8023 92.3032 73.7004 93.1685C73.4968 94.6963 72.8602 96.0199 71.7911 97.1405C70.5182 98.5151 69.3471 99.5971 68.2776 100.386C67.2085 101.175 65.9864 101.646 64.6118 101.799C64.3063 101.85 64.1017 102.08 64.0005 102.486C63.0177 106.449 66.7476 110.411 69.2623 109.803C72.3782 109.111 75.7251 106.795 78.0456 104.686L83.468 99.5682L84.9194 98.1935C85.326 97.8374 85.7085 97.8374 86.0651 98.1935C86.4213 98.5497 86.4971 98.932 86.2941 99.3392C86.1919 99.5428 85.9883 99.7975 85.6832 100.103C82.6274 103.209 80.0821 105.602 78.0456 107.283C76.2634 108.759 74.4554 109.93 72.6224 110.796C71.0952 111.457 69.7968 111.788 68.7279 111.788ZM65.6045 99.5079C68.2012 98.133 69.9837 96.5801 70.9511 94.8489C71.4092 94.1359 71.6381 93.5504 71.6381 93.0924C71.5871 92.583 71.3583 92.3794 70.9511 92.4811C70.4924 92.532 70.0342 92.7105 69.5759 93.016C67.5396 94.3396 66.0117 96.3508 64.9933 99.0496C64.9933 99.3043 65.0443 99.4315 65.1464 99.4315C65.4009 99.5336 65.5537 99.5587 65.6045 99.5079Z" fill="#FFBB00"/>
<path d="M26.6406 107.021L26.6406 103.272L15.3957 103.272L15.3957 107.021L26.6406 107.021Z" fill="#FEFEFE"/>
<path d="M53.1445 107.021L53.1445 103.272L41.3695 103.272L41.3695 107.021L53.1445 107.021Z" fill="#FEFEFE"/>
<path d="M80.9926 103.272H77.2441V134.087H80.9926V103.272Z" fill="#FEFEFE"/>
<path d="M80.9922 107.021L80.9922 103.272L69.747 103.272L69.747 107.021L80.9922 107.021Z" fill="#FEFEFE"/>
<path d="M11.6475 137.007L11.6475 133.259L0.993258 133.259L0.993258 137.007L11.6475 137.007Z" fill="#FEFEFE"/>
<path d="M26.6406 137.008L26.6406 133.259L15.3957 133.259L15.3957 137.008L26.6406 137.008Z" fill="#FEFEFE"/>
<path d="M80.9922 137.007L80.9922 133.259L69.747 133.259L69.747 137.007L80.9922 137.007Z" fill="#FEFEFE"/>
<path d="M92.2372 137.008H88.4888V144.504H92.2372V137.008Z" fill="#FEFEFE"/>
</svg>
