<svg width="12" height="14" viewBox="0 0 12 14" fill="none" xmlns="http://www.w3.org/2000/svg">
<path d="M1.29022 7.43213L5.88522 2.83613C6.30718 2.41417 6.87948 2.17712 7.47622 2.17712C8.07296 2.17712 8.64526 2.41417 9.06722 2.83613C9.48918 3.25809 9.72623 3.83039 9.72623 4.42713C9.72623 5.02387 9.48918 5.59617 9.06722 6.01813L3.76522 11.3211C3.69607 11.3928 3.61333 11.45 3.52185 11.4893C3.43037 11.5287 3.33196 11.5494 3.23238 11.5503C3.13279 11.5512 3.03403 11.5323 2.94184 11.4946C2.84965 11.457 2.76588 11.4013 2.69543 11.3309C2.62498 11.2605 2.56925 11.1768 2.53149 11.0847C2.49374 10.9925 2.47472 10.8938 2.47553 10.7942C2.47635 10.6946 2.49699 10.5962 2.53626 10.5047C2.57552 10.4131 2.63262 10.3303 2.70422 10.2611L8.00722 4.95713C8.1397 4.81495 8.21182 4.62691 8.20839 4.43261C8.20496 4.23831 8.12625 4.05292 7.98884 3.91551C7.85143 3.7781 7.66604 3.69938 7.47174 3.69595C7.27744 3.69253 7.08939 3.76465 6.94722 3.89713L1.64322 9.20013C1.22126 9.62209 0.984203 10.1944 0.984203 10.7911C0.984203 11.3879 1.22126 11.9602 1.64322 12.3821C2.06518 12.8041 2.63748 13.0411 3.23422 13.0411C3.83096 13.0411 4.40326 12.8041 4.82522 12.3821L10.1292 7.07913C10.8326 6.37578 11.2277 5.42182 11.2277 4.42713C11.2277 3.43244 10.8326 2.47848 10.1292 1.77513C9.42586 1.07178 8.47191 0.676636 7.47722 0.676636C6.48252 0.676636 5.52857 1.07178 4.82522 1.77513L0.229217 6.37113C0.157553 6.44028 0.100378 6.52301 0.0610285 6.6145C0.0216792 6.70598 0.000943443 6.80439 3.14515e-05 6.90397C-0.00088054 7.00355 0.0180495 7.10232 0.0557167 7.19451C0.0933839 7.2867 0.149034 7.37047 0.21942 7.44092C0.289806 7.51137 0.373518 7.5671 0.465672 7.60485C0.557827 7.64261 0.656577 7.66163 0.756161 7.66081C0.855746 7.66 0.95417 7.63935 1.04569 7.60009C1.13721 7.56083 1.22 7.50373 1.28922 7.43213H1.29022Z" fill="black"/>
</svg>
