<svg width="33" height="32" viewBox="0 0 33 32" fill="none" xmlns="http://www.w3.org/2000/svg">
<path d="M31.8347 12.8723L28.3682 6.92973C27.8306 6.00808 26.8439 5.44135 25.7769 5.44135H7.22311C6.15611 5.44135 5.16941 6.00808 4.63177 6.92973L1.16529 12.8723C0.478603 14.0495 0.67165 15.5416 1.6353 16.5052L15.0858 29.9557C15.8668 30.7368 17.1332 30.7368 17.9142 29.9557L31.3647 16.5052C32.3284 15.5416 32.5214 14.0495 31.8347 12.8723Z" fill="#4193D3"/>
<path d="M25.784 20.3715C26.1169 19.5273 27.3116 19.5273 27.6445 20.3715L28.3328 22.1166C28.4344 22.3743 28.6384 22.5783 28.8962 22.6799L30.6413 23.3682C31.4854 23.7011 31.4854 24.8958 30.6413 25.2287L28.8962 25.917C28.6384 26.0186 28.4344 26.2226 28.3328 26.4804L27.6445 28.2255C27.3116 29.0696 26.1169 29.0696 25.784 28.2255L25.0958 26.4804C24.9941 26.2226 24.7901 26.0186 24.5324 25.917L22.7873 25.2287C21.9431 24.8958 21.9431 23.7011 22.7873 23.3682L24.5324 22.6799C24.7901 22.5783 24.9941 22.3743 25.0958 22.1166L25.784 20.3715Z" fill="#7CC6DE"/>
<path d="M12.4269 3.08577C12.7598 2.24162 13.9545 2.24162 14.2874 3.08577L15.6424 6.52131C15.744 6.77903 15.948 6.98304 16.2057 7.08468L19.6413 8.43964C20.4854 8.77257 20.4854 9.96725 19.6413 10.3002L16.2057 11.6551C15.948 11.7568 15.744 11.9608 15.6424 12.2185L14.2874 15.654C13.9545 16.4982 12.7598 16.4982 12.4269 15.654L11.0719 12.2185C10.9703 11.9608 10.7663 11.7568 10.5086 11.6551L7.07301 10.3002C6.22886 9.96725 6.22886 8.77257 7.07301 8.43964L10.5086 7.08468C10.7663 6.98304 10.9703 6.77903 11.0719 6.52131L12.4269 3.08577Z" fill="#7CC6DE"/>
</svg>
