<svg width="30" height="31" viewBox="0 0 30 31" fill="none" xmlns="http://www.w3.org/2000/svg">
<path d="M15 0.0395508C6.71562 0.0395508 0 6.75518 0 15.0395C0 23.3239 6.71562 30.0395 15 30.0395C23.2844 30.0395 30 23.3239 30 15.0395C30 6.75518 23.2844 0.0395508 15 0.0395508ZM11.3281 21.2567H8.29062V11.4817H11.3281V21.2567ZM9.79062 10.2817C8.83125 10.2817 8.21094 9.60205 8.21094 8.76143C8.21094 7.90361 8.85 7.24424 9.82969 7.24424C10.8094 7.24424 11.4094 7.90361 11.4281 8.76143C11.4281 9.60205 10.8094 10.2817 9.79062 10.2817ZM22.4219 21.2567H19.3844V15.8396C19.3844 14.5786 18.9437 13.7224 17.8453 13.7224C17.0063 13.7224 16.5078 14.3021 16.2875 14.8599C16.2062 15.0583 16.1859 15.3396 16.1859 15.6192V21.2552H13.1469V14.5989C13.1469 13.3786 13.1078 12.3583 13.0672 11.4802H15.7062L15.8453 12.838H15.9062C16.3062 12.2005 17.2859 11.2599 18.925 11.2599C20.9234 11.2599 22.4219 12.5989 22.4219 15.477V21.2567Z" fill="white"/>
</svg>
