<svg width="30" height="31" viewBox="0 0 30 31" fill="none" xmlns="http://www.w3.org/2000/svg">
<path d="M15 0.0395508C6.71652 0.0395508 0 6.75607 0 15.0396C0 23.323 6.71652 30.0396 15 30.0396C23.2835 30.0396 30 23.323 30 15.0396C30 6.75607 23.2835 0.0395508 15 0.0395508ZM22.2087 11.3465C22.2187 11.5038 22.2187 11.6679 22.2187 11.8286C22.2187 16.7438 18.4754 22.4056 11.635 22.4056C9.52567 22.4056 7.57031 21.7929 5.92299 20.7382C6.22433 20.7717 6.51228 20.7851 6.82031 20.7851C8.56138 20.7851 10.1618 20.1958 11.4375 19.198C9.80357 19.1646 8.4308 18.0931 7.96205 16.6199C8.5346 16.7036 9.05022 16.7036 9.63951 16.5529C8.79819 16.382 8.04199 15.9251 7.49938 15.2598C6.95678 14.5945 6.66123 13.7619 6.66295 12.9034V12.8565C7.15513 13.1344 7.73438 13.3052 8.3404 13.3286C7.83095 12.9891 7.41314 12.5291 7.12403 11.9894C6.83493 11.4498 6.68345 10.8471 6.68304 10.2349C6.68304 9.54178 6.86384 8.90897 7.18862 8.35986C8.12244 9.50943 9.28771 10.4496 10.6087 11.1193C11.9297 11.7891 13.3768 12.1733 14.856 12.2471C14.3304 9.71924 16.2188 7.67348 18.4888 7.67348C19.5603 7.67348 20.5246 8.12214 21.2042 8.84535C22.0446 8.68799 22.8482 8.37326 23.5647 7.95138C23.2868 8.81187 22.7042 9.53843 21.9308 9.99714C22.6808 9.91678 23.404 9.70919 24.0737 9.4179C23.5681 10.1612 22.9353 10.8208 22.2087 11.3465Z" fill="white"/>
</svg>
