<svg width="31" height="30" viewBox="0 0 31 30" fill="none" xmlns="http://www.w3.org/2000/svg">
<path d="M18.0047 14.7391L14.4953 13.1016C14.1891 12.9594 13.9375 13.1187 13.9375 13.4578V16.5422C13.9375 16.8813 14.1891 17.0406 14.4953 16.8984L18.0031 15.2609C18.3109 15.1172 18.3109 14.8828 18.0047 14.7391ZM15.5 0C7.21562 0 0.5 6.71562 0.5 15C0.5 23.2844 7.21562 30 15.5 30C23.7844 30 30.5 23.2844 30.5 15C30.5 6.71562 23.7844 0 15.5 0ZM15.5 21.0937C7.82188 21.0937 7.6875 20.4016 7.6875 15C7.6875 9.59844 7.82188 8.90625 15.5 8.90625C23.1781 8.90625 23.3125 9.59844 23.3125 15C23.3125 20.4016 23.1781 21.0937 15.5 21.0937Z" fill="#1D337A"/>
</svg>
