<svg width="31" height="32" viewBox="0 0 31 32" fill="none" xmlns="http://www.w3.org/2000/svg">
<path d="M0.377057 4.78578C0.531955 3.06636 1.65993 1.71429 3.35673 1.39608C5.54365 0.985954 9.32393 0.548462 15.5 0.548462C21.6761 0.548462 25.4564 0.985954 27.6433 1.39608C29.3401 1.71429 30.468 3.06636 30.6229 4.78577C30.8101 6.86325 31 10.3702 31 16.0485C31 21.7267 30.8101 25.2337 30.6229 27.3111C30.468 29.0306 29.3401 30.3826 27.6433 30.7008C25.4564 31.111 21.6761 31.5485 15.5 31.5485C9.32393 31.5485 5.54365 31.111 3.35673 30.7008C1.65993 30.3826 0.531955 29.0306 0.377057 27.3111C0.189902 25.2337 0 21.7267 0 16.0485C0 10.3702 0.189902 6.86326 0.377057 4.78578Z" fill="#4193D3"/>
<path d="M12.4788 23.6829C12.5063 24.2718 12.7591 24.8192 13.3115 25.0251C13.7681 25.1952 14.4663 25.3484 15.5 25.3484C16.5337 25.3484 17.2319 25.1952 17.6885 25.0251C18.2409 24.8192 18.4937 24.2718 18.5212 23.6829C18.5597 22.8589 18.6 21.2979 18.6 18.3734C18.6 15.449 18.5597 13.888 18.5212 13.064C18.4937 12.4751 18.2409 11.9277 17.6885 11.7218C17.2319 11.5517 16.5337 11.3984 15.5 11.3984C14.4663 11.3984 13.7681 11.5517 13.3115 11.7218C12.7591 11.9277 12.5063 12.4751 12.4788 13.064C12.4403 13.888 12.4 15.449 12.4 18.3734C12.4 21.2979 12.4403 22.8589 12.4788 23.6829Z" fill="#7CC7DE"/>
<path d="M20.2484 23.2726C20.275 24.1194 20.6314 24.9323 21.4509 25.1474C21.8883 25.2623 22.4748 25.3484 23.25 25.3484C24.0252 25.3484 24.6117 25.2623 25.0491 25.1474C25.8686 24.9323 26.225 24.1194 26.2516 23.2726C26.2945 21.9072 26.35 19.4793 26.35 16.0484C26.35 12.6176 26.2945 10.1897 26.2516 8.82426C26.225 7.97746 25.8686 7.16464 25.0491 6.94947C24.6117 6.83461 24.0252 6.74845 23.25 6.74845C22.4748 6.74845 21.8883 6.83461 21.4509 6.94947C20.6314 7.16464 20.275 7.97746 20.2484 8.82426C20.2055 10.1897 20.15 12.6176 20.15 16.0484C20.15 19.4793 20.2055 21.9072 20.2484 23.2726Z" fill="#7CC7DE"/>
<path d="M4.71285 23.684C4.74627 24.2726 5.00911 24.8192 5.56151 25.0251C6.01813 25.1952 6.71627 25.3484 7.74999 25.3484C8.78372 25.3484 9.48186 25.1952 9.93848 25.0251C10.4909 24.8192 10.7537 24.2726 10.7871 23.684C10.8201 23.1044 10.85 22.1722 10.85 20.6984C10.85 19.2247 10.8201 18.2925 10.7871 17.7129C10.7537 17.1243 10.4909 16.5777 9.93847 16.3718C9.48186 16.2017 8.78372 16.0484 7.74999 16.0484C6.71627 16.0484 6.01813 16.2017 5.56151 16.3718C5.00911 16.5777 4.74627 17.1243 4.71285 17.7129C4.67994 18.2925 4.64999 19.2247 4.64999 20.6984C4.64999 22.1722 4.67994 23.1044 4.71285 23.684Z" fill="#7CC7DE"/>
</svg>
