<svg width="31" height="30" viewBox="0 0 31 30" fill="none" xmlns="http://www.w3.org/2000/svg">
<path d="M15.5 0C7.21562 0 0.5 6.71562 0.5 15C0.5 23.2844 7.21562 30 15.5 30C23.7844 30 30.5 23.2844 30.5 15C30.5 6.71562 23.7844 0 15.5 0ZM11.8281 21.2172H8.79062V11.4422H11.8281V21.2172ZM10.2906 10.2422C9.33125 10.2422 8.71094 9.5625 8.71094 8.72187C8.71094 7.86406 9.35 7.20469 10.3297 7.20469C11.3094 7.20469 11.9094 7.86406 11.9281 8.72187C11.9281 9.5625 11.3094 10.2422 10.2906 10.2422ZM22.9219 21.2172H19.8844V15.8C19.8844 14.5391 19.4437 13.6828 18.3453 13.6828C17.5063 13.6828 17.0078 14.2625 16.7875 14.8203C16.7062 15.0188 16.6859 15.3 16.6859 15.5797V21.2156H13.6469V14.5594C13.6469 13.3391 13.6078 12.3187 13.5672 11.4406H16.2062L16.3453 12.7984H16.4062C16.8062 12.1609 17.7859 11.2203 19.425 11.2203C21.4234 11.2203 22.9219 12.5594 22.9219 15.4375V21.2172Z" fill="#1D337A"/>
</svg>
