<svg width="29" height="32" viewBox="0 0 29 32" fill="none" xmlns="http://www.w3.org/2000/svg">
<path d="M10.1433 0.716514C10.1433 0.716514 8.26042 1.43665 4.79971 4.89736C1.35168 8.34539 0.628601 10.2315 0.623352 10.2453C0.539318 11.8883 0.487183 13.8098 0.487183 16.0485C0.487183 22.7281 0.951309 26.5836 1.34207 28.646C1.5931 29.9709 2.62692 30.879 3.96763 31.0237C5.77739 31.219 8.97093 31.4294 14.33 31.4294C19.6891 31.4294 22.8826 31.219 24.6924 31.0237C26.0331 30.879 27.0669 29.9709 27.318 28.646C27.7087 26.5836 28.1728 22.7281 28.1728 16.0485C28.1728 9.36897 27.7087 5.51344 27.318 3.45104C27.0669 2.12612 26.0331 1.21801 24.6924 1.07334C22.8826 0.878054 19.6891 0.667603 14.33 0.667603C12.7537 0.667603 11.3647 0.685839 10.1433 0.716514Z" fill="#7CC6DE"/>
<path d="M0.623272 10.2453C2.83778 10.8022 5.4524 10.8392 7.71071 10.1493C8.66544 9.85766 9.40991 9.11388 9.73214 8.16903C10.5349 5.81524 10.7332 2.9341 10.1432 0.716431C10.1432 0.716431 8.26037 1.43657 4.79966 4.89727C1.33895 8.35798 0.623272 10.2453 0.623272 10.2453Z" fill="#4193D3"/>
</svg>
