<svg width="33" height="32" viewBox="0 0 33 32" fill="none" xmlns="http://www.w3.org/2000/svg">
<path d="M14.4987 1.60967C15.3718 0.0360366 17.6282 0.0360355 18.5013 1.60966L22.0019 7.91861L29.0969 9.22451C30.8943 9.55535 31.6007 11.7609 30.3318 13.0801L25.4023 18.2048L26.333 25.2546C26.5704 27.0523 24.7355 28.4045 23.0965 27.6397L16.5 24.562L9.90352 27.6397C8.26445 28.4045 6.42961 27.0523 6.66695 25.2546L7.59765 18.2048L2.66818 13.0801C1.39924 11.7609 2.10564 9.55534 3.90307 9.22451L10.998 7.91861L14.4987 1.60967Z" fill="#4193D3"/>
<path d="M9.53626 2.52875C9.16713 1.38026 8.15645 0.810769 7.14423 1.47201C6.94407 1.60276 6.72386 1.75405 6.48205 1.92909C6.24023 2.10413 6.02777 2.26604 5.8411 2.41529C4.8971 3.17007 5.12841 4.30371 6.11067 5.00838L7.79246 6.2149C8.28116 6.5655 8.88158 6.82846 9.41952 6.55876C9.51706 6.50986 9.61896 6.44908 9.72319 6.37363C9.82741 6.29819 9.91692 6.22042 9.99374 6.14311C10.4174 5.71673 10.3519 5.06655 10.1683 4.49514L9.53626 2.52875Z" fill="#7CC6DE"/>
<path d="M18.617 29.3938C18.9959 30.5391 18.5143 31.5917 17.3052 31.6495C17.0662 31.661 16.7988 31.6675 16.4999 31.6675C16.201 31.6675 15.9336 31.661 15.6945 31.6495C14.4855 31.5917 14.0038 30.5391 14.3827 29.3938L15.0315 27.4328C15.2201 26.863 15.5507 26.2987 16.145 26.2018C16.2527 26.1843 16.371 26.1738 16.4999 26.1738C16.6287 26.1738 16.747 26.1843 16.8548 26.2018C17.4491 26.2987 17.7797 26.863 17.9682 27.4328L18.617 29.3938Z" fill="#7CC6DE"/>
<path d="M25.9987 1.47201C24.9865 0.810769 23.9758 1.38026 23.6066 2.52875L22.9746 4.49514C22.791 5.06655 22.7255 5.71673 23.1492 6.14311C23.226 6.22042 23.3155 6.29819 23.4197 6.37363C23.524 6.44908 23.6259 6.50986 23.7234 6.55876C24.2613 6.82846 24.8617 6.5655 25.3505 6.2149L27.0322 5.00838C28.0145 4.30371 28.2458 3.17007 27.3018 2.41529C27.1151 2.26604 26.9027 2.10413 26.6609 1.92909C26.4191 1.75405 26.1988 1.60276 25.9987 1.47201Z" fill="#7CC6DE"/>
<path d="M30.6851 17.6107C31.8955 17.6055 32.7515 18.3872 32.433 19.5507C32.3701 19.7807 32.2937 20.0361 32.2014 20.3194C32.109 20.6026 32.0201 20.8539 31.9353 21.0769C31.5065 22.2046 30.3529 22.3358 29.3767 21.6228L27.7052 20.4021C27.2195 20.0474 26.783 19.5597 26.8742 18.9666C26.8907 18.8591 26.9173 18.7438 26.9571 18.6217C26.9969 18.4996 27.0435 18.3908 27.0935 18.2941C27.3696 17.7609 28.0105 17.622 28.6127 17.6195L30.6851 17.6107Z" fill="#7CC6DE"/>
<path d="M0.566955 19.5507C0.248538 18.3872 1.10448 17.6055 2.31488 17.6107L4.38728 17.6195C4.98949 17.622 5.63038 17.7609 5.90648 18.2941C5.95654 18.3908 6.00311 18.4996 6.04292 18.6217C6.08273 18.7438 6.10927 18.8591 6.12581 18.9666C6.21702 19.5597 5.78046 20.0474 5.29477 20.4021L3.62334 21.6228C2.64714 22.3358 1.4935 22.2046 1.06471 21.0769C0.979916 20.8539 0.891015 20.6026 0.79865 20.3194C0.706285 20.0361 0.629918 19.7807 0.566955 19.5507Z" fill="#7CC6DE"/>
</svg>
