<svg width="31" height="32" viewBox="0 0 31 32" fill="none" xmlns="http://www.w3.org/2000/svg">
<path fill-rule="evenodd" clip-rule="evenodd" d="M9.90712 3.33846C10.3893 1.68513 11.9049 0.548462 13.6271 0.548462H17.3729C19.0952 0.548462 20.6107 1.68513 21.0929 3.33846L22.413 7.86446L19.437 8.73246L18.1169 4.20646C18.0205 3.87579 17.7174 3.64846 17.3729 3.64846H13.6271C13.2827 3.64846 12.9796 3.87579 12.8831 4.20646L11.563 8.73246L8.58703 7.86446L9.90712 3.33846Z" fill="#4193D3"/>
<path d="M0.329262 10.0473C0.499579 8.26411 1.72016 6.90847 3.49152 6.64219C5.6812 6.31304 9.41473 5.97351 15.5 5.97351C21.5853 5.97351 25.3188 6.31304 27.5085 6.64219C29.2798 6.90847 30.5004 8.26411 30.6707 10.0473C30.8411 11.8308 31 14.6076 31 18.761C31 22.9144 30.8411 25.6913 30.6707 27.4748C30.5004 29.2579 29.2798 30.6136 27.5085 30.8798C25.3188 31.209 21.5853 31.5485 15.5 31.5485C9.41473 31.5485 5.6812 31.209 3.49153 30.8798C1.72016 30.6136 0.499579 29.2579 0.329262 27.4748C0.158911 25.6913 0 22.9144 0 18.761C0 14.6076 0.158911 11.8308 0.329262 10.0473Z" fill="#7CC6DE"/>
<path fill-rule="evenodd" clip-rule="evenodd" d="M30.921 14.0654C30.9862 15.8419 29.825 17.4223 28.1169 17.9147C24.1411 19.0608 18.0191 20.6984 15.5 20.6984C12.9809 20.6984 6.85892 19.0608 2.88312 17.9147C1.175 17.4224 0.0138132 15.8419 0.0789969 14.0654C0.141331 12.3666 0.23349 11.0499 0.329266 10.0471C0.499583 8.26399 1.72017 6.90834 3.49153 6.64207C5.6812 6.31292 9.41474 5.97339 15.5 5.97339C21.5853 5.97339 25.3188 6.31292 27.5085 6.64207C29.2798 6.90834 30.5004 8.26399 30.6707 10.0471C30.7665 11.0499 30.8587 12.3666 30.921 14.0654Z" fill="#4193D3"/>
</svg>
