<svg width="31" height="30" viewBox="0 0 31 30" fill="none" xmlns="http://www.w3.org/2000/svg">
<path d="M15.5 0C7.21652 0 0.5 6.71652 0.5 15C0.5 23.2835 7.21652 30 15.5 30C23.7835 30 30.5 23.2835 30.5 15C30.5 6.71652 23.7835 0 15.5 0ZM22.7087 11.3069C22.7187 11.4643 22.7187 11.6283 22.7187 11.7891C22.7187 16.7042 18.9754 22.3661 12.135 22.3661C10.0257 22.3661 8.07031 21.7533 6.42299 20.6987C6.72433 20.7321 7.01228 20.7455 7.32031 20.7455C9.06138 20.7455 10.6618 20.1562 11.9375 19.1585C10.3036 19.125 8.9308 18.0536 8.46205 16.5804C9.0346 16.6641 9.55022 16.6641 10.1395 16.5134C9.29819 16.3425 8.54199 15.8855 7.99938 15.2203C7.45678 14.555 7.16123 13.7223 7.16295 12.8638V12.817C7.65513 13.0949 8.23438 13.2656 8.8404 13.2891C8.33095 12.9495 7.91314 12.4895 7.62403 11.9499C7.33493 11.4102 7.18345 10.8075 7.18304 10.1953C7.18304 9.50223 7.36384 8.86942 7.68862 8.32031C8.62244 9.46988 9.78771 10.4101 11.1087 11.0798C12.4297 11.7495 13.8768 12.1338 15.356 12.2076C14.8304 9.67969 16.7188 7.63393 18.9888 7.63393C20.0603 7.63393 21.0246 8.08259 21.7042 8.8058C22.5446 8.64844 23.3482 8.3337 24.0647 7.91183C23.7868 8.77232 23.2042 9.49888 22.4308 9.95759C23.1808 9.87723 23.904 9.66964 24.5737 9.37835C24.0681 10.1217 23.4353 10.7812 22.7087 11.3069Z" fill="#1D337A"/>
</svg>
