<svg width="30" height="31" viewBox="0 0 30 31" fill="none" xmlns="http://www.w3.org/2000/svg">
<path d="M17.5047 14.7786L13.9953 13.1411C13.6891 12.9989 13.4375 13.1583 13.4375 13.4974V16.5817C13.4375 16.9208 13.6891 17.0802 13.9953 16.938L17.5031 15.3005C17.8109 15.1567 17.8109 14.9224 17.5047 14.7786ZM15 0.0395508C6.71562 0.0395508 0 6.75518 0 15.0395C0 23.3239 6.71562 30.0395 15 30.0395C23.2844 30.0395 30 23.3239 30 15.0395C30 6.75518 23.2844 0.0395508 15 0.0395508ZM15 21.1333C7.32188 21.1333 7.1875 20.4411 7.1875 15.0395C7.1875 9.63799 7.32188 8.9458 15 8.9458C22.6781 8.9458 22.8125 9.63799 22.8125 15.0395C22.8125 20.4411 22.6781 21.1333 15 21.1333Z" fill="white"/>
</svg>
