<svg width="62" height="67" viewBox="0 0 62 67" fill="none" xmlns="http://www.w3.org/2000/svg">
<path fill-rule="evenodd" clip-rule="evenodd" d="M10.1478 48.5299C11.4792 49.2122 12.3309 50.6571 12.3309 52.1936C12.3309 54.4272 10.5341 56.1437 8.34851 56.1437L0.504089 56.2196L0.528875 42.1461L7.00789 42.0702C9.19359 42.0702 10.9656 43.8811 10.9656 46.1149C10.9656 47.0102 10.6784 47.8246 10.1478 48.5299V48.5299ZM54.0092 44.9508L49.1605 56.2192H47.0114L53.0671 42.1461H54.9514L61.007 56.2192H58.8579L54.0092 44.9508V44.9508ZM41.8401 53.2076V42.1461H43.8073V56.2192H41.654L33.9715 45.2496V56.2192H32.0041V42.1461H34.1598L41.8401 53.2076ZM21.8023 44.9508L16.9536 56.2192H14.8045L20.86 42.1461H22.7444L28.8 56.2192H26.6509L21.8023 44.9508ZM2.49613 48.1775L7.00789 48.1015C8.10709 48.1015 8.9983 47.2383 8.9983 46.1149C8.9983 44.9914 8.10718 44.0807 7.00789 44.0807L2.49613 44.1566V48.1775V48.1775ZM2.49613 50.1879L2.47134 54.209L8.34851 54.1331C9.44771 54.1331 10.3636 53.3171 10.3636 52.1936C10.3636 51.0702 9.47259 50.112 8.37329 50.112L2.49613 50.1879V50.1879Z" fill="#1D337A"/>
<path fill-rule="evenodd" clip-rule="evenodd" d="M37.1018 61.0022V62.6466H40.0788V63.587H37.1018V65.3308H40.629V66.2713H36.1815V60.0618H40.0788V61.0022H37.1018ZM56.0294 64.8309L56.8474 64.3482L56.9129 64.5571C57.3031 65.8006 59.8124 65.7184 59.8124 64.5684C59.8124 63.7866 58.878 63.7552 58.315 63.6155C57.3248 63.3695 56.2412 63.0256 56.2412 61.7637C56.2412 59.7491 59.2564 59.5814 60.2361 61.0642L60.34 61.2216L59.5449 61.6904L59.4537 61.5591C58.9737 60.8677 57.1631 60.8173 57.1631 61.7637C57.1631 62.4576 57.9022 62.5437 58.4175 62.6703C59.5055 62.9376 60.7367 63.1202 60.7367 64.5684C60.7367 66.9318 56.8142 66.9725 56.0808 64.9712L56.0294 64.8309V64.8309ZM48.0866 65.3308H51.2412V66.2713H47.1664V60.22H48.0866V65.3308ZM28.6282 64.014L26.4648 64.0312V63.0654C27.5334 63.0637 28.602 63.0687 29.6706 63.0687V63.2456C29.6706 64.9919 28.3698 66.4294 26.6379 66.4294C24.9063 66.4294 23.6054 64.9919 23.6054 63.2456C23.6054 61.4992 24.9062 60.0618 26.6379 60.0618C27.4722 60.0618 28.2531 60.4003 28.8246 61.0216L28.9396 61.1466L28.2873 61.8124L28.1651 61.6776C27.7673 61.2384 27.2233 61.0022 26.6379 61.0022C25.4145 61.0022 24.5258 62.019 24.5258 63.2456C24.5258 64.4723 25.4145 65.489 26.6379 65.489C27.5697 65.489 28.3389 64.8898 28.6282 64.014V64.014ZM3.03023 61.565L1.00524 66.2713H0L2.60379 60.22H3.45686L6.06065 66.2713H5.05541L3.03023 61.565V61.565ZM16.4211 64.7744V60.22H17.3413V66.2713H16.3659L13.0388 61.7155V66.2713H12.1187V60.22H13.0947L16.4211 64.7744V64.7744Z" fill="#1D337A"/>
<path fill-rule="evenodd" clip-rule="evenodd" d="M41.4645 18.6923C39.4571 17.9968 39.0699 15.4962 38.9886 13.5522C38.3769 13.6552 37.5479 13.7438 37.0443 13.8596C38.0226 12.1256 39.2656 9.45357 38.4035 8.21413C37.361 6.71507 33.1419 5.50336 30.4074 5.81485C30.4725 6.9963 31.2437 7.19876 31.7626 7.32004C32.4936 7.49104 33.1314 7.61417 33.5949 7.83509C37.2762 9.58737 35.9186 13.6174 34.4463 16.7563C35.6222 13.115 36.3231 9.79039 33.7256 8.45287C31.1282 7.11544 22.4996 7.71559 20.088 8.45658C20.669 11.429 27.1844 11.3925 28.5584 11.5493C26.8872 11.6912 25.3397 11.8519 24.3443 12.2629C25.2386 14.3155 27.8156 14.5402 30.3138 14.7773C25.9485 15.4882 22.9277 19.5674 22.5473 23.1315C22.1667 26.6955 23.3989 27.932 22.7194 30.2786C23.2174 29.8297 23.6924 29.018 23.6603 28.5173C24.0445 29.0552 24.1578 29.1619 24.4417 29.5629C26.384 32.3115 27.3189 33.2034 24.7328 36.0651C24.3544 36.4841 24.2644 36.9808 24.5704 37.2514C24.9487 37.5859 25.036 37.7124 25.3954 37.964C25.759 38.2187 26.2257 38.3094 27.1005 37.797C28.9973 36.6859 32.1191 33.6375 31.482 31.1346C33.098 30.5146 35.3949 29.6998 37.3377 27.658C37.4754 27.9488 37.204 28.887 36.7496 29.6374C36.5843 29.9104 36.5188 30.5551 36.8936 30.8856C37.1179 31.0834 37.1947 31.1439 37.4619 31.3536C37.8937 31.6923 38.4886 31.6293 38.9523 31.282C39.4524 30.9077 40.0042 30.2812 40.6772 28.981C41.7461 26.9154 41.2341 26.5552 42.0599 23.5873C42.729 21.1825 44.2118 19.9067 46.158 18.8482C48.5638 17.5395 49.5905 17.04 50.9241 14.769C51.4197 13.9413 51.714 13.5596 52.2465 13.0079C52.5265 12.7178 52.4828 12.4752 52.0111 12.6339L51.2827 12.9102C56.6047 9.24675 56.3761 0.263978 50.0548 0C49.7214 0.0013918 49.61 0.61332 50.038 0.705365C54.3088 1.48329 54.1347 7.33525 50.7165 9.31282C48.5598 10.5608 45.4527 9.44643 43.8155 10.6295C42.9943 11.223 42.3035 11.6366 41.1738 11.734C40.0444 11.8314 39.4115 12.6816 39.4821 13.8585C39.5806 15.4989 39.8428 18.0451 41.4645 18.6923V18.6923Z" fill="#1D337A"/>
</svg>
