<?xml version="1.0" encoding="utf-8"?>
<!-- Generator: Adobe Illustrator 19.1.0, SVG Export Plug-In . SVG Version: 6.00 Build 0)  -->
<svg version="1.1" id="Layer_1" xmlns="http://www.w3.org/2000/svg" xmlns:xlink="http://www.w3.org/1999/xlink" x="0px" y="0px"
	 viewBox="0 0 423 190.4" style="enable-background:new 0 0 423 190.4;" xml:space="preserve">
<style type="text/css">
	.st0{clip-path:url(#SVGID_2_);fill-rule:evenodd;clip-rule:evenodd;fill:#373435;}
</style>
<g>
	<defs>
		<rect id="SVGID_1_" x="7.1" y="3.2" width="408.8" height="184"/>
	</defs>
	<clipPath id="SVGID_2_">
		<use xlink:href="#SVGID_1_"  style="overflow:visible;"/>
	</clipPath>
	<path class="st0" d="M231.9,9.6c-5.6,0.8-9.7,6.2-16.8,7c-0.2,9.5,15.6,6.4,10.1,26.2l6.5-6.8c-0.8-5.2,0.7-11.7,6.1-15.5
		c4.4,4.5,1.7,9.1-0.5,12.4c-0.2,0.3-0.3,0.5-0.5,0.8l2.3,0.1l10.3-10.7C248,13.1,242.1,8.1,231.9,9.6 M257.3,37
		c26-8.4,53.4-13.4,80.5-19.3c-28.2,3.7-57.3,8.4-81.9,8.6l-7.1,7.4l6.5,2.6L257.3,37z M188.7,59.1l-12.6,14.2
		c-8.1,9.1-11.1,8.8-13.5,9.4l15.8,2.6c4,0.7,7.4,0.5,10.5-0.5C187.2,76.5,187.2,67.7,188.7,59.1z M222.2,43.5
		c3.3-16.7-10.2-26-33.5-19l-79.8,23.8c-16.8,5-34.3,4-43.4,2l26.8,14.3c14.1,7.5,21.4,6.1,36.5,0l48.3-19.5l-34.6,20.8
		c-8.2,4.9-16.8,8.1-21.4,8.2l20,4.7c9.6,2.2,20.4-0.7,28-6.4L189,57.3c1.2-6.1,3.1-12,5.8-17.5C204.1,40.1,213.4,41.3,222.2,43.5z
		 M282.6,46.5c1.4-1.2,1.5-3.1,1.3-5.1c-4.9,1.6-6.7,0.8-10.1,0.7c-0.1,0-0.2,0-0.3,0c-15.5-3.8-34.4-0.9-47.4,2.6
		c10,2.8,19.5,6.9,28.3,12.4c-1.8,13.1-6.5,26.2-14.3,36.6c12-9.6,22.7-20.2,35.3-22.5c-2.1-2.9-2.2-6.2-1.1-9.3
		c-0.1,9.8,10.8,11.8,20.4,12.3c6.8,0.4,14.4,0.8,21.6,5l4.6-6.6C309.8,62.6,296.8,53.8,282.6,46.5z M198.7,44.6
		c-14.1,29.1-6.4,55.2,7.8,67.8c18.8-2.7,39.5-20.4,43.6-52.5C243,55,235,51.3,225.6,48.5C216.2,45.7,207.4,44.4,198.7,44.6z
		 M219.2,7c6.2,2.4,14.2-2.2,21.8,0.4c6.2,2.2,9.3,6.8,11,13.6l6.5-2.1C255,8.4,248,4.1,240,3.3C232.2,2.6,226.2,7.6,219.2,7z"/>
	<path class="st0" d="M260.8,154c0-5.9-4.7-10.6-10.6-10.6h-9c0.1,0.7,1,1.9,2.4,1.9c0.1,0,2.7,0,2.7,0c5.7,0.1,6.5,5.3,6.4,8.7
		c0,3.3-1.4,8.4-6,8.5c-1.5,0-3,0.9-3,1.9c0.8,0,1.3,0.5,2.4,2.1l8.2,14.2c2.2,4.6,7,4.7,8.7,4.7l4.8,0l-0.1-1c-2.3,0-4-2.2-4.8-3.8
		l-6.5-11.1c-1.4-2.3-3-4-4.8-5.1C256.8,163.6,260.8,159.4,260.8,154 M119,148l0,29.6c0,7-1.7,7.7-8.4,7.7h-3.5v-1
		c2.4,0,3.4-1.3,3.4-3.6V174v-16.7V148c0-2.3-1-3.6-3.4-3.6v-1h15.3v1C120,144.4,119,145.7,119,148z M99,164.4
		c0,11.3-8.7,20.6-19.9,21.5c0-0.6,0-1.3,2.1-1.9c4.9-1.5,7.8-6.1,7.8-14.5v-10.2c0-8.4-3-13-7.8-14.5c-2.1-0.6-2.1-1.3-2.1-1.9
		C90.3,143.8,99,153.1,99,164.4z M55.9,164.4c0-11.3,8.7-20.6,19.9-21.5c0,0.6,0,1.3-2.1,1.9c-4.9,1.5-7.8,6.1-7.8,14.5v10.2
		c0,8.4,3,13,7.8,14.5c2.1,0.6,2.1,1.3,2.1,1.9C64.6,185,55.9,175.7,55.9,164.4z M152.1,143.4L152.1,143.4l-14.3,0l-1.7,9.5h1
		c0.8-2.9,3-6.4,7.4-6.4h7.6l0,34.2h0c0,2.3-1,3.6-3.4,3.6v1H164v-1c-2.4,0-3.3-1.3-3.4-3.6l0-6.7l0-16.7h0v-5.6
		c0-6.7-0.8-8.4-7.9-8.4l0,0H152.1z M240,151.8v28.9h0c0,2.3,1,3.6,3.4,3.6v1h-15v-1c2.4,0,3.3-1.3,3.4-3.6l0-32.8
		c0-2.3-0.9-3.6-3.4-3.6v-1h3.8l0,0C239.3,143.4,240,145.1,240,151.8z M355.2,184.4c2,0,2.8-1.7,2-3.6l-9.1-19.3
		c-3.7-7.8-4.7-9.4-1.2-16.9l1.3-2.7l18.4,38.8c0.8,1.6,2.4,3.8,4.6,3.8v1h-16V184.4z M333.7,180.3l7.1-14.9c2-4.2,2.7-5.9,0.7-9.5
		L330,180.2c-0.9,1.9-2.4,4.1-4.7,4.1v1h10.3v-1C333.3,184.4,332.7,182.4,333.7,180.3z M380.3,179.7l0-16.6c0-4.7-0.1-6.5-3.4-10.6
		l0,27.1c0,3-1,4.8-3.4,4.8l0,1h10.2l0-1C381.8,184.4,380.3,182.1,380.3,179.7z M407.8,149.1v16.5c0,4.7,0.1,6.5,3.4,10.6l0-27.1
		c0-3,0.9-4.8,3.4-4.8l0-1h-10.2l0,1C406.6,144.4,407.8,146.7,407.8,149.1z M412,182.1l-22.7-31.8c-3.1-4.3-5.1-6.9-9.2-6.9h-7.3v1
		c1.6,0,2.5,1.1,3.3,2.1l22.8,31.9c3.1,4.3,5.1,6.8,9.1,6.9h7.3v-1C413.7,184.4,412.8,183.3,412,182.1z M305,164.2
		c2-4.2,2.7-5.9,0.7-9.5l-8.3,17.4l-10.4-21.8c-2-4.3-3.4-6.9-7.2-6.9h-6.3l0,1c1.4,0,2,1.2,2.5,2.1l18.7,39.3
		C298.2,178.6,301.6,171.4,305,164.2z M309.9,155.2c-0.4-6.6-0.5-11.8,5.5-11.8h5.8v1c-2.4,0-3.3,1.3-3.2,3.6l0.4,6.7
		c0.4,8.3,0.9,16.7,1.3,25c0.2,2.9,1.4,4.6,3.7,4.7v1h-15.3v-1c1.9,0,3.2-2.3,3-4.7L309.9,155.2z M279.1,179.7l1-11
		c0.4-4.7,0.6-6-2.4-10.6l-2,21.5c-0.3,3-1.5,4.8-3.8,4.8v1H282v-1C280.1,184.3,278.9,182,279.1,179.7z M166.5,146.5
		c-2.7,0-4.8-1-5.1-3.1H175l1.7,9.5h-1c-1-3.5-3.3-6.2-7.1-6.4C168.4,146.5,166.7,146.5,166.5,146.5z M204.7,164.4
		c-2.1,0-4.2-1.1-4.2-3.1h4.3c2.3,0,5.3-0.3,5.4-3.4h1v13.9h-1C210.2,168.3,208,164.4,204.7,164.4z M197.1,151.8l0,30.4l9.2,0
		c5.1,0,8-2.6,9-6.4h1l-1.7,9.5h-29.4v-1c2.4,0,3.4-1.3,3.4-3.6l0-6.7l0-16.7h0V148c0-2.3-1-3.6-3.4-3.6v-1h4l0,0
		C196.3,143.4,197.1,145.1,197.1,151.8z M213.5,143.4l1.7,9.5h-1c-0.9-3.3-3.2-6.4-9-6.4h-2.3c-3.4,0-4.9-1.5-5.1-3.1H213.5z
		 M23.6,144.4c-2,0-2.8,1.7-2,3.6l9.1,19.3c3.7,7.8,4.7,9.4,1.2,16.9l-1.3,2.7l-18.4-38.8c-0.8-1.6-2.4-3.8-4.6-3.8v-1h16V144.4z
		 M45.1,148.5L38,163.4c-2,4.2-2.7,5.9-0.7,9.5l11.6-24.5c0.9-1.9,2.4-4.1,4.7-4.1v-1H43.3v1C45.5,144.4,46.1,146.3,45.1,148.5z
		 M124.6,182.2c-3.6,0-4.8,1.5-5.1,3.1h14.7l1.7-9.5h-1c-1,3.8-3.9,6.4-9,6.4L124.6,182.2z"/>
</g>
</svg>
